<svg xmlns="http://www.w3.org/2000/svg" xmlns:xlink="http://www.w3.org/1999/xlink" viewBox="0 0 200 50" xmlns:v="https://vecta.io/nano"><defs><linearGradient id="A" gradientTransform="matrix(-0.68667648,0.05980273,0.05383804,0.61981705,-379.68649,-200.06777)" x1="-553.27002" y1="525.90997" x2="-715.52527" y2="365.12198" gradientUnits="userSpaceOnUse"><stop offset="0" stop-color="#fff"/><stop offset="1" stop-color="#2a2a2a"/></linearGradient></defs><path d="M68.660898 25.165589q0-2.756079 2.035371-4.734684 2.026003-1.978604 4.867092-1.978604 2.81064 0 4.820248 1.994898 2.016634 1.997227 2.016634 4.795207 0 2.818929-2.026003 4.781239-2.035372 1.971621-4.911594 1.971621-2.545971 0-4.571974-1.750483-2.229774-1.939032-2.229774-5.076866zm2.000239.02793q0 2.164827 1.463875 3.561489 1.456848 1.396662 3.363399 1.396662 2.068162 0 3.489878-1.41994 1.421715-1.44089 1.421715-3.505622 0-2.088009-1.40532-3.500966-1.395951-1.41994-3.454745-1.41994-2.051767 0-3.466456 1.41994-1.412346 1.403645-1.412346 3.468377zm24.820293.996286l4.070744 5.568026h-2.42652l-3.754546-5.346888h-.358357v5.346888h-1.983843V18.694389h2.325804q2.604527 0 3.761574.973007 1.276499 1.084741 1.276499 2.86083 0 1.387351-.798691 2.385964-.801032.998613-2.112664 1.277946zm-2.468679-1.496756h.632394q2.815324 0 2.815324-2.141549 0-2.001882-2.740374-2.001882h-.707344zm16.631979 1.759794v5.307316h-1.98385v-13.06577h2.24852q1.65125 0 2.49444.230449.85022.228121 1.49901.861275 1.13128 1.101035 1.13128 2.777029 0 1.792383-1.20857 2.83988-1.21092 1.049824-3.26035 1.049824zm0-1.827299h.74013q2.73335 0 2.73335-2.08801 0-2.02516-2.81767-2.02516h-.65581zm15.54986-.819375h5.66813v-5.111783h1.98618v13.063445h-1.98384v-6.098758h-5.66812v6.098758h-1.98619V18.694389h1.98384zm24.19259-3.258878h-5.26995v3.140161h5.11536v1.852905h-5.11536v4.364569h5.26995v1.852905h-7.2538V18.694389h7.2538zm10.72259-1.852905v7.867862q0 1.685306.55276 2.462781.8268 1.126641 2.32346 1.126641 1.50838 0 2.33283-1.126641.5551-.75187.5551-2.460453v-7.87019h1.9815v8.407905q0 2.064732-1.29289 3.400872-1.45685 1.489773-3.57654 1.489773-2.11969 0-3.56483-1.489773-1.29523-1.33614-1.29523-3.398544v-8.410233zm24.46428 1.946015l-1.60909.94973q-.45205-.779802-.85959-1.017235-.42628-.270021-1.10083-.270021-.82446 0-1.37019.465554-.54339.456243-.54339 1.149918 0 .956714 1.42874 1.540984l1.31163.533059q1.60207.642465 2.3422 1.573573.74014.921797.74014 2.267248 0 1.801694-1.20858 2.979545-1.21794 1.182507-3.02144 1.182507-1.71214 0-2.82703-1.005596-1.09849-1.007925-1.37019-2.835224l2.00727-.439949q.13819 1.149919.47781 1.589867.61365.847309 1.78709.847309.92752 0 1.54117-.619187.61366-.616859.61366-1.564262 0-.381754-.11008-.693675-.10306-.321232-.3326-.581943-.22251-.272349-.57852-.50047-.35836-.237433-.85256-.44926l-1.26713-.523748q-2.70056-1.133624-2.70056-3.317072 0-1.471151 1.13363-2.462781 1.13128-.998613 2.81766-.998613 2.27194 0 3.55078 2.199742z" stroke-opacity=".839768" fill="#c8c4b7" stroke="#4d4d4d" stroke-width=".100001"/><g transform="matrix(.42 0 0 .420001 7.204735 2.0088631)"><use xlink:href="#B" transform="matrix(-.9993739999999999 -.04621014 .04212234 -.9986779999999998 125.26143000000002 112.28283)"/><path d="M100.77158 58.285847c.10185 39.276295-27.049662 45.358923-30.942832 45.697983-28.112185 2.44829-53.332544-16.488537-55.825256-45.186181C11.232831 26.900065 37.012453 6.8527162 61.208786 4.745455c-6.774341-.2542023-34.440789 9.81199-33.761456 46.110417.444601 23.756181 24.356387 47.794564 41.216564 39.717429 21.106778-10.111534 22.025329-62.491721-2.770971-73.112405 25.678928-2.376432 34.406127 27.330491 34.878657 40.824951z" fill="url(#A)" id="B" fill-rule="evenodd"/></g></svg>