<svg xmlns="http://www.w3.org/2000/svg" xmlns:xlink="http://www.w3.org/1999/xlink" width="50" height="44" viewBox="-2 -2 54 48" version="2026.01"><defs><linearGradient xlink:href="#a" id="b" x1="30" x2="30" y1="52" y2="8" gradientTransform="matrix(1.01457 0 0 .99784 3.563 -5.283)" gradientUnits="userSpaceOnUse"/><linearGradient id="a" gradientUnits="userSpaceOnUse" spreadMethod="pad"><stop offset="0" style="stop-color:#e8e8e8;stop-opacity:1"/><stop offset=".21" style="stop-color:#d2d5d5;stop-opacity:1"/><stop offset=".9" style="stop-color:#4e5b58;stop-opacity:1"/><stop offset="1" style="stop-color:#1c2120;stop-opacity:1"/></linearGradient><linearGradient xlink:href="#a" id="c" x1="30" x2="30" y1="52" y2="8" gradientTransform="matrix(-1.01457 0 0 -.99784 64.437 54.588)" gradientUnits="userSpaceOnUse"/></defs><g stroke="#4d4d4d" stroke-opacity=".61" stroke-width=".091" style="display:inline"><path fill="url(#b)" d="M30.376 3.698c-10.676 0-19.33 9.382-19.33 20.955s8.654 20.954 19.33 20.954c1.239 0 2.45-.126 3.624-.368a18.983 20.578 0 0 0 2.695-.778c7.521-2.819 12.938-10.53 13.01-19.623v-.37c-.091-7.149-5.464-12.912-12.08-12.912-1.263 0-2.481.21-3.625.6 4.902 1.668 8.457 6.632 8.457 12.497 0 5.864-3.555 10.828-8.457 12.497-1.144.389-2.362.6-3.624.6-6.617 0-11.99-5.764-12.081-12.912v-.37c.072-9.094 5.489-16.805 13.01-19.624A18.983 20.578 0 0 1 34 4.066a18 18 0 0 1 3.624-.368Zm0 0" transform="matrix(1.04348 0 0 1 -10.478 -2.653)"/><path fill="url(#c)" d="M34 4.066a18.983 20.578 0 0 0-2.695.778c-7.521 2.819-12.938 10.53-13.01 19.624v.37c.091 7.148 5.464 12.911 12.08 12.911 1.263 0 2.481-.21 3.625-.599-4.902-1.669-8.457-6.633-8.457-12.497 0-5.865 3.555-10.829 8.457-12.498 1.144-.389 2.362-.6 3.624-.6 6.617 0 11.99 5.764 12.081 12.913v.37c-.072 9.093-5.489 16.804-13.01 19.623A18.983 20.578 0 0 1 34 45.24a18 18 0 0 1-3.624.368h7.248c10.676 0 19.33-9.382 19.33-20.954S48.3 3.698 37.625 3.698c-1.239 0-2.45.126-3.624.368" transform="matrix(1.04348 0 0 1 -10.478 -2.653)"/></g></svg>
