<?xml version="1.0" encoding="UTF-8" standalone="no"?>
<!-- Created with Inkscape (http://www.inkscape.org/) -->

<svg
   viewBox="0 0 48 48"
   version="1.1"
   id="svg5681"
   xml:space="preserve"
   inkscape:version="1.2.2 (b0a84865, 2022-12-01)"
   sodipodi:docname="ops-loop.svg"
   xmlns:inkscape="http://www.inkscape.org/namespaces/inkscape"
   xmlns:sodipodi="http://sodipodi.sourceforge.net/DTD/sodipodi-0.dtd"
   xmlns:xlink="http://www.w3.org/1999/xlink"
   xmlns="http://www.w3.org/2000/svg"
   xmlns:svg="http://www.w3.org/2000/svg"><sodipodi:namedview
     id="namedview5683"
     pagecolor="#505050"
     bordercolor="#eeeeee"
     borderopacity="1"
     inkscape:showpageshadow="0"
     inkscape:pageopacity="0"
     inkscape:pagecheckerboard="0"
     inkscape:deskcolor="#505050"
     inkscape:document-units="mm"
     showgrid="false"
     inkscape:zoom="2.0333229"
     inkscape:cx="317.95245"
     inkscape:cy="77.705316"
     inkscape:window-width="1920"
     inkscape:window-height="974"
     inkscape:window-x="1440"
     inkscape:window-y="25"
     inkscape:window-maximized="0"
     inkscape:current-layer="layer1" /><defs
     id="defs5678"><linearGradient
       id="linearGradient947"><stop
         stop-color="#fff"
         offset="0"
         id="stop945" /><stop
         offset="1"
         id="stop943"
         style="stop-color:#2c2c2c;stop-opacity:1;" /></linearGradient><linearGradient
       id="linearGradient8385"><stop
         stop-color="#fff"
         offset="0"
         id="stop239" /><stop
         offset="1"
         id="stop237"
         style="stop-color:#2a2a2a;stop-opacity:1;" /></linearGradient><linearGradient
       id="linearGradient3002"
       x1="-553.27002"
       x2="-666.12"
       y1="525.90997"
       y2="413.04999"
       gradientTransform="matrix(-1.1596701,0,0,0.9987,-614.18955,-388.83987)"
       gradientUnits="userSpaceOnUse"
       xlink:href="#linearGradient8385" /><linearGradient
       id="linearGradient3005"
       x1="-666.12"
       x2="-553.27002"
       y1="413.04001"
       y2="525.90997"
       gradientTransform="matrix(-1.1596701,0,0,0.9987,-614.18955,-388.83987)"
       gradientUnits="userSpaceOnUse"
       xlink:href="#linearGradient947" /><linearGradient
       inkscape:collect="always"
       xlink:href="#linearGradient8385"
       id="linearGradient5351"
       gradientUnits="userSpaceOnUse"
       gradientTransform="matrix(-1.1596701,0,0,0.9987,-613.35567,-389.19265)"
       x1="-553.27002"
       y1="525.90997"
       x2="-715.52527"
       y2="365.12198" /></defs><g
     inkscape:label="Layer 1"
     inkscape:groupmode="layer"
     id="layer1"
     transform="translate(-10.586672,-4.3686516)"><g
       id="g888"
       transform="matrix(1.1035532,0,0,1.1035532,-2.7511077,0.77982156)"
       style="stroke-width:0.906164"><g
         id="g5892"
         transform="matrix(0.23157747,0,0,0.23149242,12.307259,6.4878081)"
         style="stroke-width:0.10355"><g
           id="layer1-6"
           inkscape:label="2"
           style="stroke-width:0.10355"><use
             x="0"
             y="0"
             xlink:href="#path248-1"
             id="use5394"
             transform="rotate(-177.47143,92.90037,79.999595)"
             style="stroke-width:0.10355" /><path
             d="m 148.14754,82.280125 c 0.13168,27.860055 4.54247,76.025215 -51.695063,77.367225 C 20.325783,159.95912 9.4773393,127.85391 8.8338764,82.280125 8.0669524,27.962105 26.454273,0.22397821 96.452477,-0.25364561 38.805257,0.30684965 42.336266,40.652864 42.336266,82.280125 c 0,41.627265 8.520949,52.184025 55.183517,51.869805 33.887567,-0.22819 31.519537,-10.44392 30.253257,-56.01788 -1.26627,-45.573963 -3.12547,-50.32117 -31.256578,-52.188893 56.283208,0.73128 51.499398,28.476917 51.631078,56.336968 z"
             color="#000000"
             fill="url(#linearGradient3002)"
             id="path248-1"
             style="fill:url(#linearGradient5351);fill-rule:evenodd;stroke-width:0.0915389"
             sodipodi:nodetypes="zcsczszcz"
             inkscape:label="path248-1" /></g><g
           id="layer2"
           inkscape:label="3"
           style="display:none;stroke-width:0.10355"><path
             d="m 93.086852,41.401129 c 27.156188,-8.0619 60.422798,11.216 60.422798,49.829 0,63.048001 -54.243866,68.770001 -60.818705,68.770001 C 45.214642,160.00013 0,126.20413 0,79.964129 0,28.568129 51.827794,0.09912927 92.690945,0.09912927 81.373236,-1.2508707 31.689956,10.649129 31.689956,69.136129 c 0,38.141001 37.097973,58.905001 61.226227,50.033001 0.554304,-0.17707 27.300147,-9.2645 27.300147,-38.951001 0,-29.56 -27.129478,-38.818 -27.129478,-38.818 z"
             color="#000000"
             fill="url(#linearGradient3002)"
             id="path248"
             style="display:none;fill:url(#linearGradient3002);fill-rule:evenodd;stroke-width:0.0915389"
             sodipodi:insensitive="true" /><path
             d="m 93.038089,119.10013 c -41.097676,48.255 -81.317623,-13.469 -81.258412,-50.587001 0.06989,-43.886 51.712854,-68.41399973 81.292082,-68.41399973 47.476301,0 92.690941,33.79599973 92.690941,80.03599973 0,51.396001 -51.82779,79.865001 -92.690941,79.865001 9.246921,-1.1468 40.062051,-6.834 40.476531,-67.967001 0.27849,-41.347 -15.65979,-57.866 -40.409192,-50.599 -0.554305,0.17707 -27.300152,9.2645 -27.300152,38.951 0,29.560001 27.199143,38.715001 27.199143,38.715001 z"
             color="#000000"
             fill="url(#linearGradient3005)"
             id="path246"
             style="display:none;fill:url(#linearGradient3005);fill-rule:evenodd;stroke-width:0.0915389"
             sodipodi:insensitive="true" /></g><g
           id="layer3"
           inkscape:label="Layer 1"
           style="stroke-width:0.10355" /></g></g><text
       xml:space="preserve"
       style="font-style:normal;font-variant:normal;font-weight:500;font-stretch:normal;font-size:17.3807px;font-family:'DM Mono';-inkscape-font-specification:'DM Mono, Medium';font-variant-ligatures:normal;font-variant-caps:normal;font-variant-numeric:normal;font-variant-east-asian:normal;text-align:center;letter-spacing:6.11618px;text-anchor:middle;display:none;fill:none;stroke:none;stroke-width:0.0999999;stroke-dasharray:none;stroke-opacity:0.839768;stop-color:#000000"
       x="63.562378"
       y="31.857296"
       id="text5948-7"
       transform="scale(1.0030961,0.99691345)"><tspan
         sodipodi:role="line"
         id="tspan5946-3"
         style="font-style:normal;font-variant:normal;font-weight:normal;font-stretch:normal;font-size:17.3807px;font-family:Futura;-inkscape-font-specification:'Futura, Normal';font-variant-ligatures:normal;font-variant-caps:normal;font-variant-numeric:normal;font-variant-east-asian:normal;text-align:start;text-anchor:start;fill:none;stroke:none;stroke-width:0.0999999;stroke-dasharray:none"
         x="0"
         y="0"
         rotate="0 0 0 0 0 0 0 0">ORPHEUS</tspan></text></g></svg>
