<svg xmlns="http://www.w3.org/2000/svg" viewBox="0 0 11.90625 11.906249" xmlns:v="https://vecta.io/nano"><defs><clipPath id="A"><path d="M0 66.508c0 9.246 1.836 17.84 5.512 25.781s8.535 14.879 14.582 20.809c6.164 5.808 13.277 10.429 21.34 13.867 8.062 3.32 16.476 4.98 25.25 4.98 8.89 0 17.308-1.718 25.25-5.156 8.062-3.559 15.117-8.359 21.164-14.406 6.164-6.043 11.023-13.039 14.578-20.981 3.676-8.062 5.515-16.539 5.515-25.429 0-10.196-1.957-19.325-5.871-27.387-3.793-8.18-8.832-15.113-15.113-20.805-6.164-5.687-13.277-10.074-21.34-13.156C82.926 1.543 74.863 0 66.684 0c-7.586 0-15.352 1.602-23.293 4.801-7.946 3.082-15.118 7.527-21.52 13.336S10.195 30.941 6.047 39.121C2.016 47.301 0 56.43 0 66.508z" transform="scale(1.3333333)"/></clipPath><clipPath id="B"><path d="M0 0h526v132H0z" transform="scale(1.3333333)"/></clipPath><clipPath id="C"><path d="M0 0h526v132H0z"/></clipPath><clipPath id="D"><path d="M0 0h526v132H0z" transform="scale(1.3333333)"/></clipPath><clipPath id="E"><path d="M0 0h526v132H0z"/></clipPath><clipPath id="F"><path d="M0 0h526v132H0z" transform="scale(1.3333333)"/></clipPath><clipPath id="G"><path d="M0 0h526v132H0z"/></clipPath><clipPath id="H"><path d="M0 0h526v132H0z" transform="scale(1.3333333)"/></clipPath><clipPath id="I"><path d="M0 0h526v132H0z"/></clipPath><clipPath id="J"><path d="M0 0h526v132H0z" transform="scale(1.3333333)"/></clipPath><clipPath id="K"><path d="M0 0h526v132H0z"/></clipPath><clipPath id="L"><path d="M0 0h526v132H0z" transform="scale(1.3333333)"/></clipPath><clipPath id="M"><path d="M0 0h526v132H0z"/></clipPath><clipPath id="N"><path d="M0 0h526v132H0z" transform="scale(1.3333333)"/></clipPath><clipPath id="O"><path d="M0 0h526v132H0z"/></clipPath><clipPath id="P"><path d="M0 0h526v132H0z"/></clipPath></defs><g transform="matrix(.061322 0 0 .061322 -.6771299999999769 .12748999999999455)"><g clip-path="url(#A)" transform="matrix(1.002572 0 0 1 19.098639 7.0366689)"><g opacity=".88" clip-path="url(#B)"><path d="M0 66.508c0 9.246 1.836 17.84 5.512 25.781s8.535 14.879 14.582 20.809c6.164 5.808 13.277 10.429 21.34 13.867 8.062 3.32 16.476 4.98 25.25 4.98 8.89 0 17.308-1.718 25.25-5.156 8.062-3.559 15.117-8.359 21.164-14.406 6.164-6.043 11.023-13.039 14.578-20.981 3.676-8.062 5.515-16.539 5.515-25.429 0-10.196-1.957-19.325-5.871-27.387-3.793-8.18-8.832-15.113-15.113-20.805-6.164-5.687-13.277-10.074-21.34-13.156C82.926 1.543 74.863 0 66.684 0c-7.586 0-15.352 1.602-23.293 4.801-7.946 3.082-15.118 7.527-21.52 13.336S10.195 30.941 6.047 39.121C2.016 47.301 0 56.43 0 66.508z" transform="scale(1.3333333)" clip-path="url(#C)" fill="#333" fill-opacity=".87844"/></g><g opacity=".55" clip-path="url(#D)"><path d="M34.289 85.328c-4.684-8.113-8.621-15.762-11.816-22.953s-5.082-13.902-5.668-20.133.504-11.93 3.277-17.09c2.711-5.257 7.66-9.964 14.848-14.113 7.699-4.445 14.562-6.426 20.593-5.937 6.075.324 11.645 2.382 16.704 6.168 5 3.683 9.605 8.691 13.808 15.023 4.246 6.172 8.445 12.852 12.594 20.039 4.625 8.008 8.613 15.629 11.969 22.863 3.398 7.071 5.472 13.746 6.222 20.024.688 6.172-.293 11.937-2.945 17.304-2.711 5.262-7.867 10.086-15.465 14.469-5.75 3.32-11.203 5.375-16.359 6.164-5.055.727-10.102-.191-15.145-2.758-4.996-2.726-10.125-7.226-15.386-13.496-5.325-6.371-11.067-14.898-17.231-25.574zM9.188 99.82c4.621 8.008 10.511 14.532 17.664 19.575s14.832 8.617 23.031 10.726c8.242 1.949 16.715 2.395 25.414 1.344 8.644-1.156 16.762-3.93 24.359-8.317 7.699-4.445 14.129-10.14 19.289-17.089 5.203-7.11 8.91-14.797 11.125-23.055 2.317-8.316 3.028-16.805 2.137-25.461-.848-8.82-3.496-17.078-7.941-24.781-5.098-8.828-11.356-15.754-18.774-20.782C98.117 6.793 90.285 3.309 82 1.52 73.816-.324 65.461-.566 56.938.793c-8.418 1.305-16.172 4-23.254 8.09-6.571 3.793-12.496 9.062-17.774 15.805-5.336 6.64-9.324 14.078-11.965 22.308S.234 63.922.73 73.082c.598 9.098 3.418 18.012 8.458 26.738z" transform="scale(1.3333333)" clip-path="url(#E)" fill="#00f"/></g><g opacity=".55" clip-path="url(#F)"><path d="M48.062 98.914c-8.109-4.684-15.343-9.34-21.707-13.973S15.004 75.445 11.379 70.34 5.852 59.758 5.672 53.906c-.281-5.914 1.652-12.461 5.801-19.648 4.445-7.699 9.402-12.848 14.871-15.442 5.422-2.754 11.273-3.757 17.547-3.007 6.171.687 12.664 2.722 19.472 6.105 6.762 3.223 13.739 6.906 20.926 11.059 8.008 4.621 15.273 9.226 21.797 13.816 6.476 4.426 11.609 9.168 15.398 14.227 3.684 5 5.715 10.488 6.102 16.461.281 5.91-1.77 12.668-6.156 20.265-3.321 5.746-7.016 10.254-11.09 13.512-4.012 3.16-8.844 4.887-14.492 5.187-5.692.137-12.383-1.195-20.075-3.996-7.796-2.855-17.031-7.367-27.711-13.531zM33.57 124.016c8.008 4.625 16.371 7.328 25.086 8.117s17.153.047 25.309-2.223c8.113-2.437 15.676-6.285 22.683-11.547 6.907-5.32 12.551-11.781 16.938-19.379 4.445-7.699 7.164-15.847 8.16-24.445.949-8.762.32-17.269-1.894-25.527-2.153-8.364-5.782-16.071-10.883-23.121-5.141-7.211-11.563-13.043-19.266-17.489C90.875 3.305 81.992.434 73.055-.207c-8.981-.805-17.508.09-25.575 2.687-8.011 2.493-15.367 6.461-22.066 11.899-6.641 5.34-12.008 11.551-16.098 18.633-3.793 6.57-6.289 14.097-7.488 22.574-1.301 8.422-1.039 16.855.793 25.305s5.25 16.511 10.258 24.195c5.07 7.582 11.965 13.891 20.691 18.93z" transform="scale(1.3333333)" clip-path="url(#G)" fill="#f0f"/></g><g opacity=".55" clip-path="url(#H)"><path d="M67.129 103.582c-9.367 0-17.961-.414-25.785-1.246S26.762 99.789 21.07 97.18 10.996 90.777 7.914 85.801C4.711 80.82 3.113 74.184 3.113 65.883c0-8.891 1.719-15.824 5.157-20.805 3.32-5.098 7.882-8.89 13.691-11.379 5.691-2.492 12.328-3.972 19.918-4.445 7.469-.594 15.351-.891 23.648-.891 9.246 0 17.844.356 25.785 1.067 7.825.593 14.641 2.132 20.45 4.625 5.691 2.488 10.195 6.222 13.515 11.203 3.2 4.976 4.801 11.851 4.801 20.625 0 6.64-.949 12.39-2.844 17.25-1.898 4.742-5.218 8.652-9.961 11.734-4.859 2.965-11.32 5.16-19.382 6.582-8.18 1.422-18.434 2.133-30.762 2.133zm0 28.984c9.246 0 17.84-1.836 25.785-5.511s14.875-8.535 20.805-14.582c5.808-6.164 10.433-13.278 13.871-21.34 3.316-8.059 4.976-16.477 4.976-25.25 0-8.891-1.718-17.309-5.156-25.25-3.555-8.063-8.355-15.113-14.402-21.16-6.047-6.164-13.043-11.028-20.985-14.582C83.961 1.215 75.484-.621 66.594-.621c-10.196 0-19.321 1.953-27.383 5.867-8.18 3.793-15.117 8.832-20.805 15.113-5.691 6.164-10.078 13.278-13.16 21.34C2.164 49.641.621 57.703.621 65.883c0 7.59 1.602 15.351 4.801 23.297 3.086 7.941 7.531 15.113 13.34 21.515s12.8 11.676 20.98 15.828c8.18 4.028 17.309 6.043 27.387 6.043z" transform="scale(1.3333333)" clip-path="url(#I)" fill="#f60"/></g><g opacity=".55" clip-path="url(#J)"><path d="M98.902 46.617c4.684 8.113 8.621 15.762 11.813 22.953s5.086 13.903 5.672 20.133c.586 6.235-.508 11.93-3.278 17.09-2.711 5.258-7.66 9.965-14.847 14.113-7.7 4.446-14.567 6.426-20.598 5.938-6.074-.324-11.641-2.383-16.699-6.168-5.004-3.684-9.606-8.692-13.809-15.024-4.25-6.172-8.449-12.851-12.597-20.039-4.621-8.008-8.614-15.629-11.969-22.863-3.399-7.07-5.473-13.746-6.219-20.023-.691-6.172.293-11.938 2.945-17.305 2.711-5.262 7.864-10.086 15.461-14.469 5.75-3.32 11.203-5.375 16.364-6.164 5.054-.727 10.101.191 15.14 2.758 4.996 2.726 10.129 7.226 15.391 13.496 5.32 6.371 11.066 14.898 17.23 25.574zm25.102-14.492c-4.625-8.008-10.512-14.531-17.668-19.574S91.508 3.934 83.305 1.824C75.062-.125 66.59-.57 57.891.48 49.25 1.637 41.133 4.41 33.535 8.797c-7.703 4.445-14.133 10.141-19.289 17.09-5.203 7.109-8.914 14.797-11.125 23.054C.805 57.258.094 65.746.984 74.402c.848 8.821 3.496 17.078 7.942 24.782 5.097 8.828 11.355 15.754 18.773 20.781 7.375 5.187 15.207 8.672 23.492 10.461 8.184 1.844 16.536 2.086 25.059.726 8.422-1.304 16.172-4 23.258-8.09 6.57-3.792 12.492-9.062 17.773-15.804 5.336-6.641 9.324-14.078 11.965-22.309s3.711-16.926 3.215-26.086c-.602-9.097-3.418-18.011-8.457-26.738z" transform="scale(1.3333333)" clip-path="url(#K)" fill="#c50072"/></g><g opacity=".55" clip-path="url(#L)"><path d="M85.949 98.277c-8.109 4.684-15.761 8.621-22.953 11.817s-13.902 5.082-20.133 5.668-11.929-.504-17.086-3.274c-5.261-2.715-9.968-7.664-14.117-14.847-4.445-7.703-6.426-14.567-5.937-20.598.328-6.074 2.382-11.641 6.168-16.703 3.683-5 8.691-9.602 15.027-13.809 6.172-4.246 12.848-8.445 20.035-12.593 8.008-4.626 15.629-8.614 22.863-11.969 7.075-3.399 13.746-5.473 20.024-6.219 6.172-.691 11.941.289 17.305 2.941 5.261 2.715 10.085 7.868 14.472 15.465 3.321 5.75 5.371 11.203 6.16 16.36.727 5.054-.191 10.105-2.757 15.144-2.727 4.996-7.227 10.125-13.497 15.391-6.371 5.32-14.894 11.062-25.574 17.226zm14.492 25.106c8.008-4.625 14.536-10.516 19.575-17.668s8.617-14.832 10.726-23.031c1.949-8.243 2.399-16.715 1.344-25.414-1.156-8.641-3.926-16.762-8.313-24.36-4.445-7.699-10.144-14.129-17.093-19.289-7.11-5.203-14.793-8.91-23.055-11.125C75.309.184 66.82-.531 58.164.363c-8.82.848-17.078 3.492-24.777 7.938-8.832 5.097-15.758 11.355-20.785 18.777C7.418 34.453 3.93 42.281 2.145 50.57.297 58.754.055 67.105 1.418 75.629c1.301 8.418 3.996 16.172 8.086 23.254 3.793 6.57 9.062 12.496 15.805 17.773 6.64 5.34 14.078 9.328 22.308 11.969 8.235 2.637 16.926 3.711 26.086 3.211 9.102-.598 18.012-3.418 26.738-8.453z" transform="scale(1.3333333)" clip-path="url(#M)" fill="#ffff08"/></g><g opacity=".55" clip-path="url(#N)"><path d="M99.535 84.504c-4.683 8.109-9.34 15.348-13.969 21.707s-9.5 11.351-14.601 14.977-10.582 5.527-16.438 5.707c-5.91.281-12.461-1.653-19.648-5.801-7.699-4.446-12.848-9.403-15.438-14.867-2.757-5.426-3.757-11.274-3.011-17.551.691-6.172 2.726-12.66 6.109-19.469 3.219-6.766 6.906-13.742 11.055-20.926 4.625-8.008 9.23-15.273 13.816-21.797 4.426-6.48 9.168-11.613 14.231-15.398 5-3.684 10.484-5.719 16.457-6.106 5.914-.281 12.668 1.77 20.265 6.157 5.75 3.32 10.254 7.015 13.516 11.09 3.156 4.011 4.887 8.843 5.183 14.492.137 5.691-1.195 12.383-3.992 20.074-2.859 7.797-7.371 17.031-13.535 27.711zm25.102 14.492c4.625-8.008 7.332-16.371 8.121-25.086s.047-17.152-2.227-25.308c-2.433-8.114-6.281-15.676-11.547-22.684-5.32-6.902-11.781-12.551-19.379-16.938C91.906 4.535 83.758 1.816 75.16.824c-8.758-.953-17.269-.32-25.527 1.891-8.363 2.156-16.067 5.781-23.121 10.883-7.211 5.144-13.039 11.566-17.489 19.265C3.926 41.691 1.059 50.574.414 59.512c-.805 8.98.09 17.508 2.688 25.578 2.492 8.008 6.46 15.363 11.902 22.062 5.336 6.641 11.547 12.008 18.633 16.098 6.57 3.793 14.093 6.289 22.574 7.488 8.418 1.305 16.851 1.039 25.301-.789s16.515-5.25 24.199-10.261c7.578-5.067 13.887-11.965 18.926-20.692z" transform="scale(1.3333333)" clip-path="url(#O)" fill="#0ff" fill-opacity=".983945"/></g></g><path d="M28.984 66.508c0-9.367.414-17.961 1.246-25.785s2.547-14.582 5.157-20.274 6.402-10.074 11.383-13.16c4.976-3.199 11.617-4.801 19.914-4.801 8.89 0 15.828 1.719 20.804 5.157 5.098 3.32 8.891 7.886 11.383 13.695 2.488 5.687 3.969 12.328 4.445 19.914.594 7.469.887 15.351.887 23.652 0 9.246-.355 17.84-1.066 25.785-.59 7.825-2.133 14.641-4.621 20.45-2.493 5.691-6.227 10.195-11.204 13.515-4.98 3.199-11.855 4.801-20.628 4.801-6.637 0-12.387-.949-17.25-2.848-4.743-1.894-8.653-5.214-11.735-9.957-2.965-4.859-5.156-11.32-6.578-19.382-1.426-8.18-2.137-18.434-2.137-30.762zM0 66.508c0 9.246 1.836 17.84 5.512 25.781s8.535 14.879 14.582 20.809c6.164 5.808 13.277 10.429 21.34 13.867 8.062 3.32 16.476 4.98 25.25 4.98 8.89 0 17.308-1.718 25.25-5.156 8.062-3.559 15.117-8.359 21.164-14.406 6.164-6.043 11.023-13.039 14.578-20.981 3.676-8.062 5.515-16.539 5.515-25.429 0-10.196-1.957-19.325-5.871-27.387-3.793-8.18-8.832-15.113-15.113-20.805-6.164-5.687-13.277-10.074-21.34-13.156C82.926 1.543 74.863 0 66.684 0c-7.586 0-15.352 1.602-23.293 4.801-7.946 3.082-15.118 7.527-21.52 13.336S10.195 30.941 6.047 39.121C2.016 47.301 0 56.43 0 66.508z" transform="matrix(1.336763 0 0 1.333333 19.098639 7.0366689)" clip-path="url(#P)" fill="#f9f9f9" fill-opacity=".87844" opacity=".88"/></g></svg>