<svg xmlns="http://www.w3.org/2000/svg" xmlns:xlink="http://www.w3.org/1999/xlink" width="740" height="200" viewBox="0 0 195.79165 52.916662"><style>.B{opacity:.55}.C{fill-opacity:.483395}</style><use xlink:href="#B" fill="gray"/><path d="M32.653183 38.906449q-4.550826 0-8.352783-.403238-3.801956-.403237-6.567015-1.670556-2.76506-1.267319-4.2628-3.686746-1.555346-2.419427-1.555346-6.451805 0-4.320405 1.670557-6.739832 1.612951-2.477032 4.435616-3.686745 2.765059-1.209714 6.451804-1.440135 3.629141-.288027 7.661519-.288027 4.493221 0 8.352783.345632 3.801956.288027 6.624621 1.497741 2.765059 1.209713 4.37801 3.62914 1.555346 2.419427 1.555346 6.682226 0 3.225903-.921687 5.587724-.921686 2.304216-3.225902 3.801956-2.361821 1.440136-6.278989 2.1314-3.974772.691265-9.965734.691265zm0 9.38968q4.493221 0 8.352783-1.785767 3.859562-1.785767 6.739832-4.723643 2.822665-2.995481 4.493221-6.912648 1.612951-3.917167 1.612951-8.179967 0-4.320405-1.670556-8.179967-1.728162-3.917167-4.666038-6.855042-2.937875-2.9954806-6.797437-4.7236426-3.917167-1.7857674-8.237572-1.7857674-4.954064 0-8.871232 1.9009782-3.974772 1.8433728-6.739831 4.8964588-2.76506 2.995481-4.2628 6.912648-1.49774 3.859562-1.49774 7.834334 0 3.686746 1.555345 7.546308 1.497741 3.859562 4.320405 6.970253 2.822665 3.110692 6.797438 5.126881 3.974772 1.958583 8.871231 1.958583z" fill="red" fill-opacity=".597846" class="B"/><use xlink:href="#B" fill="#16ff08" class="B C"/><path d="M42.945257 20.481488q2.275413 3.941131 3.827177 7.435341 1.551764 3.494209 1.836763 6.52248.285 3.028271-1.061415 5.535066-1.317613 2.556682-4.809754 4.572871-3.741581 2.160203-6.672144 1.923171-2.951648-.15834-5.410623-1.997983-2.430172-1.789755-4.473096-4.867359-2.064009-2.998914-4.080198-6.491056-2.246611-3.891244-3.877065-7.406539-1.651539-3.436604-2.015229-6.48596-.334887-2.999468.953922-5.606038 1.317612-2.556683 5.009305-4.6880821 2.793714-1.6129515 5.299954-1.9956577 2.456353-.3539045 4.905542.8927346 2.428104 1.3253295 4.985341 4.3720642 2.586039 3.096621 5.58152 8.284947zm8.131701-4.69484q-2.24661-3.891244-5.722911-6.3408392-3.476301-2.4495952-7.460711-3.4750442-4.005495-.9467591-8.233139-.4349195-4.198842.5617269-7.890535 2.6931269-3.74158 2.160203-6.24878 5.536727-2.528286 3.455216-3.603623 7.468429-1.125225 4.042015-.692076 8.248574.412064 4.28525 2.572266 8.026831 2.477032 4.290345 6.081912 6.732223 3.583793 2.520567 7.610373 3.388635 3.976693.896872 8.117929.235369 4.091349-.6327 7.533602-2.620086 3.192816-1.843373 5.757622-5.120122 2.593608-3.226863 3.876214-7.226707 1.282606-3.999846 1.04129-8.450194-.291203-4.421546-2.739433-8.662003z" fill="#00f" fill-opacity=".64" class="B"/><path d="M22.015534 32.96433q-2.275414-3.941132-3.827177-7.435341-1.551764-3.49421-1.836764-6.522481-.284999-3.028271 1.061416-5.535065 1.317612-2.556683 4.809754-4.5728719 3.74158-2.1602025 6.672144-1.9231712 2.951648.1583405 5.410623 1.9979822 2.430172 1.7897559 4.473096 4.8673599 2.064009 2.998914 4.080198 6.491055 2.246611 3.891245 3.877064 7.406539 1.65154 3.436605 2.01523 6.48596.334887 2.999469-.953922 5.606039-1.317612 2.556683-5.009305 4.688083-2.793713 1.612951-5.299955 1.995657-2.456352.353905-4.905541-.892735-2.428105-1.32533-4.985341-4.372064-2.586039-3.096621-5.58152-8.284946zm-8.131702 4.69484q2.246611 3.891243 5.722912 6.340838t7.46071 3.475045q4.005495.946758 8.233139.434919 4.198843-.561727 7.890535-2.693127 3.741581-2.160202 6.248781-5.536727 2.528285-3.455216 3.603623-7.468429 1.125224-4.042014.692075-8.248574-.412063-4.28525-2.572265-8.026831-2.477033-4.290346-6.081912-6.7322229-3.583793-2.5205671-7.610373-3.3886363-3.976693-.8968708-8.117929-.2353682-4.091349.6326993-7.533603 2.6200858-3.192815 1.8433726-5.757621 5.1201226-2.593608 3.226863-3.876214 7.226707-1.282606 3.999846-1.041291 8.450194.291204 4.421546 2.739433 8.662004z" fill="#c50072" class="B C"/><path d="M38.422518 16.085249q3.941131 2.275413 7.032103 4.525605 3.090972 2.250193 4.851924 4.730252 1.760952 2.480061 1.84832 5.324216.137256 2.872958-1.878933 6.3651-2.160203 3.74158-4.816661 5.001587-2.635373 1.338697-5.684729.975007-2.999468-.334887-6.307494-1.978708-3.286942-1.565132-6.779083-3.581321-3.891244-2.24661-7.060906-4.475718-3.148577-2.150417-4.98822-4.609392-1.789755-2.430172-1.976898-5.331932-.137256-2.872959 1.994144-6.564651 1.612951-2.793714 3.592066-4.378268 1.950312-1.534666 4.694692-1.679639 2.765464-.06628 6.503464 1.293648 3.787885 1.388733 8.976211 4.384214zm4.69484-8.1317019q-3.891244-2.2466105-8.126606-2.6298719-4.235363-.3832606-8.198687.7208788-3.94224 1.1828302-7.347568 3.7399185-3.35544 2.5858905-5.48684 6.2775835-2.160202 3.741581-2.643239 7.919337-.461952 4.256447.613386 8.269661 1.046534 4.063099 3.524932 7.489512 2.499482 3.505104 6.241062 5.665307 4.290346 2.477032 8.633202 2.78932 4.36394.390978 8.285094-.870542 3.892353-1.211633 7.148017-3.855129 3.226862-2.593609 5.214248-6.035863 1.843373-3.192815 2.426186-7.312966.632699-4.091349-.256454-8.19662-.889154-4.10527-3.323314-7.838727-2.462961-3.683569-6.703419-6.1317989z" fill="#f0f" fill-opacity=".640934" class="B"/><path d="M32.307594 14.539368q4.550826 0 8.352783.403237 3.801956.403238 6.567015 1.670557 2.76506 1.267319 4.2628 3.686746 1.555346 2.419426 1.555346 6.451804 0 4.320405-1.670557 6.739832-1.612951 2.477033-4.435616 3.686746-2.765059 1.209713-6.451804 1.440135-3.629141.288027-7.661519.288027-4.493221 0-8.352783-.345632-3.801956-.288027-6.624621-1.497741-2.765059-1.209713-4.37801-3.62914-1.555346-2.419427-1.555346-6.682227 0-3.225902.921686-5.587723.921687-2.304216 3.225903-3.801957 2.361821-1.440135 6.278988-2.1314 3.974773-.691264 9.965735-.691264zm0-9.3896802q-4.493222 0-8.352783 1.7857674-3.859562 1.7857674-6.739832 4.7236428-2.822665 2.99548-4.493221 6.912648-1.612952 3.917167-1.612952 8.179966 0 4.320405 1.670557 8.179967 1.728162 3.917168 4.666037 6.855043 2.937876 2.995481 6.797438 4.723643 3.917167 1.785767 8.237572 1.785767 4.954064 0 8.871232-1.900978 3.974772-1.843373 6.739831-4.896459 2.76506-2.995481 4.2628-6.912648 1.49774-3.859562 1.49774-7.834335 0-3.686745-1.555345-7.546307-1.497741-3.859562-4.320405-6.970253-2.822665-3.1106916-6.797438-5.1268806-3.974772-1.9585836-8.871231-1.9585836z" fill="#f60" class="B C"/><path d="M26.238975 16.258059q3.941131-2.275413 7.435341-3.827177 3.49421-1.551764 6.522482-1.836763 3.028271-.284999 5.535064 1.061415 2.556683 1.317612 4.572872 4.809754 2.160203 3.741581 1.923171 6.672144-.15834 2.951649-1.997982 5.410624-1.789756 2.430172-4.86736 4.473096-2.998914 2.064009-6.491056 4.080198-3.891244 2.24661-7.406539 3.877064-3.436604 1.65154-6.48596 2.01523-2.999468.334886-5.606038-.953922-2.556682-1.317613-4.688082-5.009306-1.612951-2.793713-1.995658-5.299954-.353905-2.456353.892735-4.905542 1.32533-2.428104 4.372064-4.985341 3.096621-2.586039 8.284946-5.58152zm-4.69484-8.1317012q-3.891243 2.2466102-6.340838 5.7229122-2.449595 3.4763-3.475045 7.46071-.946758 4.005495-.434919 8.233139.561727 4.198843 2.693126 7.890535 2.160203 3.74158 5.536728 6.248781 3.455216 2.528285 7.468429 3.603623 4.042014 1.125224 8.248574.692075 4.28525-.412063 8.026831-2.572266 4.290345-2.477032 6.732223-6.081911 2.520567-3.583794 3.388636-7.610374.896871-3.976692.235368-8.117928-.632699-4.091349-2.620085-7.533604-1.843373-3.192815-5.120123-5.75762-3.226863-2.5936085-7.226707-3.8762148-3.999845-1.282605-8.450194-1.0412894-4.421546.2912025-8.662004 2.739432z" fill="#ffff08" fill-opacity=".725314" class="B"/><path d="M21.842741 20.780795q2.275413-3.941131 4.525605-7.032103 2.250193-3.090972 4.730253-4.8519238 2.480059-1.7609524 5.324215-1.8483206 2.872958-.1372557 6.3651 1.8789333 3.74158 2.1602021 5.001587 4.8166611 1.338697 2.635372.975007 5.684728-.334887 2.999469-1.978709 6.307495-1.565131 3.286941-3.58132 6.779083-2.246611 3.891243-4.475718 7.060906-2.150417 3.148577-4.609391 4.98822-2.430173 1.789754-5.331934 1.976897-2.872957.137257-6.56465-1.994143-2.793713-1.612951-4.378268-3.592066-1.534666-1.950312-1.679639-4.694692-.06628-2.765464 1.293647-6.503463 1.388734-3.787887 4.384215-8.976212zm-8.131702-4.69484q-2.24661 3.891244-2.629872 8.126606-.38326 4.235362.720879 8.198687 1.18283 3.94224 3.739918 7.347568 2.585891 3.35544 6.277584 5.48684 3.74158 2.160203 7.919337 2.643239 4.256448.461951 8.26966-.613386 4.0631-1.046534 7.489513-3.524931 3.505104-2.499483 5.665307-6.241064 2.477032-4.290345 2.78932-8.6332.390979-4.363941-.870543-8.285096-1.211632-3.892351-3.855128-7.148017-2.593608-3.226861-6.035863-5.2142479-3.192815-1.843373-7.312966-2.4261843-4.091349-.6327002-8.19662.2564534-4.105269.8891535-7.838727 3.3233131-3.683569 2.4629617-6.131799 6.7034197z" fill="#0ff" fill-opacity=".64" class="B"/><use xlink:href="#B" opacity=".77" fill="#f9f9f9" fill-opacity=".684022"/><path d="M64.678566 25.168266q0-2.758113 2.034592-4.737862 2.026077-1.979749 4.869399-1.979749 2.809266 0 4.81832 1.99667 2.017567 1.99667 2.017567 4.797085 0 2.817336-2.026079 4.780163-2.034593 1.971288-4.911964 1.971288-2.545367 0-4.571446-1.751316-2.230389-1.937447-2.230389-5.076279zm2.000539.02538q0 2.165879 1.464225 3.561856 1.455713 1.395977 3.362608 1.395977 2.068644 0 3.490304-1.421359 1.42166-1.43828 1.42166-3.502633 0-2.089735-1.404634-3.502633-1.396121-1.421358-3.456251-1.421358-2.051618 0-3.464764 1.421358-1.413148 1.404438-1.413148 3.468792zm24.821005.998333 4.069182 5.566988h-2.426186l-3.754203-5.347014h-.357543v5.347016h-1.983513v-13.06296h2.324031q2.604958 0 3.762716.972953 1.27694 1.08294 1.27694 2.859638 0 1.387516-.800216 2.385851-.800216.998334-2.111208 1.27753zm-2.46875-1.497502h.629956q2.817783 0 2.817783-2.140498 0-2.00513-2.741167-2.00513h-.706572zm16.63156 1.759777v5.304713h-1.98351v-13.06296h2.24741q1.65151 0 2.49429.228434.85129.228433 1.49828.862967 1.13222 1.099861 1.13222 2.775033 0 1.793619-1.20884 2.842716-1.20883 1.049097-3.26045 1.049097zm0-1.82746h.74063q2.73265 0 2.73265-2.089736 0-2.022051-2.81778-2.022051h-.6555zm15.55042-.820666h5.66961v-5.110121h1.98352v13.06296h-1.98352V25.65897h-5.66961v6.099997h-1.98352v-13.06296h1.98352zm24.19105-3.257279h-5.26951v3.138833h5.11627v1.852842h-5.11627v4.3656h5.26951v1.852843h-7.25303v-13.06296h7.25303zm10.72358-1.852842v7.868234q0 1.683632.55334 2.461995.82576 1.125243 2.32403 1.125243 1.50679 0 2.33255-1.125243.55334-.752981.55334-2.461995v-7.868234h1.98351v8.409704q0 2.064353-1.29396 3.401107-1.45572 1.489041-3.57544 1.489041t-3.56692-1.489041q-1.29396-1.336754-1.29396-3.401107v-8.409704zm24.46346 1.945907-1.60895.947572q-.45118-.778363-.8598-1.015256-.42565-.270735-1.09817-.270735-.82576 0-1.37058.465326-.54483.456865-.54483 1.150624 0 .956032 1.43017 1.539804l1.31099.53301q1.60043.642995 2.34106 1.573647.74063.922191.74063 2.267404 0 1.802081-1.20884 2.978085-1.21735 1.184464-3.02209 1.184464-1.7111 0-2.8263-1.006794-1.09817-1.006797-1.37058-2.834257l2.00905-.439944q.1362 1.150623.47673 1.590567.61293.846048 1.78771.846048.92791 0 1.54085-.617614.61293-.617614.61293-1.565188 0-.380721-.11067-.693758-.10215-.321498-.33201-.583773-.22134-.270734-.57888-.499167-.35754-.236893-.85129-.448404l-1.26843-.524549q-2.6986-1.133702-2.6986-3.316503 0-1.472121 1.13222-2.461995 1.13222-.998335 2.81778-.998335 2.27296 0 3.5499 2.199721z" stroke-opacity=".839768" fill="#c8c4b7" stroke="#4d4d4d" stroke-width=".100001"/><defs><path id="B" d="M20.296853 26.895713q0-4.550827.403238-8.352783.403238-3.801957 1.670557-6.567016 1.267319-2.7650588 3.686745-4.2627992Q28.47682 6.157769 32.509198 6.157769q4.320405 0 6.739832 1.6705566 2.477032 1.6129512 3.686746 4.4356154 1.209713 2.765059 1.440135 6.451805.288027 3.62914.288027 7.661518 0 4.493221-.345633 8.352783-.288027 3.801957-1.49774 6.624621-1.209714 2.765059-3.62914 4.378011-2.419427 1.555345-6.682227 1.555345-3.225902 0-5.587724-.921686-2.304216-.921686-3.801956-3.225902-1.440135-2.361822-2.1314-6.278989-.691265-3.974773-.691265-9.965734zm-9.38968 0q0 4.493221 1.785768 8.352783 1.785767 3.859562 4.723642 6.739832 2.995481 2.822664 6.912648 4.493221 3.917168 1.612951 8.179967 1.612951 4.320405 0 8.179967-1.670557 3.917167-1.728162 6.855043-4.666037 2.995481-2.937875 4.723643-6.797437 1.785767-3.917168 1.785767-8.237573 0-4.954064-1.900978-8.871231-1.843373-3.974773-4.896459-6.739832-2.995481-2.7650588-6.912648-4.2627992-3.859562-1.4977404-7.834335-1.4977404-3.686745 0-7.546307 1.5553458-3.859562 1.4977404-6.970254 4.3204048-3.110691 2.822664-5.12688 6.797437-1.958584 3.974773-1.958584 8.871232z"/></defs></svg>