<?xml version="1.0" encoding="UTF-8" standalone="no"?>
<!-- Created with Inkscape (http://www.inkscape.org/) -->

<svg
   width="200mm"
   height="50mm"
   viewBox="0 0 200 50"
   version="1.1"
   id="svg5681"
   xml:space="preserve"
   inkscape:version="1.2.2 (b0a84865, 2022-12-01)"
   sodipodi:docname="ops-lockup.svg"
   xmlns:inkscape="http://www.inkscape.org/namespaces/inkscape"
   xmlns:sodipodi="http://sodipodi.sourceforge.net/DTD/sodipodi-0.dtd"
   xmlns:xlink="http://www.w3.org/1999/xlink"
   xmlns="http://www.w3.org/2000/svg"
   xmlns:svg="http://www.w3.org/2000/svg"><sodipodi:namedview
     id="namedview5683"
     pagecolor="#505050"
     bordercolor="#eeeeee"
     borderopacity="1"
     inkscape:showpageshadow="0"
     inkscape:pageopacity="0"
     inkscape:pagecheckerboard="0"
     inkscape:deskcolor="#505050"
     inkscape:document-units="mm"
     showgrid="false"
     inkscape:zoom="2.0333229"
     inkscape:cx="377.95276"
     inkscape:cy="94.426713"
     inkscape:window-width="1920"
     inkscape:window-height="974"
     inkscape:window-x="1440"
     inkscape:window-y="25"
     inkscape:window-maximized="0"
     inkscape:current-layer="layer1" /><defs
     id="defs5678"><linearGradient
       id="linearGradient947"><stop
         stop-color="#fff"
         offset="0"
         id="stop945" /><stop
         offset="1"
         id="stop943"
         style="stop-color:#2c2c2c;stop-opacity:1;" /></linearGradient><linearGradient
       id="linearGradient8385"><stop
         stop-color="#fff"
         offset="0"
         id="stop239" /><stop
         offset="1"
         id="stop237"
         style="stop-color:#2a2a2a;stop-opacity:1;" /></linearGradient><linearGradient
       id="linearGradient3002"
       x1="-553.27002"
       x2="-666.12"
       y1="525.90997"
       y2="413.04999"
       gradientTransform="matrix(-1.1596701,0,0,0.9987,-614.18955,-388.83987)"
       gradientUnits="userSpaceOnUse"
       xlink:href="#linearGradient8385" /><linearGradient
       id="linearGradient3005"
       x1="-666.12"
       x2="-553.27002"
       y1="413.04001"
       y2="525.90997"
       gradientTransform="matrix(-1.1596701,0,0,0.9987,-614.18955,-388.83987)"
       gradientUnits="userSpaceOnUse"
       xlink:href="#linearGradient947" /><linearGradient
       inkscape:collect="always"
       xlink:href="#linearGradient8385"
       id="linearGradient5351"
       gradientUnits="userSpaceOnUse"
       gradientTransform="matrix(-1.1596701,0,0,0.9987,-613.35567,-389.19265)"
       x1="-553.27002"
       y1="525.90997"
       x2="-715.52527"
       y2="365.12198" /></defs><g
     inkscape:label="Layer 1"
     inkscape:groupmode="layer"
     id="layer1"><g
       id="g888"
       transform="matrix(1.1035532,0,0,1.1035532,-5.2467909,-2.7261924)"
       style="stroke-width:0.906164"><g
         id="g5892"
         transform="matrix(0.23157747,0,0,0.23149242,12.307259,6.4878081)"
         style="stroke-width:0.10355"><g
           id="layer1-6"
           inkscape:label="2"
           style="stroke-width:0.10355"><use
             x="0"
             y="0"
             xlink:href="#path248-1"
             id="use5394"
             transform="rotate(-177.47143,92.90037,79.999595)"
             style="stroke-width:0.10355" /><path
             d="m 148.14754,82.280125 c 0.13168,27.860055 4.54247,76.025215 -51.695063,77.367225 C 20.325783,159.95912 9.4773393,127.85391 8.8338764,82.280125 8.0669524,27.962105 26.454273,0.22397821 96.452477,-0.25364561 38.805257,0.30684965 43.354615,40.652864 43.354615,82.280125 c 0,41.627265 7.5026,52.184025 54.165168,51.869805 33.887567,-0.22819 37.731437,-6.30113 36.465157,-51.875095 -1.26627,-45.573963 -9.33737,-54.463955 -37.468478,-56.331678 56.283208,0.73128 51.499398,28.476917 51.631078,56.336968 z"
             color="#000000"
             fill="url(#linearGradient3002)"
             id="path248-1"
             style="fill:url(#linearGradient5351);fill-rule:evenodd;stroke-width:0.0915389"
             sodipodi:nodetypes="zcsczszcz"
             inkscape:label="path248-1" /></g><g
           id="layer2"
           inkscape:label="3"
           style="display:none;stroke-width:0.10355"><path
             d="m 93.086852,41.401129 c 27.156188,-8.0619 60.422798,11.216 60.422798,49.829 0,63.048001 -54.243866,68.770001 -60.818705,68.770001 C 45.214642,160.00013 0,126.20413 0,79.964129 0,28.568129 51.827794,0.09912927 92.690945,0.09912927 81.373236,-1.2508707 31.689956,10.649129 31.689956,69.136129 c 0,38.141001 37.097973,58.905001 61.226227,50.033001 0.554304,-0.17707 27.300147,-9.2645 27.300147,-38.951001 0,-29.56 -27.129478,-38.818 -27.129478,-38.818 z"
             color="#000000"
             fill="url(#linearGradient3002)"
             id="path248"
             style="display:none;fill:url(#linearGradient3002);fill-rule:evenodd;stroke-width:0.0915389"
             sodipodi:insensitive="true" /><path
             d="m 93.038089,119.10013 c -41.097676,48.255 -81.317623,-13.469 -81.258412,-50.587001 0.06989,-43.886 51.712854,-68.41399973 81.292082,-68.41399973 47.476301,0 92.690941,33.79599973 92.690941,80.03599973 0,51.396001 -51.82779,79.865001 -92.690941,79.865001 9.246921,-1.1468 40.062051,-6.834 40.476531,-67.967001 0.27849,-41.347 -15.65979,-57.866 -40.409192,-50.599 -0.554305,0.17707 -27.300152,9.2645 -27.300152,38.951 0,29.560001 27.199143,38.715001 27.199143,38.715001 z"
             color="#000000"
             fill="url(#linearGradient3005)"
             id="path246"
             style="display:none;fill:url(#linearGradient3005);fill-rule:evenodd;stroke-width:0.0915389"
             sodipodi:insensitive="true" /></g><g
           id="layer3"
           inkscape:label="Layer 1"
           style="stroke-width:0.10355" /></g></g><g
       aria-label="ORPHEUS"
       transform="matrix(2.3422092,0,0,2.3277728,8.4284302,1.9814353)"
       id="text5948"
       style="font-weight:500;font-size:7.44361px;font-family:'DM Mono';-inkscape-font-specification:'DM Mono, Medium';text-align:center;letter-spacing:2.61937px;text-anchor:middle;fill:#c8c4b7;stroke:#000000;stroke-width:0.0428269;stroke-opacity:0.839768;stop-color:#000000"><path
         d="m 24.015848,9.9609499 q 0,-1.1848716 0.868664,-2.0353622 0.865028,-0.8504906 2.078977,-0.8504906 1.199409,0 2.057169,0.8577598 0.861395,0.8577597 0.861395,2.0608041 0,1.210314 -0.865029,2.053535 -0.868664,0.846856 -2.09715,0.846856 -1.086738,0 -1.951767,-0.752357 -0.952259,-0.832318 -0.952259,-2.1807451 z m 0.854125,0.010904 q 0,0.9304511 0.625147,1.5301561 0.621513,0.599705 1.435657,0.599705 0.883202,0 1.490176,-0.610609 0.606974,-0.617878 0.606974,-1.5047138 0,-0.8977401 -0.599705,-1.5047142 -0.59607,-0.6106086 -1.475637,-0.6106086 -0.875933,0 -1.479272,0.6106086 -0.60334,0.6033395 -0.60334,1.4901759 z"
         style="font-weight:normal;font-family:Futura;-inkscape-font-specification:'Futura, Normal';text-align:start;text-anchor:start;stroke:#4d4d4d"
         id="path564" /><path
         d="m 35.467236,10.400733 1.737327,2.391551 H 36.168709 L 34.565862,10.495232 H 34.41321 v 2.297052 H 33.566354 V 7.1804998 h 0.992239 q 1.11218,0 1.606482,0.4179761 0.545186,0.4652257 0.545186,1.2284865 0,0.5960703 -0.34165,1.0249502 -0.34165,0.4288794 -0.901375,0.5488204 z M 34.41321,9.7574136 h 0.268958 q 1.203045,0 1.203045,-0.9195475 0,-0.8613943 -1.170334,-0.8613943 H 34.41321 Z"
         style="font-weight:normal;font-family:Futura;-inkscape-font-specification:'Futura, Normal';text-align:start;text-anchor:start;stroke:#4d4d4d"
         id="path566" /><path
         d="m 41.514011,10.513405 v 2.278879 H 40.667155 V 7.1804998 h 0.959528 q 0.705108,0 1.06493,0.098134 0.363458,0.098134 0.639686,0.3707267 0.483398,0.4724948 0.483398,1.1921407 0,0.7705299 -0.516109,1.2212168 -0.51611,0.450687 -1.392043,0.450687 z m 0,-0.785068 h 0.316208 q 1.166699,0 1.166699,-0.8977401 0,-0.8686634 -1.203045,-0.8686634 h -0.279862 z"
         style="font-weight:normal;font-family:Futura;-inkscape-font-specification:'Futura, Normal';text-align:start;text-anchor:start;stroke:#4d4d4d"
         id="path568" /><path
         d="m 48.153221,9.3757832 h 2.420627 V 7.1804998 h 0.846856 v 5.6117842 h -0.846856 v -2.620529 h -2.420627 v 2.620529 H 47.306365 V 7.1804998 h 0.846856 z"
         style="font-weight:normal;font-family:Futura;-inkscape-font-specification:'Futura, Normal';text-align:start;text-anchor:start;stroke:#4d4d4d"
         id="path570" /><path
         d="m 58.481526,7.9764718 h -2.249803 v 1.3484274 h 2.18438 v 0.7959718 h -2.18438 v 1.875441 h 2.249803 v 0.795972 H 55.384867 V 7.1804998 h 3.096659 z"
         style="font-weight:normal;font-family:Futura;-inkscape-font-specification:'Futura, Normal';text-align:start;text-anchor:start;stroke:#4d4d4d"
         id="path572" /><path
         d="m 63.059932,7.1804998 v 3.3801552 q 0,0.72328 0.236248,1.057661 0.352554,0.483399 0.992239,0.483399 0.64332,0 0.995873,-0.483399 0.236248,-0.323477 0.236248,-1.057661 V 7.1804998 h 0.846856 v 3.6127682 q 0,0.886836 -0.552456,1.461099 -0.621512,0.639685 -1.526521,0.639685 -0.905009,0 -1.522887,-0.639685 -0.552456,-0.574263 -0.552456,-1.461099 V 7.1804998 Z"
         style="font-weight:normal;font-family:Futura;-inkscape-font-specification:'Futura, Normal';text-align:start;text-anchor:start;stroke:#4d4d4d"
         id="path574" /><path
         d="m 73.504541,8.0164521 -0.686934,0.4070724 q -0.192633,-0.3343809 -0.367093,-0.436149 -0.181728,-0.1163064 -0.46886,-0.1163064 -0.352554,0 -0.585166,0.1999016 -0.232613,0.1962671 -0.232613,0.4943023 0,0.410707 0.610608,0.6614927 l 0.559725,0.2289782 q 0.6833,0.2762277 0.999508,0.6760311 0.316208,0.396169 0.316208,0.974066 0,0.774165 -0.516109,1.279371 -0.519745,0.50884 -1.290275,0.50884 -0.730549,0 -1.206679,-0.432514 -0.46886,-0.432515 -0.585166,-1.217583 l 0.85776,-0.188998 q 0.05815,0.494302 0.203536,0.6833 0.261689,0.363458 0.763261,0.363458 0.396168,0 0.657858,-0.265324 0.261689,-0.265324 0.261689,-0.672397 0,-0.163556 -0.04725,-0.298035 -0.04361,-0.138114 -0.141749,-0.250786 -0.0945,-0.116306 -0.247151,-0.21444 -0.152652,-0.101768 -0.363457,-0.192632 L 71.454641,9.9827573 Q 70.30248,9.4957242 70.30248,8.5580038 q 0,-0.6324161 0.483399,-1.0576614 0.483398,-0.4288799 1.203044,-0.4288799 0.970432,0 1.515618,0.9449896 z"
         style="font-weight:normal;font-family:Futura;-inkscape-font-specification:'Futura, Normal';text-align:start;text-anchor:start;display:inline;stroke:#4d4d4d"
         id="path576" /></g><text
       xml:space="preserve"
       style="font-style:normal;font-variant:normal;font-weight:500;font-stretch:normal;font-size:17.3807px;font-family:'DM Mono';-inkscape-font-specification:'DM Mono, Medium';font-variant-ligatures:normal;font-variant-caps:normal;font-variant-numeric:normal;font-variant-east-asian:normal;text-align:center;letter-spacing:6.11618px;text-anchor:middle;display:none;fill:none;stroke:none;stroke-width:0.0999999;stroke-dasharray:none;stroke-opacity:0.839768;stop-color:#000000"
       x="63.562378"
       y="31.857296"
       id="text5948-7"
       transform="scale(1.0030961,0.99691345)"><tspan
         sodipodi:role="line"
         id="tspan5946-3"
         style="font-style:normal;font-variant:normal;font-weight:normal;font-stretch:normal;font-size:17.3807px;font-family:Futura;-inkscape-font-specification:'Futura, Normal';font-variant-ligatures:normal;font-variant-caps:normal;font-variant-numeric:normal;font-variant-east-asian:normal;text-align:start;text-anchor:start;fill:none;stroke:none;stroke-width:0.0999999;stroke-dasharray:none"
         x="8.4024153"
         y="1.98757"
         rotate="0 0 0 0 0 0 0 0">ORPHEUS</tspan></text></g></svg>
