<svg xmlns="http://www.w3.org/2000/svg"><path d="M19.2 22.43h51.6v3.42H19.2zm24.66-8.09h2.28v7.01h-2.28zM45 66.84l1.14-.01v-39.9h-2.28v39.9l1.14.02zM29.18 17.23h2.27v4.13h-2.27zm2.27 45.95V26.93h-2.27v34.2a14.2 14.2 0 0 0 2.27 2.04zm5.07-47.39h2.28v5.57h-2.28zm2.28 50.48V26.93h-2.28v38.75c.73.23 1.48.42 2.28.58zm12.4-50.48h2.28v5.57H51.2zm2.28 49.9V26.93H51.2v39.33l2.28-.58zm5.07-48.46h2.27v4.13h-2.27zm2.27 43.92V26.93h-2.27v36.24c.83-.6 1.59-1.28 2.27-2.03zM14.62 25.5l-.06-.59-.18-1.69-.08-.8a2.86 2.86 0 0 1-2.4-1.2c-.57-.82-.56-1.86-.38-2.8a4.7 4.7 0 0 1 3.86-3.8c2-.35 4.1.39 5.4 1.95 1.16 1.37 1.4 3.07 1.33 4.8h5.31v-.08a12.8 12.8 0 0 0-1.12-5.42 10.57 10.57 0 0 0-3.98-4.42c-3.46-2.12-8.18-2.1-11.43.43-3.17 2.48-4.6 7.7-2.15 11.15A6.26 6.26 0 0 0 14 25.64c.17-.01.63.07.61-.15zm57.48 6.73-2.02-3.8-.7-1.5h-5.93c.37 1.23.84 2.42 1.36 3.6 3.04 12.1 6.31 37.4-19.81 37.4s-22.85-25.3-19.8-37.4c.5-1.18.97-2.37 1.34-3.6h-5.86c-.74 1.68-1.66 3.28-2.51 4.85a44.2 44.2 0 0 0-4.77 12.26c-1.8 8.74.19 18.1 6 24.96 5.5 6.53 13.73 10.2 22.15 10.95 8.44.75 17.26-1.24 24.12-6.32a28.6 28.6 0 0 0 8.24-9.46c2.1-3.92 3.2-8.31 3.34-12.74a33.7 33.7 0 0 0-2.35-13.18 52.2 52.2 0 0 0-2.8-6.02zm4.94-21.56c-3.8-1.58-8.3-.62-11.22 2.26-2.29 2.26-3.21 5.32-3.23 8.43h5.32c-.08-1.4.08-2.84.8-4.06a5.75 5.75 0 0 1 4.88-2.77 4.8 4.8 0 0 1 4.66 3.02c.33.85.5 1.9.27 2.8-.24.95-1 1.7-1.94 1.96-.1.04-.86.12-.87.15l-.05.47-.17 1.67-.06.68c0 .05-.06.26-.04.3 1.06.16 2.15.02 3.13-.37a6.34 6.34 0 0 0 3.74-4.32 8.95 8.95 0 0 0-5.22-10.22z"/></svg>