<svg xmlns="http://www.w3.org/2000/svg" height="19" width="19" viewBox="0 0 126.34 126.34" stroke="#000" stroke-width="0"><path d="M70.12 21.2a7.25 7.25 0 0 0-13.9 0 34.19 34.19 0 0 1 13.9 0zm21.21 48.2V54.66c0-15.53-12.63-28.17-28.16-28.17S35 39.13 35 54.66v14.72c0 .46-.07 5.21-1.27 11.06H92.6a62.62 62.62 0 0 1-1.27-11.04zM63.17 36.7c-9.6 0-17.41 7.81-17.41 17.4a3 3 0 0 1-6 0c0-12.9 10.5-23.4 23.4-23.4a3 3 0 1 1 0 6zm0 73.66c4.58 0 8.57-3.3 9.86-7.69H53.3c1.28 4.39 5.28 7.7 9.86 7.7z" fill="none" stroke="none"/><path d="M99.44 96.67a33.28 33.28 0 0 1-5.25-10.23H32.15a33.27 33.27 0 0 1-5.26 10.23z" fill="#ececec" stroke="none"/><path d="M109.08 96.94c-11.3-5.11-11.74-27.03-11.75-27.58v-14.7a34.22 34.22 0 0 0-20.93-31.5c-.03-7.28-5.95-13.19-13.23-13.19s-13.2 5.92-13.23 13.19A34.22 34.22 0 0 0 29 54.66v14.7c0 .55-.44 22.47-11.74 27.58a3 3 0 0 0 1.23 5.73h28.66a16.86 16.86 0 0 0 4.46 8.67c3.1 3.24 7.2 5.02 11.56 5.02s8.45-1.78 11.56-5.02a16.86 16.86 0 0 0 4.45-8.67h28.66a3 3 0 0 0 1.24-5.73zm-14.9-10.5a33.28 33.28 0 0 0 5.26 10.23H26.9a33.27 33.27 0 0 0 5.26-10.23zm-31-70.47c3.3 0 6.08 2.22 6.95 5.23a34.2 34.2 0 0 0-13.9 0 7.24 7.24 0 0 1 6.95-5.23zM35 69.38V54.66c0-15.53 12.64-28.17 28.17-28.17s28.16 12.64 28.16 28.17V69.4c0 .46.08 5.2 1.27 11.04H33.73A62.67 62.67 0 0 0 35 69.38zm28.17 40.98c-4.58 0-8.58-3.3-9.86-7.69h19.72c-1.29 4.39-5.28 7.7-9.86 7.7zm0-79.66a23.44 23.44 0 0 0-23.41 23.4 3 3 0 0 0 6 0c0-9.59 7.8-17.4 17.4-17.4a3 3 0 0 0 0-6z" stroke="none"/></svg>