<svg xmlns="http://www.w3.org/2000/svg" height="19" width="19" stroke-width="0"><path d="M14.95 14.54a5 5 0 0 1-.78-1.54H4.83a5 5 0 0 1-.79 1.54z" fill="#ececec"/><path d="M16.4 14.58c-1.7-.77-1.76-4.07-1.76-4.15v-2.2a5.15 5.15 0 0 0-3.15-4.75 2 2 0 0 0-3.98 0 5.15 5.15 0 0 0-3.15 4.74v2.21c0 .08-.06 3.38-1.76 4.15a.45.45 0 0 0 .18.86H7.1c.1.5.32.95.67 1.3a2.39 2.39 0 0 0 3.48 0c.35-.35.58-.8.67-1.3h4.3a.45.45 0 0 0 .2-.86zM14.16 13a5 5 0 0 0 .8 1.54H4.04a5 5 0 0 0 .8-1.54zM9.5 2.4c.5 0 .92.34 1.05.79a5.14 5.14 0 0 0-2.1 0A1.1 1.1 0 0 1 9.5 2.4zm-4.24 8.03v-2.2a4.24 4.24 0 0 1 8.47 0v2.2c0 .08.02.79.2 1.67H5.07c.12-.55.18-1.1.2-1.67zM9.5 16.6c-.69 0-1.29-.5-1.48-1.16h2.96A1.6 1.6 0 0 1 9.5 16.6zm0-11.98a3.53 3.53 0 0 0-3.52 3.52.45.45 0 0 0 .9 0A2.62 2.62 0 0 1 9.5 5.52a.45.45 0 0 0 0-.9z"/></svg>