<?xml version="1.0" encoding="UTF-8" standalone="no"?>
<svg
   height="90"
   width="90"
   viewBox="0 0 90 90"
   stroke="#000000"
   stroke-width="0"
   version="1.1"
   id="svg3"
   sodipodi:docname="notification-bell-000.svg"
   inkscape:version="1.3.2 (091e20e, 2023-11-25)"
   xmlns:inkscape="http://www.inkscape.org/namespaces/inkscape"
   xmlns:sodipodi="http://sodipodi.sourceforge.net/DTD/sodipodi-0.dtd"
   xmlns="http://www.w3.org/2000/svg"
   xmlns:svg="http://www.w3.org/2000/svg">
  <defs
     id="defs3" />
  <sodipodi:namedview
     id="namedview3"
     pagecolor="#ffffff"
     bordercolor="#000000"
     borderopacity="0.25"
     inkscape:showpageshadow="2"
     inkscape:pageopacity="0.0"
     inkscape:pagecheckerboard="0"
     inkscape:deskcolor="#d1d1d1"
     inkscape:zoom="4.8222222"
     inkscape:cx="44.896313"
     inkscape:cy="45"
     inkscape:window-width="1288"
     inkscape:window-height="647"
     inkscape:window-x="0"
     inkscape:window-y="25"
     inkscape:window-maximized="0"
     inkscape:current-layer="svg3" />
  <g
     id="g3"
     transform="matrix(0.75195037,0,0,0.75195037,-2.5006809,-2.4969451)">
    <path
       id="path2"
       style="stroke:none;stroke-opacity:1;fill:#eeeeee;fill-opacity:0.93333334"
       d="M 99.44,96.67 A 33.28,33.28 0 0 1 94.19,86.44 H 32.15 A 33.27,33.27 0 0 1 26.89,96.67 Z M 70.12,21.2 a 7.25,7.25 0 0 0 -13.9,0 34.19,34.19 0 0 1 13.9,0 z M 91.33,69.4 V 54.66 C 91.33,39.13 78.7,26.49 63.17,26.49 47.64,26.49 35,39.13 35,54.66 v 14.72 c 0,0.46 -0.07,5.21 -1.27,11.06 H 92.6 A 62.62,62.62 0 0 1 91.33,69.4 Z M 63.17,36.7 c -9.6,0 -17.41,7.81 -17.41,17.4 a 3,3 0 0 1 -6,0 c 0,-12.9 10.5,-23.4 23.4,-23.4 a 3,3 0 1 1 0,6 z m 0,73.66 c 4.58,0 8.57,-3.3 9.86,-7.69 H 53.3 c 1.28,4.39 5.28,7.7 9.86,7.7 z" />
    <path
       d="M 109.08,96.94 C 97.78,91.83 97.34,69.91 97.33,69.36 V 54.66 A 34.22,34.22 0 0 0 76.4,23.16 C 76.37,15.88 70.45,9.97 63.17,9.97 c -7.28,0 -13.2,5.92 -13.23,13.19 A 34.22,34.22 0 0 0 29,54.66 v 14.7 c 0,0.55 -0.44,22.47 -11.74,27.58 a 3,3 0 0 0 1.23,5.73 h 28.66 a 16.86,16.86 0 0 0 4.46,8.67 c 3.1,3.24 7.2,5.02 11.56,5.02 4.36,0 8.45,-1.78 11.56,-5.02 a 16.86,16.86 0 0 0 4.45,-8.67 h 28.66 a 3,3 0 0 0 1.24,-5.73 z m -14.9,-10.5 a 33.28,33.28 0 0 0 5.26,10.23 H 26.9 a 33.27,33.27 0 0 0 5.26,-10.23 z m -31,-70.47 c 3.3,0 6.08,2.22 6.95,5.23 a 34.2,34.2 0 0 0 -13.9,0 7.24,7.24 0 0 1 6.95,-5.23 z M 35,69.38 V 54.66 c 0,-15.53 12.64,-28.17 28.17,-28.17 15.53,0 28.16,12.64 28.16,28.17 V 69.4 c 0,0.46 0.08,5.2 1.27,11.04 H 33.73 A 62.67,62.67 0 0 0 35,69.38 Z m 28.17,40.98 c -4.58,0 -8.58,-3.3 -9.86,-7.69 h 19.72 c -1.29,4.39 -5.28,7.7 -9.86,7.7 z m 0,-79.66 a 23.44,23.44 0 0 0 -23.41,23.4 3,3 0 0 0 6,0 c 0,-9.59 7.8,-17.4 17.4,-17.4 a 3,3 0 0 0 0,-6 z"
       stroke="none"
       id="path3"
       style="fill:#000000;fill-opacity:1" />
  </g>
</svg>
