<svg xmlns="http://www.w3.org/2000/svg" width="14.25" height="22.563"><path d="M13.277 10.602v8.207c0 .52-.422.937-.937.941H1.91a.944.944 0 0 1-.937-.941v-8.207c0-.52.422-.942.937-.942h1.02V7.563c0-2.32 1.879-4.2 4.195-4.2a4.197 4.197 0 0 1 4.195 4.2V9.66h1.02c.515 0 .937.422.937.942m-3.27-3.04a2.883 2.883 0 0 0-5.765 0V9.66h5.766Zm-1.566 6.06c0-.653-.476-1.208-1.12-1.302a1.31 1.31 0 0 0-1.454.918 1.31 1.31 0 0 0 .696 1.57v2.196a.563.563 0 1 0 1.125 0v-2.195c.46-.22.753-.68.753-1.188m0 0"/></svg>
