<svg xmlns="http://www.w3.org/2000/svg" width="14.25" height="15.926"><path d="M13.762 8.031a6.636 6.636 0 0 1-6.637 6.637 6.636 6.636 0 1 1 0-13.27 6.635 6.635 0 0 1 6.637 6.633m-3.547-.488a.4.4 0 0 0-.399-.398H9.23v-1.06a2.115 2.115 0 0 0-2.113-2.112 2.114 2.114 0 0 0-2.113 2.113v1.059h-.586a.4.4 0 0 0-.398.398v4.281a.4.4 0 0 0 .398.399h5.398a.4.4 0 0 0 .399-.399ZM8.566 6.086v1.059H5.668v-1.06a1.45 1.45 0 0 1 2.898 0m-1.183 3.66v1.094a.27.27 0 0 1-.13.246.26.26 0 0 1-.273 0 .27.27 0 0 1-.128-.246V9.746a.67.67 0 0 1-.383-.742.66.66 0 0 1 1.297 0 .67.67 0 0 1-.383.742m0 0"/></svg>
