<?xml version="1.0" encoding="UTF-8" standalone="no"?>
<!-- Created with Inkscape (http://www.inkscape.org/) -->

<svg
   width="120"
   height="30"
   viewBox="0 0 120 30"
   version="1.1"
   id="svg1"
   xml:space="preserve"
   inkscape:version="1.3.2 (091e20e, 2023-11-25)"
   sodipodi:docname="notify-rotate-grounded.svg"
   xmlns:inkscape="http://www.inkscape.org/namespaces/inkscape"
   xmlns:sodipodi="http://sodipodi.sourceforge.net/DTD/sodipodi-0.dtd"
   xmlns="http://www.w3.org/2000/svg"
   xmlns:svg="http://www.w3.org/2000/svg"><sodipodi:namedview
     id="namedview1"
     pagecolor="#685108"
     bordercolor="#000000"
     borderopacity="0.25"
     inkscape:showpageshadow="2"
     inkscape:pageopacity="0.0"
     inkscape:pagecheckerboard="0"
     inkscape:deskcolor="#d1d1d1"
     inkscape:document-units="mm"
     inkscape:zoom="3.4491525"
     inkscape:cx="59"
     inkscape:cy="20.004914"
     inkscape:window-width="1312"
     inkscape:window-height="449"
     inkscape:window-x="0"
     inkscape:window-y="25"
     inkscape:window-maximized="0"
     inkscape:current-layer="layer1" /><defs
     id="defs1" /><g
     inkscape:label="Layer 1"
     inkscape:groupmode="layer"
     id="layer1"><rect
       style="fill:#f7f6ef;fill-opacity:1;stroke-width:8.58119;stroke-linejoin:round"
       id="rect1"
       width="108"
       height="30"
       x="6"
       y="0"
       rx="10.983051"
       ry="18" /><g
       style="stroke:#000000;stroke-width:0"
       id="g1"
       transform="matrix(1.3936131,0,0,1.3936131,29.414468,0.8228436)"
       inkscape:label="g1"><g
         stroke="none"
         style="fill:#000000"
         id="g5"><path
           d="m 24.812,1.612 c -0.832,0.758 -0.324,2.012 -0.464,3.002 0.022,2.754 -0.044,5.52 0.033,8.265 0.213,1.227 1.694,0.82 2.585,0.885 0.874,-0.07 2.285,0.331 2.575,-0.808 0.098,-0.72 0.017,-1.46 0.043,-2.188 0.978,-0.1 2.093,0.237 2.97,-0.246 C 33.279,9.757 32.802,8.565 32.94,7.61 32.895,5.819 33.029,4.002 32.873,2.227 32.56,1.089 31.138,1.55 30.262,1.457 28.55,1.501 26.813,1.367 25.118,1.524 Z"
           style="fill:#4d4d4d;fill-opacity:0.133333;stroke:none;stroke-width:1.19849;stroke-linejoin:round"
           id="path1" /><path
           d="m 29.846,10.84 c -0.832,0.759 -0.325,2.012 -0.464,3.003 0.063,1.588 -0.13,3.214 0.1,4.78 0.447,1.038 1.807,0.535 2.697,0.654 2.754,-0.023 5.52,0.045 8.265,-0.034 1.205,-0.2 0.832,-1.649 0.885,-2.524 -0.044,-1.752 0.09,-3.528 -0.067,-5.264 -0.312,-1.137 -1.735,-0.677 -2.61,-0.77 -2.794,0.023 -5.6,-0.045 -8.385,0.034 z"
           style="fill:#4d4d4d;fill-opacity:0.133333;stroke:none;stroke-width:1.19849;stroke-linejoin:round"
           id="path2" /><path
           d="m 23.629,0.86 v 14 h 5 v 5 h 13.406 v -10 H 33.63 v -9 z m 1.662,1.576 h 6.678 v 7.423 h -3.34 v 3 H 25.29 Z m 5,9.17 h 10.084 v 6.677 H 30.291 Z"
           style="fill:#111111;fill-opacity:1"
           id="path3" /><path
           fill="none"
           d="M 99.4,96.7 A 33.3,33.3 0 0 1 94.2,86.4 h -62 A 33.3,33.3 0 0 1 26.9,96.7 Z M 70.1,21.2 a 7.3,7.3 0 0 0 -13.9,0 34.2,34.2 0 0 1 14,0 z M 91.3,69.4 V 54.7 A 28.2,28.2 0 0 0 63.2,26.5 28.2,28.2 0 0 0 35,54.7 v 14.7 c 0,0.4 0,5.2 -1.3,11 h 58.9 a 62.6,62.6 0 0 1 -1.3,-11 M 63.2,36.7 c -9.6,0 -17.4,7.8 -17.4,17.4 a 3,3 0 0 1 -6,0 23.4,23.4 0 0 1 23.4,-23.4 3,3 0 1 1 0,6 m 0,73.7 c 4.5,0 8.5,-3.3 9.8,-7.7 H 53.3 c 1.3,4.4 5.3,7.7 9.9,7.7"
           style="fill:#4d4d4d;fill-opacity:0.133333;stroke:none;stroke-opacity:1"
           transform="matrix(0.17859,0,0,0.17859,-1.3,-1.3)"
           id="path4" /><path
           d="M 109,97 C 97.8,91.8 97.3,70 97.3,69.4 V 54.7 A 34.2,34.2 0 0 0 76.4,23.2 13.3,13.3 0 0 0 63.2,10 C 55.9,10 50,15.9 49.9,23.2 A 34.2,34.2 0 0 0 29,54.7 v 14.7 c 0,0.5 -0.4,22.4 -11.7,27.5 a 3,3 0 0 0 1.2,5.8 H 47 a 16.9,16.9 0 0 0 4.5,8.6 15.9,15.9 0 0 0 11.6,5 15.9,15.9 0 0 0 11.5,-5 16.9,16.9 0 0 0 4.5,-8.6 h 28.6 A 3,3 0 0 0 109,96.9 Z M 94.3,86.3 a 33.3,33.3 0 0 0 5.2,10.3 H 27 A 33.3,33.3 0 0 0 32.3,86.3 Z M 63.2,16 c 3.3,0 6,2.2 7,5.2 a 34.2,34.2 0 0 0 -14,0 7.2,7.2 0 0 1 7,-5.2 M 35,69.4 V 54.7 A 28.2,28.2 0 0 1 63.2,26.5 28.2,28.2 0 0 1 91.3,54.7 v 14.7 c 0,0.5 0.1,5.2 1.3,11 H 33.7 a 62.7,62.7 0 0 0 1.3,-11 m 28.2,41 c -4.6,0 -8.6,-3.3 -9.9,-7.7 H 73 a 10.5,10.5 0 0 1 -9.8,7.7 m 0,-79.7 a 23.4,23.4 0 0 0 -23.4,23.4 3,3 0 0 0 6,0 c 0,-9.6 7.8,-17.4 17.4,-17.4 a 3,3 0 0 0 0,-6"
           style="fill:#111111;fill-opacity:1"
           transform="matrix(0.17859,0,0,0.17859,-1.3,-1.3)"
           id="path5" /></g><path
         stroke="none"
         d="m 36.63,5.792 h 2.288 c 0,-1.74 -1.189,-2.9 -3.289,-2.9 v -2.1 c 3.15,0 5.04,2.11 5.04,5 h 1.78 l -2.62,3.39 z"
         style="fill:#111111;fill-opacity:1"
         id="path6" /></g></g></svg>
