<?xml version="1.0" encoding="UTF-8" standalone="no"?>
<svg
   width="44"
   height="20"
   stroke="#000000"
   stroke-width="0"
   version="1.1"
   id="svg2"
   sodipodi:docname="notification-bell-fa.svg"
   inkscape:version="1.3.2 (091e20e, 2023-11-25)"
   inkscape:export-filename="notify-rotate-000.svg"
   inkscape:export-xdpi="96"
   inkscape:export-ydpi="96"
   xmlns:inkscape="http://www.inkscape.org/namespaces/inkscape"
   xmlns:sodipodi="http://sodipodi.sourceforge.net/DTD/sodipodi-0.dtd"
   xmlns="http://www.w3.org/2000/svg"
   xmlns:svg="http://www.w3.org/2000/svg">
  <defs
     id="defs2" />
  <sodipodi:namedview
     id="namedview2"
     pagecolor="#ffffff"
     bordercolor="#000000"
     borderopacity="0.25"
     inkscape:showpageshadow="2"
     inkscape:pageopacity="0.0"
     inkscape:pagecheckerboard="0"
     inkscape:deskcolor="#d1d1d1"
     inkscape:zoom="4.17193"
     inkscape:cx="22.171992"
     inkscape:cy="9.9474344"
     inkscape:window-width="1312"
     inkscape:window-height="618"
     inkscape:window-x="1560"
     inkscape:window-y="112"
     inkscape:window-maximized="0"
     inkscape:current-layer="svg2" />
  <g
     stroke="none"
     id="g2"
     style="fill:#000000">
    <path
       fill="none"
       d="M 99.4,96.7 A 33.3,33.3 0 0 1 94.2,86.4 h -62 A 33.3,33.3 0 0 1 26.9,96.7 Z M 70.1,21.2 a 7.3,7.3 0 0 0 -13.9,0 34.2,34.2 0 0 1 14,0 z M 91.3,69.4 V 54.7 A 28.2,28.2 0 0 0 63.2,26.5 28.2,28.2 0 0 0 35,54.7 v 14.7 c 0,0.4 0,5.2 -1.3,11 h 58.9 a 62.6,62.6 0 0 1 -1.3,-11 M 63.2,36.7 c -9.6,0 -17.4,7.8 -17.4,17.4 a 3,3 0 0 1 -6,0 23.4,23.4 0 0 1 23.4,-23.4 3,3 0 1 1 0,6 m 0,73.7 c 4.5,0 8.5,-3.3 9.8,-7.7 H 53.3 c 1.3,4.4 5.3,7.7 9.9,7.7"
       style="fill:#000000;fill-opacity:0;stroke:none;stroke-opacity:1"
       transform="matrix(0.17859,0,0,0.17859,-1.3,-1.3)"
       id="path1" />
    <path
       d="M 109,97 C 97.8,91.8 97.3,70 97.3,69.4 V 54.7 A 34.2,34.2 0 0 0 76.4,23.2 13.3,13.3 0 0 0 63.2,10 C 55.9,10 50,15.9 49.9,23.2 A 34.2,34.2 0 0 0 29,54.7 v 14.7 c 0,0.5 -0.4,22.4 -11.7,27.5 a 3,3 0 0 0 1.2,5.8 H 47 a 16.9,16.9 0 0 0 4.5,8.6 15.9,15.9 0 0 0 11.6,5 15.9,15.9 0 0 0 11.5,-5 16.9,16.9 0 0 0 4.5,-8.6 h 28.6 A 3,3 0 0 0 109,96.9 Z M 94.3,86.3 a 33.3,33.3 0 0 0 5.2,10.3 H 27 A 33.3,33.3 0 0 0 32.3,86.3 Z M 63.2,16 c 3.3,0 6,2.2 7,5.2 a 34.2,34.2 0 0 0 -14,0 7.2,7.2 0 0 1 7,-5.2 M 35,69.4 V 54.7 A 28.2,28.2 0 0 1 63.2,26.5 28.2,28.2 0 0 1 91.3,54.7 v 14.7 c 0,0.5 0.1,5.2 1.3,11 H 33.7 a 62.7,62.7 0 0 0 1.3,-11 m 28.2,41 c -4.6,0 -8.6,-3.3 -9.9,-7.7 H 73 a 10.5,10.5 0 0 1 -9.8,7.7 m 0,-79.7 a 23.4,23.4 0 0 0 -23.4,23.4 3,3 0 0 0 6,0 c 0,-9.6 7.8,-17.4 17.4,-17.4 a 3,3 0 0 0 0,-6"
       style="fill:#000000;fill-opacity:1"
       transform="matrix(0.17859,0,0,0.17859,-1.3,-1.3)"
       id="path2" />
  </g>
  <g
     id="g3"
     transform="translate(23.629099,-0.0559285)">
    <path
       d="M 20,0 H 0 v 20 h 20 z"
       fill="none"
       id="path1-9" />
    <path
       d="M 0,0.91525424 V 14.915254 h 5 v 5 H 18.40678 V 9.9152542 H 10 V 0.91525424 Z M 1.6610169,2.4915254 H 8.3389831 V 9.9152542 H 5 V 12.915254 H 1.6610169 Z m 5,9.1694916 H 16.745763 v 6.677966 H 6.6610169 Z"
       id="path3"
       sodipodi:nodetypes="ccccccccccccccccccccc" />
    <path
       d="m 13,5.847458 h 2.288983 c 0,-1.74 -1.188983,-2.9 -3.288983,-2.9 V 0.8474576 c 3.15,0 5.04,2.1100004 5.04,5.0000004 h 1.78 l -2.62,3.39 z"
       id="path2-3"
       sodipodi:nodetypes="cccccccc" />
  </g>
</svg>
