<?xml version="1.0" encoding="UTF-8" standalone="no"?>
<svg
   width="44"
   height="20"
   stroke="#000000"
   stroke-width="0"
   version="1.1"
   id="svg2"
   sodipodi:docname="notification-bell-fa.svg"
   inkscape:version="1.3.2 (091e20e, 2023-11-25)"
   inkscape:export-filename="notify-rotate-000.svg"
   inkscape:export-xdpi="96"
   inkscape:export-ydpi="96"
   xmlns:inkscape="http://www.inkscape.org/namespaces/inkscape"
   xmlns:sodipodi="http://sodipodi.sourceforge.net/DTD/sodipodi-0.dtd"
   xmlns="http://www.w3.org/2000/svg"
   xmlns:svg="http://www.w3.org/2000/svg">
  <defs
     id="defs2" />
  <sodipodi:namedview
     id="namedview2"
     pagecolor="#252525"
     bordercolor="#000000"
     borderopacity="0.25"
     inkscape:showpageshadow="2"
     inkscape:pageopacity="0.0"
     inkscape:pagecheckerboard="0"
     inkscape:deskcolor="#d1d1d1"
     inkscape:zoom="4.17193"
     inkscape:cx="22.171992"
     inkscape:cy="9.9474344"
     inkscape:window-width="1312"
     inkscape:window-height="618"
     inkscape:window-x="1560"
     inkscape:window-y="112"
     inkscape:window-maximized="0"
     inkscape:current-layer="svg2" />
  <g
     stroke="none"
     id="g2"
     style="fill:#000000">
    <path
       style="fill:#4d4d4d;fill-opacity:0.933333;stroke:none;stroke-width:1.19849;stroke-linejoin:round"
       d="m 24.812407,1.6123383 c -0.832155,0.7580215 -0.324754,2.0114266 -0.464413,3.0018331 0.02223,2.7533569 -0.04449,5.5193616 0.0334,8.2648046 0.212992,1.226921 1.693721,0.820893 2.58454,0.884887 0.873653,-0.07049 2.284743,0.331573 2.574816,-0.807398 0.09805,-0.720352 0.01687,-1.460525 0.04313,-2.188817 0.978258,-0.10043 2.093388,0.237501 2.970645,-0.245292 0.724528,-0.7651066 0.24719,-1.9571853 0.385116,-2.9119695 -0.04418,-1.791448 0.08909,-3.608124 -0.06681,-5.3836893 -0.312364,-1.1373676 -1.735117,-0.6767256 -2.611061,-0.7697876 -1.711524,0.044354 -3.448341,-0.089194 -5.143992,0.066806 -0.101791,0.029541 -0.203583,0.059082 -0.305374,0.088623 z"
       id="path5"
       inkscape:label="ph2" />
    <path
       style="fill:#4d4d4d;fill-opacity:0.933333;stroke:none;stroke-width:1.19849;stroke-linejoin:round"
       d="m 29.846048,10.840681 c -0.832155,0.758022 -0.324754,2.011427 -0.464413,3.001833 0.06328,1.588984 -0.129852,3.214424 0.100209,4.779697 0.446982,1.038792 1.806807,0.536135 2.697507,0.654688 2.753323,-0.02247 5.519404,0.04479 8.264805,-0.0334 1.205119,-0.201343 0.831688,-1.649051 0.884887,-2.524615 -0.04447,-1.751458 0.08926,-3.52825 -0.06681,-5.263841 -0.312364,-1.137368 -1.735118,-0.676726 -2.611061,-0.769788 -2.793272,0.02248 -5.599302,-0.04479 -8.384654,0.0334 -0.140158,0.04068 -0.280316,0.08135 -0.420474,0.122026 z"
       id="path6"
       inkscape:label="ph1" />
    <path
       fill="none"
       d="M 99.4,96.7 A 33.3,33.3 0 0 1 94.2,86.4 h -62 A 33.3,33.3 0 0 1 26.9,96.7 Z M 70.1,21.2 a 7.3,7.3 0 0 0 -13.9,0 34.2,34.2 0 0 1 14,0 z M 91.3,69.4 V 54.7 A 28.2,28.2 0 0 0 63.2,26.5 28.2,28.2 0 0 0 35,54.7 v 14.7 c 0,0.4 0,5.2 -1.3,11 h 58.9 a 62.6,62.6 0 0 1 -1.3,-11 M 63.2,36.7 c -9.6,0 -17.4,7.8 -17.4,17.4 a 3,3 0 0 1 -6,0 23.4,23.4 0 0 1 23.4,-23.4 3,3 0 1 1 0,6 m 0,73.7 c 4.5,0 8.5,-3.3 9.8,-7.7 H 53.3 c 1.3,4.4 5.3,7.7 9.9,7.7"
       style="fill:#4d4d4d;fill-opacity:0.933333;stroke:none;stroke-opacity:1"
       transform="matrix(0.17859,0,0,0.17859,-1.3,-1.3)"
       id="path1"
       inkscape:label="shine" />
    <path
       d="M 109,97 C 97.8,91.8 97.3,70 97.3,69.4 V 54.7 A 34.2,34.2 0 0 0 76.4,23.2 13.3,13.3 0 0 0 63.2,10 C 55.9,10 50,15.9 49.9,23.2 A 34.2,34.2 0 0 0 29,54.7 v 14.7 c 0,0.5 -0.4,22.4 -11.7,27.5 a 3,3 0 0 0 1.2,5.8 H 47 a 16.9,16.9 0 0 0 4.5,8.6 15.9,15.9 0 0 0 11.6,5 15.9,15.9 0 0 0 11.5,-5 16.9,16.9 0 0 0 4.5,-8.6 h 28.6 A 3,3 0 0 0 109,96.9 Z M 94.3,86.3 a 33.3,33.3 0 0 0 5.2,10.3 H 27 A 33.3,33.3 0 0 0 32.3,86.3 Z M 63.2,16 c 3.3,0 6,2.2 7,5.2 a 34.2,34.2 0 0 0 -14,0 7.2,7.2 0 0 1 7,-5.2 M 35,69.4 V 54.7 A 28.2,28.2 0 0 1 63.2,26.5 28.2,28.2 0 0 1 91.3,54.7 v 14.7 c 0,0.5 0.1,5.2 1.3,11 H 33.7 a 62.7,62.7 0 0 0 1.3,-11 m 28.2,41 c -4.6,0 -8.6,-3.3 -9.9,-7.7 H 73 a 10.5,10.5 0 0 1 -9.8,7.7 m 0,-79.7 a 23.4,23.4 0 0 0 -23.4,23.4 3,3 0 0 0 6,0 c 0,-9.6 7.8,-17.4 17.4,-17.4 a 3,3 0 0 0 0,-6"
       style="fill:#cccccc;fill-opacity:1"
       transform="matrix(0.17859,0,0,0.17859,-1.3,-1.3)"
       id="path2"
       inkscape:label="bell" />
  </g>
  <path
     id="path3"
     style="fill:#cccccc;fill-opacity:1"
     d="m 23.628906,0.859375 v 14 h 5 v 5 h 13.40625 v -10 h -8.40625 v -9 z m 1.66211,1.5761719 H 31.96875 V 9.859375 h -3.339844 v 3 h -3.33789 z m 5,9.1699221 H 40.375 v 6.677734 H 30.291016 Z"
     inkscape:label="outl" />
  <path
     d="m 36.629099,5.7915295 h 2.288983 c 0,-1.74 -1.188983,-2.9 -3.288983,-2.9 V 0.7915291 c 3.15,0 5.04,2.1100004 5.04,5.0000004 h 1.78 l -2.62,3.39 z"
     id="path2-3"
     sodipodi:nodetypes="cccccccc"
     style="fill:#cccccc;fill-opacity:1"
     inkscape:label="arr" />
</svg>
