<svg xmlns="http://www.w3.org/2000/svg" viewBox="0 0 17 19"><path d="M8.5 1.666c-7.054 0-10.585 8.528-5.598 13.516s13.516 1.454 13.516-5.6A7.917 7.917 0 0 0 8.5 1.666m-.691 2.272a.79.79 0 0 1 .619.236.737.737 0 0 1-.035 1.017l-.102.102 1.12 1.4 1.407 1.76.29.36.503.011c.453.01.528.016.727.069.36.095.76.316.88.488.046.065.042.219-.009.305s-.082.104-.758.494l-1.885 1.09-.703.406-1.886 1.088-.647.373-.58.336-.4.226c-.183.095-.38.047-.461-.11-.051-.098-.07-.498-.034-.724.057-.347.226-.754.47-1.129.074-.115.134-.218.134-.226s-.066-.184-.146-.389L5.79 9.79l-.303-.77-.3-.769-.377-.932c-.009-.008-.059 0-.114.02a.82.82 0 0 1-.517-.033.74.74 0 0 1-.358-.356.54.54 0 0 1-.072-.32.56.56 0 0 1 .064-.3c.094-.193.209-.29.604-.515l.658-.377.715-.412.87-.504c.873-.505.946-.543 1.056-.57a1 1 0 0 1 .092-.014m-.104 1.687-.103.059c-.393.224-.539.314-.54.33 0 .01.045.08.098.156s.226.33.383.562l.71 1.05.733 1.081c.17.252.318.459.326.461s.09-.028.182-.068.27-.107.397-.149.228-.083.228-.093-.116-.182-.26-.381l-.498-.695L7.76 5.699zm2.807 6.277c.004.004.048.1.1.21l.947 2.029c.184.39.212.461.212.55 0 .158-.067.265-.212.34a.36.36 0 0 1-.315-.008c-.078-.035-.133-.1-.377-.45l-.412-.589c-.56-.79-1.007-1.446-.998-1.468.011-.028 1.041-.627 1.055-.614"/></svg>