<svg xmlns="http://www.w3.org/2000/svg" viewBox="0 0 17 19"><path fill="#ccc" d="M8.5 1.666c-7.054 0-10.585 8.528-5.598 13.516s13.516 1.454 13.516-5.6A7.917 7.917 0 0 0 8.5 1.666M5.844 3.68a.52.52 0 0 1 .473.135.483.483 0 0 1-.006.668l-.064.068.76.9.954 1.131.198.23.332-.001c.297-.002.347.002.478.033.239.056.504.196.586.307.031.041.03.142-.002.199s-.051.07-.488.338l-1.219.748-.455.28-1.219.747-.418.256-.375.232-.26.157c-.118.065-.248.037-.304-.065-.035-.064-.053-.325-.033-.474.03-.23.134-.5.287-.75.047-.078.084-.147.084-.153s-.045-.118-.102-.252l-.367-.865-.213-.5-.21-.502-.264-.603c-.006-.006-.039 0-.075.013a.54.54 0 0 1-.34-.011.5.5 0 0 1-.242-.227.35.35 0 0 1-.052-.209.37.37 0 0 1 .037-.2c.058-.127.13-.192.386-.347l.426-.26.463-.283.563-.346c.565-.347.61-.375.681-.394m.024 1.1-.067.04c-.254.155-.35.217-.35.227s.03.05.067.1l.262.363.486.676.5.697c.116.162.217.298.223.299s.06-.02.119-.049.176-.076.258-.105.148-.058.148-.065-.082-.118-.18-.246l-.337-.447-1.092-1.444zm4.12 3.976a1.691 1.691 0 0 1 2.538 1.467v.846h.41a.38.38 0 0 1 .379.379v3.306a.38.38 0 0 1-.379.38H8.735a.38.38 0 0 1-.379-.38v-3.306a.38.38 0 0 1 .379-.38h.408v-.845c0-.605.322-1.164.846-1.467m-2.167.098c.003.002.035.063.07.135l.658 1.316c.129.253.147.299.149.357.003.104-.04.175-.133.227a.24.24 0 0 1-.207.002c-.052-.022-.09-.066-.256-.291l-.281-.379c-.383-.509-.687-.93-.682-.945s.673-.43.682-.422m3.014.205c-.643 0-1.162.522-1.16 1.164v.846h2.322v-.846a1.16 1.16 0 0 0-1.162-1.164m-.284 3.156a.53.53 0 0 0 .057.928v.885c0 .303.455.303.455 0v-.885a.53.53 0 1 0-.512-.928"/></svg>
