<svg xmlns="http://www.w3.org/2000/svg" viewBox="0 0 19 19"><path fill="#ccc" d="M14.329 18.234c.229-.12.334-.29.334-.538 0-.14-.042-.252-.334-.869l-1.496-3.205-.159-.328c-.021-.022-1.647.924-1.665.968-.014.035.69 1.071 1.576 2.319l.65.928c.386.553.473.657.596.713.178.08.357.085.498.012M6.104 16.13c.086-.044.37-.205.631-.358l.916-.53 1.022-.59 2.978-1.718 1.11-.641 2.977-1.72c1.067-.614 1.116-.646 1.195-.78.08-.135.088-.377.017-.48-.19-.27-.822-.621-1.39-.771-.314-.083-.433-.094-1.148-.11l-.797-.017-.457-.568-2.223-2.78-1.767-2.21.16-.16c.446-.446.47-1.137.057-1.607C9.133.803 8.639.649 8.26.74c-.174.041-.286.102-1.667.9l-1.374.794-1.127.652-1.04.595c-.624.355-.803.508-.951.811-.083.17-.101.253-.103.475-.002.237.012.3.113.505.126.256.308.437.565.56.21.103.602.128.816.053.087-.03.169-.044.182-.03.027.03.19.433.595 1.47l.475 1.216.475 1.215.825 2.104.232.613c0 .014-.096.174-.215.357-.383.592-.649 1.234-.737 1.783-.058.357-.03.99.05 1.145.129.248.44.321.729.172m4.164-7.636L9.109 6.785 7.987 5.129l-.605-.887a1.4 1.4 0 0 1-.153-.247c.001-.025.231-.166.851-.52l.164-.093.087.116c.1.131 1.957 2.73 2.527 3.534l.786 1.1c.227.314.412.584.412.6s-.162.082-.36.147-.48.17-.626.234-.276.113-.29.11-.244-.332-.512-.73"/></svg>