<svg xmlns="http://www.w3.org/2000/svg" width="14.25" height="15.926"><path d="M7.125 1.398c-5.914 0-8.871 7.149-4.691 11.329s11.328 1.218 11.328-4.696a6.635 6.635 0 0 0-6.637-6.633m-.578 1.903a.65.65 0 0 1 .516.199.615.615 0 0 1-.028.852l-.086.085.938 1.172 1.18 1.477.245.3.422.012c.38.008.442.012.61.055.3.082.636.266.738.41.035.055.031.184-.012.254-.039.074-.066.09-.633.414l-1.582.914-.585.34-1.582.914-.543.313-.489.281-.332.191c-.156.079-.32.04-.386-.093-.043-.082-.06-.418-.028-.606.047-.293.188-.633.39-.95.063-.093.114-.179.114-.187 0-.007-.055-.156-.121-.328l-.438-1.113-.253-.648-.254-.645-.317-.781a.3.3 0 0 0-.093.02.7.7 0 0 1-.434-.028.63.63 0 0 1-.3-.3.42.42 0 0 1-.06-.27c0-.117.008-.16.055-.25.078-.16.172-.242.504-.43l.55-.316.602-.348.727-.422c.734-.422.793-.453.887-.477a.3.3 0 0 1 .078-.011m-.09 1.414-.086.05c-.328.188-.45.262-.45.274A.5.5 0 0 0 6 5.172c.047.062.191.277.324.473l.594.878.613.907c.145.21.266.383.274.386a1 1 0 0 0 .152-.058c.078-.031.227-.09.332-.125a.7.7 0 0 0 .191-.078 5 5 0 0 0-.214-.32l-.418-.583-1.344-1.875Zm2.356 5.262c.003.003.039.082.082.175l.793 1.7c.156.328.18.386.18.464 0 .13-.06.22-.18.286a.3.3 0 0 1-.262-.008c-.067-.031-.114-.086-.317-.38l-.343-.491c-.473-.664-.848-1.215-.84-1.23.011-.024.875-.528.886-.516m0 0"/></svg>
