<svg xmlns="http://www.w3.org/2000/svg" viewBox="0 0 17 19"><path d="M8.899 11.637c.146-.081.212-.194.208-.355-.003-.091-.033-.163-.232-.558L7.848 8.671l-.109-.21c-.014-.014-1.053.629-1.063.657-.009.023.466.683 1.063 1.477l.438.591c.26.352.318.418.4.452.116.05.232.049.322 0m-5.373-1.221c.055-.03.236-.14.403-.243l.585-.36.653-.4L7.07 8.246l.709-.436 1.901-1.168c.682-.417.713-.439.762-.527.05-.09.05-.246.002-.312-.127-.172-.543-.388-.915-.476-.205-.048-.282-.053-.746-.05l-.518.002-.306-.36-1.492-1.765-1.184-1.403.101-.107A.755.755 0 0 0 5.391.6a.8.8 0 0 0-.735-.207c-.112.03-.184.071-1.065.613l-.878.54-.72.442-.664.405c-.399.24-.512.343-.603.542a.6.6 0 0 0-.059.31.55.55 0 0 0 .083.326.76.76 0 0 0 .376.354.84.84 0 0 0 .53.02c.056-.022.109-.032.118-.023.018.018.13.277.411.943l.33.78.33.78.572 1.351.16.394c.001.01-.059.115-.132.235-.239.391-.4.813-.448 1.17-.03.233-.001.643.054.742.087.159.29.2.475.099m2.568-5.027L5.312 4.3l-.757-1.054-.408-.566a1 1 0 0 1-.103-.157c0-.016.147-.112.543-.352l.105-.064.058.074c.066.084 1.317 1.737 1.701 2.249l.53.7c.152.2.277.372.277.382s-.104.056-.231.102-.309.119-.402.162-.177.079-.186.077-.164-.211-.345-.464m10.213 7.117v5.16c0 .326-.265.59-.59.59H9.162a.593.593 0 0 1-.592-.59v-5.16c.001-.326.265-.59.592-.59h.639v-1.32a2.638 2.638 0 1 1 5.275 0v1.32h.64c.325 0 .59.264.59.59m-2.057-1.91a1.81 1.81 0 0 0-3.621 0v1.32h3.621zm-.984 3.809a.827.827 0 1 0-1.181.747v1.38a.355.355 0 0 0 .709 0v-1.38a.83.83 0 0 0 .472-.747"/></svg>
