<svg xmlns="http://www.w3.org/2000/svg" width="14.25" height="15.926"><path d="M7.46 9.754a.3.3 0 0 0 .173-.297c0-.078-.028-.137-.195-.469l-.86-1.718-.09-.176c-.011-.012-.883.527-.89.55-.008.02.39.57.89 1.239l.367.492c.215.297.266.352.332.379a.3.3 0 0 0 .274 0M2.958 8.73c.043-.023.195-.117.336-.203l.492-.3.547-.336 1.594-.98.594-.364 1.593-.98c.57-.348.598-.368.64-.442.04-.074.04-.207 0-.262-.105-.144-.456-.324-.765-.398-.172-.04-.238-.043-.629-.043l-.433.004-.254-.305-1.25-1.476-.996-1.176.086-.09A.636.636 0 0 0 4.52.504a.68.68 0 0 0-.618-.176c-.093.027-.152.063-.89.516l-.739.453-.601.371-.559.336c-.332.203-.43.289-.504.457a.5.5 0 0 0-.05.258.47.47 0 0 0 .07.273c.07.137.172.235.316.297a.66.66 0 0 0 .442.016c.047-.016.093-.024.101-.016.012.016.11.23.344.79l.277.651.274.657.48 1.133.137.328c0 .007-.05.097-.113.199-.2.328-.336.68-.375.98-.028.196 0 .54.047.621.07.133.242.168.398.082m2.152-4.214-.656-.91-.637-.887-.34-.473a.6.6 0 0 1-.085-.133c0-.011.12-.093.453-.293l.09-.054.046.062c.06.07 1.106 1.457 1.426 1.887l.446.586c.128.168.23.312.234.32 0 .008-.09.047-.195.086-.11.035-.258.098-.336.137a1 1 0 0 1-.157.062 5 5 0 0 1-.289-.39m8.559 5.968v4.325a.496.496 0 0 1-.492.496H7.68a.5.5 0 0 1-.496-.496v-4.325a.5.5 0 0 1 .496-.496h.535V8.883a2.213 2.213 0 0 1 3.32-1.918 2.2 2.2 0 0 1 1.102 1.918v1.105h.539c.27 0 .492.223.492.496m-1.723-1.601a1.519 1.519 0 1 0-3.035 0v1.105h3.035Zm-.824 3.191a.69.69 0 0 0-.594-.683.686.686 0 0 0-.761.48.69.69 0 0 0 .363.828v1.16a.297.297 0 1 0 .594 0V12.7a.69.69 0 0 0 .398-.625m0 0"/></svg>
