<svg xmlns="http://www.w3.org/2000/svg" width="14.25" height="15.926"><path d="M7.125 1.398c-5.914 0-8.871 7.149-4.691 11.329s11.328 1.218 11.328-4.696a6.635 6.635 0 0 0-6.637-6.633M4.898 3.086a.44.44 0 0 1 .399.113.4.4 0 0 1-.008.559l-.055.058.637.754.8.946.169.195h.277c.25-.004.293 0 .403.027.199.047.421.164.488.254.027.035.027.121 0 .168-.028.047-.043.059-.41.285l-1.02.625-.383.235-1.02.629-.35.214-.317.192-.215.133c-.102.054-.211.03-.258-.055-.027-.055-.043-.273-.027-.398.027-.192.113-.418.242-.63.04-.062.07-.12.07-.124 0-.008-.039-.102-.086-.211l-.308-.727-.18-.418-.176-.422-.218-.508c-.008-.003-.036 0-.063.012a.45.45 0 0 1-.285-.008.42.42 0 0 1-.203-.191.3.3 0 0 1-.047-.176c0-.074.004-.105.031-.164.05-.11.113-.164.324-.293l.36-.219.386-.234.473-.293c.473-.289.512-.312.57-.328m.02.922-.055.031c-.215.133-.293.184-.293.191s.024.043.055.082l.219.305.41.567.418.586c.098.136.18.25.187.25a1 1 0 0 0 .098-.04c.05-.023.148-.066.219-.09.066-.023.125-.046.12-.054a4 4 0 0 0-.148-.207l-.285-.375-.914-1.207ZM8.371 7.34A1.419 1.419 0 0 1 10.5 8.57v.707h.344c.176 0 .316.145.316.32v2.77c0 .176-.14.317-.316.317H7.32a.32.32 0 0 1-.316-.317v-2.77a.32.32 0 0 1 .316-.32h.344V8.57c0-.508.27-.976.707-1.23m-1.816.082c.004 0 .03.055.058.113l.555 1.102c.105.215.121.25.121.3.004.086-.031.145-.11.192a.2.2 0 0 1-.171 0c-.047-.02-.078-.055-.215-.242l-.238-.32c-.32-.426-.575-.778-.57-.794.003-.011.562-.359.57-.351m2.527.172a.974.974 0 0 0-.973.976v.707h1.946V8.57a.97.97 0 0 0-.973-.976m-.238 2.644a.444.444 0 0 0 .047.778v.742c0 .254.382.254.382 0v-.742a.44.44 0 0 0 .254-.399.446.446 0 0 0-.683-.379m0 0"/></svg>
