<svg xmlns="http://www.w3.org/2000/svg" width="14.25" height="14.25"><path d="M10.746 13.676c.172-.09.25-.219.25-.403 0-.105-.031-.191-.25-.652l-1.121-2.406-.121-.246c-.016-.016-1.234.695-1.246.726-.012.028.515.805 1.18 1.739l.488.699c.289.414.355.492.449.535a.43.43 0 0 0 .371.008m-6.168-1.578c.063-.036.277-.153.473-.27l.687-.398.766-.442L8.738 9.7l.832-.48 2.235-1.29c.8-.46.836-.484.894-.585.063-.102.067-.282.012-.36-.14-.203-.613-.464-1.043-.578-.234-.062-.324-.07-.86-.082l-.597-.011-.344-.426L8.2 3.8 6.875 2.145l.121-.122A.875.875 0 0 0 7.04.816a.93.93 0 0 0-.844-.261c-.129.03-.215.078-1.25.675l-1.03.594-.845.488-.78.45c-.47.265-.602.379-.716.605a.7.7 0 0 0-.074.36.6.6 0 0 0 .086.378.87.87 0 0 0 .422.418.95.95 0 0 0 .613.04c.063-.02.125-.032.137-.02.02.02.14.324.445 1.102l.356.91.355.914.621 1.578.172.457c0 .012-.07.133-.16.27-.29.44-.488.925-.555 1.335-.043.27-.02.743.04.86.097.183.331.242.546.129M7.7 6.37l-.868-1.28-.844-1.242-.453-.668a1 1 0 0 1-.113-.184c0-.02.172-.125.637-.39l.125-.07.066.089c.074.098 1.465 2.047 1.895 2.648l.59.825c.167.238.308.441.308.453 0 .011-.121.058-.273.11-.149.046-.36.124-.47.175a2 2 0 0 1-.214.082 10 10 0 0 1-.387-.547m0 0"/></svg>
