<svg xmlns="http://www.w3.org/2000/svg" width="30" height="30" viewBox="0 0 30 30"><path d="M18.127 2c-.155.01-.28.13-.232.39l1.277 8.502c.045.259.328.305.516.124l2.083-2.12c.131-.134.279-.144.37-.063 2.249 2.366 3.125 5.727 2.163 8.935-1.24 4.135-5.236 6.943-9.728 6.751-4.492-.19-8.214-3.32-9.078-7.54-.864-4.222 1.327-8.458 5.39-10.302L9.464 3.516C3.99 5.996.919 11.86 2.108 17.675S8.411 27.73 14.43 27.988c6.019.256 11.484-3.533 13.189-9.221 1.331-4.443.075-9.146-3.033-12.391l.004-.004c-.129-.131-.073-.185.024-.282l2.405-2.447c.173-.175.03-.266-.223-.311l-8.6-1.328a.4.4 0 0 0-.07-.004" style="color:#000;fill:#eee;fill-opacity:1;stroke-width:.0514219;-inkscape-stroke:none"/></svg>