<?xml version="1.0" encoding="UTF-8" standalone="no"?>
<svg
   width="50"
   height="50"
   version="1.1"
   id="svg4"
   sodipodi:docname="ops-classic-loop-dark-trans.svg"
   inkscape:version="1.3.2 (091e20e, 2023-11-25)"
   xmlns:inkscape="http://www.inkscape.org/namespaces/inkscape"
   xmlns:sodipodi="http://sodipodi.sourceforge.net/DTD/sodipodi-0.dtd"
   xmlns="http://www.w3.org/2000/svg"
   xmlns:svg="http://www.w3.org/2000/svg">
  <sodipodi:namedview
     id="namedview4"
     pagecolor="#ffffff"
     bordercolor="#000000"
     borderopacity="0.25"
     inkscape:showpageshadow="2"
     inkscape:pageopacity="0.0"
     inkscape:pagecheckerboard="0"
     inkscape:deskcolor="#d1d1d1"
     inkscape:zoom="3.0593533"
     inkscape:cx="23.044086"
     inkscape:cy="36.609044"
     inkscape:window-width="1312"
     inkscape:window-height="449"
     inkscape:window-x="0"
     inkscape:window-y="25"
     inkscape:window-maximized="0"
     inkscape:current-layer="svg4" />
  <defs
     id="defs2">
    <rect
       x="1.6343323"
       y="22.226919"
       width="45.761305"
       height="24.841851"
       id="rect2" />
    <rect
       x="2.8517483"
       y="10.337587"
       width="43.459559"
       height="43.344882"
       id="rect1" />
    <linearGradient
       id="A"
       x1="-4.5348678"
       y1="79.323486"
       x2=".95156062"
       y2="-34.936024"
       gradientUnits="userSpaceOnUse">
      <stop
         offset="0"
         stop-color="#cad6d6"
         stop-opacity=".92711371"
         id="stop1" />
      <stop
         stop-color="#19191a"
         offset="1"
         id="stop2" />
    </linearGradient>
    <linearGradient
       id="A-8"
       x1="66.046661"
       y1="158.40421"
       x2="66.256447"
       y2="-1.7247574"
       gradientUnits="userSpaceOnUse"
       gradientTransform="translate(15.528084)">
      <stop
         offset="0"
         stop-color="#cad6d6"
         stop-opacity=".92711371"
         id="stop1-7"
         style="stop-color:#fdfdfd;stop-opacity:1;" />
      <stop
         offset="0.20693555"
         stop-color="#cad6d6"
         stop-opacity=".92711371"
         id="stop5"
         style="stop-color:#e6e8e8;stop-opacity:1;" />
      <stop
         offset="0.89551342"
         stop-color="#cad6d6"
         stop-opacity=".92711371"
         id="stop3"
         style="stop-color:#556360;stop-opacity:1;" />
      <stop
         stop-color="#19191a"
         offset="1"
         id="stop2-7"
         style="stop-color:#303835;stop-opacity:1;" />
    </linearGradient>
  </defs>
  <path
     style="font-size:14.6667px;font-family:'DIN Condensed';-inkscape-font-specification:'DIN Condensed, ';text-align:center;text-anchor:middle;white-space:pre;fill:#ff6600"
     d="m 5.6389845,15.335798 q 0,-0.630668 0.2200005,-1.114669 0.2200005,-0.484001 0.5866681,-0.806669 0.3520008,-0.308001 0.7920018,-0.469334 0.4546677,-0.161334 0.9093354,-0.161334 0.4546677,0 0.8946687,0.161334 0.4546677,0.161333 0.8213352,0.469334 0.3520008,0.322668 0.5720018,0.806669 0.22,0.484001 0.22,1.114669 v 5.514679 q 0,0.660002 -0.22,1.129336 -0.220001,0.469335 -0.5720018,0.777335 -0.3666675,0.322668 -0.8213352,0.484001 -0.440001,0.161334 -0.8946687,0.161334 -0.4546677,0 -0.9093354,-0.161334 Q 6.7976539,23.079816 6.4456531,22.757148 6.0789855,22.449148 5.858985,21.979813 5.6389845,21.510479 5.6389845,20.850477 Z m 1.4960035,5.514679 q 0,0.542668 0.293334,0.806669 0.3080007,0.249334 0.7186683,0.249334 0.4106676,0 0.7040016,-0.249334 0.3080007,-0.264001 0.3080007,-0.806669 v -5.514679 q 0,-0.542668 -0.3080007,-0.792002 -0.293334,-0.264 -0.7040016,-0.264 -0.4106676,0 -0.7186683,0.264 -0.293334,0.249334 -0.293334,0.792002 z m 4.75202,2.464006 V 12.871792 h 1.496003 v 3.681342 h 0.02933 q 0.249334,-0.366667 0.586668,-0.557335 0.352001,-0.205333 0.792002,-0.205333 0.542668,0 0.836002,0.190667 0.308001,0.190667 0.498668,0.484001 0.146667,0.234667 0.190667,0.616001 0.044,0.381334 0.044,1.188003 v 2.830673 q 0,0.616002 -0.05867,0.982669 -0.05867,0.366668 -0.190667,0.616002 -0.381334,0.704001 -1.305336,0.704001 -0.557335,0 -0.850669,-0.22 -0.293334,-0.220001 -0.572001,-0.542668 v 0.674668 z m 2.97734,-5.148012 q 0,-0.352001 -0.161334,-0.616001 -0.146667,-0.264001 -0.572001,-0.264001 -0.322668,0 -0.542668,0.234667 -0.205334,0.220001 -0.205334,0.572002 v 2.88934 q 0,0.410667 0.205334,0.674668 0.205334,0.249334 0.542668,0.249334 0.381334,0 0.557334,-0.278668 0.176001,-0.278667 0.176001,-0.733335 z m 5.441345,-0.205334 q -0.01467,-0.381334 -0.249334,-0.572001 -0.22,-0.190667 -0.513334,-0.190667 -0.352001,0 -0.542668,0.234667 -0.190667,0.220001 -0.190667,0.513335 0,0.205333 0.102667,0.410667 0.102667,0.190667 0.528001,0.352001 l 0.880002,0.352001 q 0.836002,0.322667 1.144003,0.880002 0.322667,0.557334 0.322667,1.217336 0,0.469334 -0.176,0.880002 -0.161334,0.396001 -0.454668,0.704002 -0.293334,0.308 -0.704002,0.484001 -0.410667,0.176 -0.894668,0.176 -0.909336,0 -1.525337,-0.572001 -0.308001,-0.278667 -0.498668,-0.689335 -0.190667,-0.425334 -0.205334,-0.982669 h 1.408003 q 0.044,0.308001 0.205334,0.572001 0.176001,0.264001 0.601335,0.264001 0.322667,0 0.572001,-0.205334 0.264001,-0.22 0.264001,-0.601335 0,-0.308 -0.161334,-0.528001 -0.161334,-0.22 -0.586668,-0.381334 l -0.718668,-0.264001 q -0.704002,-0.264 -1.11467,-0.777335 -0.396,-0.528001 -0.396,-1.276003 0,-0.469334 0.176,-0.865335 0.176,-0.410668 0.484001,-0.704002 0.293334,-0.293334 0.689335,-0.440001 0.396001,-0.161333 0.850669,-0.161333 0.454667,0 0.836002,0.161333 0.396,0.161334 0.674668,0.454668 0.278667,0.293334 0.440001,0.704002 0.161333,0.396001 0.161333,0.850668 z m 2.317329,0.410668 q 0,-0.454668 0.05867,-0.836002 0.05867,-0.381334 0.220001,-0.674668 0.264001,-0.484001 0.748002,-0.777335 0.498667,-0.293334 1.202669,-0.293334 0.704002,0 1.188003,0.293334 0.498668,0.293334 0.762668,0.777335 0.161334,0.293334 0.220001,0.674668 0.05867,0.381334 0.05867,0.836002 v 2.449339 q 0,0.454668 -0.05867,0.836002 -0.05867,0.381334 -0.220001,0.674668 -0.264,0.484001 -0.762668,0.777335 -0.484001,0.293334 -1.188003,0.293334 -0.704002,0 -1.202669,-0.293334 -0.484001,-0.293334 -0.748002,-0.777335 -0.161334,-0.293334 -0.220001,-0.674668 -0.05867,-0.381334 -0.05867,-0.836002 z m 1.496003,2.684006 q 0,0.425334 0.190667,0.645335 0.205334,0.205334 0.542668,0.205334 0.337334,0 0.528001,-0.205334 0.205334,-0.220001 0.205334,-0.645335 v -2.918673 q 0,-0.425335 -0.205334,-0.630668 -0.190667,-0.220001 -0.528001,-0.220001 -0.337334,0 -0.542668,0.220001 -0.190667,0.205333 -0.190667,0.630668 z m 3.974688,-8.184019 h 1.496003 v 8.345353 q 0,0.425334 0.146667,0.586668 0.161334,0.146667 0.586668,0.190667 v 1.408003 q -0.513334,0 -0.924002,-0.088 -0.410668,-0.07333 -0.704002,-0.308001 -0.293334,-0.22 -0.454667,-0.616001 -0.146667,-0.410668 -0.146667,-1.070669 z m 7.142694,7.28935 h -2.962673 v 1.012003 q 0,0.352 0.190667,0.542668 0.205334,0.190667 0.542668,0.190667 0.425334,0 0.557335,-0.249334 0.146667,-0.249334 0.176,-0.498668 h 1.496003 q 0,0.982669 -0.601334,1.584004 -0.293334,0.308 -0.704002,0.484001 -0.410668,0.176 -0.924002,0.176 -0.704002,0 -1.20267,-0.293334 -0.484001,-0.293334 -0.748001,-0.777335 -0.161334,-0.293334 -0.220001,-0.674668 -0.05867,-0.381334 -0.05867,-0.836002 v -2.449339 q 0,-0.454668 0.05867,-0.836002 0.05867,-0.381334 0.220001,-0.674668 0.264,-0.484001 0.748001,-0.777335 0.498668,-0.293334 1.20267,-0.293334 0.513334,0 0.924002,0.176 0.425334,0.176 0.718668,0.484001 0.586668,0.660002 0.586668,1.657337 z m -2.962673,-1.173336 h 1.46667 v -0.850668 q 0,-0.425335 -0.205334,-0.630668 -0.190667,-0.220001 -0.528001,-0.220001 -0.337334,0 -0.542668,0.220001 -0.190667,0.205333 -0.190667,0.630668 z m 4.062688,-3.10934 v -2.258672 h 1.496003 v 2.258672 h 0.924002 v 1.173336 h -0.924002 v 4.121343 q 0,0.264 0.044,0.410667 0.05867,0.146667 0.176001,0.220001 0.117333,0.07333 0.278667,0.088 0.176,0.01467 0.425334,0.01467 v 1.408003 h -0.616001 q -0.513335,0 -0.865335,-0.161334 -0.337334,-0.161333 -0.542668,-0.410667 -0.205334,-0.249334 -0.308001,-0.557335 -0.088,-0.322667 -0.088,-0.616001 V 17.051802 H 35.58842 v -1.173336 z m 7.318692,4.282676 h -2.962673 v 1.012003 q 0,0.352 0.190667,0.542668 0.205334,0.190667 0.542668,0.190667 0.425334,0 0.557334,-0.249334 0.146667,-0.249334 0.176001,-0.498668 h 1.496003 q 0,0.982669 -0.601334,1.584004 -0.293334,0.308 -0.704002,0.484001 -0.410668,0.176 -0.924002,0.176 -0.704002,0 -1.20267,-0.293334 -0.484001,-0.293334 -0.748001,-0.777335 -0.161334,-0.293334 -0.220001,-0.674668 -0.05867,-0.381334 -0.05867,-0.836002 v -2.449339 q 0,-0.454668 0.05867,-0.836002 0.05867,-0.381334 0.220001,-0.674668 0.264,-0.484001 0.748001,-0.777335 0.498668,-0.293334 1.20267,-0.293334 0.513334,0 0.924002,0.176 0.425334,0.176 0.718668,0.484001 0.586668,0.660002 0.586668,1.657337 z m -2.962673,-1.173336 h 1.46667 v -0.850668 q 0,-0.425335 -0.205334,-0.630668 -0.190667,-0.220001 -0.528001,-0.220001 -0.337334,0 -0.542668,0.220001 -0.190667,0.205333 -0.190667,0.630668 z"
     id="text1"
     transform="translate(0,-6.5052237)"
     aria-label="Obsolete&#10;" />
  <path
     d="m 8.7235598,22.226562 v 5.888019 q 0,0.373335 -0.1386671,0.693336 -0.1280004,0.309334 -0.3733345,0.554668 -0.2453341,0.245334 -0.5653351,0.384001 -0.320001,0.138667 -0.6826688,0.138667 -0.3626679,0 -0.6826689,-0.138667 Q 5.9715511,29.607919 5.726217,29.362585 5.4808829,29.117251 5.3422158,28.807917 5.2035487,28.487916 5.2035487,28.114581 v -5.888019 h 1.0880034 v 5.781352 q 0,0.405335 0.1920006,0.597335 0.1920006,0.192001 0.4800016,0.192001 0.2880009,0 0.4800015,-0.192001 0.1920006,-0.192 0.1920006,-0.597335 v -5.781352 z m 0.9600093,9.781365 v -7.594691 h 1.0880039 v 0.490668 q 0.202667,-0.234667 0.416001,-0.394668 0.213334,-0.16 0.618669,-0.16 0.672002,0 0.949336,0.512001 0.096,0.181334 0.138667,0.448002 0.04267,0.266667 0.04267,0.714669 v 2.058673 q 0,0.597335 -0.032,0.864003 -0.064,0.533335 -0.490669,0.800002 -0.213334,0.138667 -0.618668,0.138667 -0.320001,0 -0.576002,-0.138667 -0.245334,-0.149334 -0.426668,-0.416001 h -0.02133 v 2.677342 z m 2.1653399,-5.834685 q 0,-0.330668 -0.128,-0.533335 -0.128,-0.202668 -0.405335,-0.202668 -0.245334,0 -0.394668,0.192001 -0.149333,0.181334 -0.149333,0.480001 v 2.10134 q 0,0.256001 0.149333,0.426668 0.160001,0.160001 0.394668,0.160001 0.309335,0 0.416002,-0.192001 0.117333,-0.192 0.117333,-0.448001 z m 3.07201,1.888006 q 0,0.330667 0.128,0.533335 0.128001,0.202667 0.405335,0.202667 0.245334,0 0.394668,-0.181334 0.149334,-0.192001 0.149334,-0.490668 v -2.10134 q 0,-0.256001 -0.160001,-0.416001 -0.149334,-0.170668 -0.384001,-0.170668 -0.309334,0 -0.426668,0.192001 -0.106667,0.192001 -0.106667,0.448001 z m 1.077337,1.760005 v -0.490668 q -0.106667,0.117334 -0.202668,0.224001 -0.096,0.096 -0.213334,0.170667 -0.117333,0.07467 -0.266667,0.117334 -0.149334,0.04267 -0.352001,0.04267 -0.682669,0 -0.949337,-0.512001 -0.096,-0.181334 -0.138667,-0.448002 -0.04267,-0.266667 -0.04267,-0.714669 v -2.058673 q 0,-0.586668 0.032,-0.864002 0.064,-0.533336 0.501335,-0.800003 0.202667,-0.138667 0.608001,-0.138667 0.320001,0 0.565336,0.149334 0.256,0.138667 0.437334,0.405334 h 0.02133 v -2.677342 h 1.088003 v 7.594691 z m 4.042678,0 v -0.554668 h -0.02133 q -0.213334,0.298667 -0.437335,0.458668 -0.213334,0.16 -0.608002,0.16 -0.192001,0 -0.394668,-0.064 -0.192,-0.05333 -0.373334,-0.213334 -0.181334,-0.149334 -0.298668,-0.426668 -0.106667,-0.288001 -0.106667,-0.736002 0,-0.458668 0.07467,-0.800003 0.07467,-0.352001 0.277334,-0.586668 0.192001,-0.224001 0.522668,-0.330668 0.330668,-0.117334 0.84267,-0.117334 0.05333,0 0.117333,0 0.064,0 0.117334,0.01067 0.05333,0.01067 0.128001,0.01067 0.07467,0 0.16,0.01067 v -0.565335 q 0,-0.277334 -0.117334,-0.458668 -0.117333,-0.181334 -0.426668,-0.181334 -0.213334,0 -0.394668,0.138667 -0.170667,0.138668 -0.224,0.405335 H 17.82226 q 0.04267,-0.725336 0.490669,-1.173337 0.213334,-0.213334 0.512001,-0.330668 0.298668,-0.128 0.672002,-0.128 0.341335,0 0.640002,0.106667 0.298668,0.106667 0.522669,0.320001 0.213334,0.213334 0.341334,0.533335 0.128001,0.320001 0.128001,0.746669 v 3.765345 z m 0,-2.325341 q -0.181334,-0.032 -0.298668,-0.032 -0.352001,0 -0.608001,0.170668 -0.245335,0.16 -0.245335,0.597335 0,0.309334 0.149334,0.501335 0.149334,0.192 0.416002,0.192 0.277334,0 0.426668,-0.181334 0.16,-0.181333 0.16,-0.512001 z m 1.888015,-3.082676 v -1.642672 h 1.088003 v 1.642672 h 0.672002 v 0.853336 h -0.672002 v 2.997343 q 0,0.192001 0.032,0.298668 0.04267,0.106667 0.128001,0.16 0.08533,0.05333 0.202667,0.064 0.128,0.01067 0.309334,0.01067 v 1.024003 h -0.448001 q -0.373335,0 -0.629336,-0.117334 -0.245334,-0.117333 -0.394667,-0.298667 -0.149334,-0.181334 -0.224001,-0.405335 -0.064,-0.234667 -0.064,-0.448001 v -3.285344 h -0.544002 v -0.853336 z m 5.322688,3.114677 h -2.154673 v 0.736002 q 0,0.256001 0.138667,0.394668 0.149334,0.138667 0.394668,0.138667 0.309334,0 0.405334,-0.181334 0.106667,-0.181334 0.128001,-0.362668 h 1.088003 q 0,0.714669 -0.437334,1.152004 -0.213334,0.224001 -0.512002,0.352001 -0.298668,0.128 -0.672002,0.128 -0.512002,0 -0.87467,-0.213334 -0.352001,-0.213334 -0.544001,-0.565335 -0.117334,-0.213334 -0.160001,-0.490668 -0.04267,-0.277334 -0.04267,-0.608002 v -1.781339 q 0,-0.330668 0.04267,-0.608002 0.04267,-0.277334 0.160001,-0.490668 0.192,-0.352001 0.544001,-0.565335 0.362668,-0.213334 0.87467,-0.213334 0.373334,0 0.672002,0.128 0.309334,0.128001 0.522668,0.352001 0.426668,0.480002 0.426668,1.205338 z m -2.154673,-0.853336 h 1.06667 v -0.618669 q 0,-0.309334 -0.149334,-0.458668 -0.138667,-0.160001 -0.384001,-0.160001 -0.245334,0 -0.394668,0.160001 -0.138667,0.149334 -0.138667,0.458668 z m 4.480033,-2.261341 H 30.729 l 0.746669,3.370677 h 0.02133 l 0.736002,-3.370677 h 1.120004 l -1.557339,6.346687 q -0.08533,0.362668 -0.245334,0.597335 -0.149334,0.234667 -0.352001,0.384001 -0.202667,0.149334 -0.437335,0.202668 -0.224,0.064 -0.469334,0.064 h -0.298668 v -1.024004 h 0.245334 q 0.160001,0 0.277334,-0.04267 0.117334,-0.04267 0.213334,-0.192001 0.08533,-0.149334 0.160001,-0.426668 0.07467,-0.266667 0.170667,-0.746669 z m 4.053332,1.813339 q 0,-0.330668 0.04267,-0.608002 0.04267,-0.277334 0.16,-0.490668 0.192001,-0.352001 0.544002,-0.565335 0.362668,-0.213334 0.874669,-0.213334 0.512002,0 0.864003,0.213334 0.362668,0.213334 0.554668,0.565335 0.117334,0.213334 0.160001,0.490668 0.04267,0.277334 0.04267,0.608002 v 1.781339 q 0,0.330668 -0.04267,0.608002 -0.04267,0.277334 -0.160001,0.490668 -0.192,0.352001 -0.554668,0.565335 -0.352001,0.213334 -0.864003,0.213334 -0.512001,0 -0.874669,-0.213334 -0.352001,-0.213334 -0.544002,-0.565335 -0.117334,-0.213334 -0.16,-0.490668 -0.04267,-0.277334 -0.04267,-0.608002 z m 1.088003,1.952006 q 0,0.309335 0.138667,0.469335 0.149334,0.149334 0.394668,0.149334 0.245334,0 0.384001,-0.149334 0.149334,-0.16 0.149334,-0.469335 v -2.122673 q 0,-0.309334 -0.149334,-0.458668 -0.138667,-0.160001 -0.384001,-0.160001 -0.245334,0 -0.394668,0.160001 -0.138667,0.149334 -0.138667,0.458668 z m 6.20803,-3.765345 v 5.408017 h -1.088003 v -0.522668 h -0.02133 q -0.170667,0.256001 -0.416001,0.426668 -0.234667,0.16 -0.608002,0.16 -0.202667,0 -0.405334,-0.064 -0.202668,-0.07467 -0.362668,-0.234667 -0.160001,-0.160001 -0.256001,-0.405335 -0.096,-0.256001 -0.096,-0.618668 v -4.149347 h 1.088003 v 3.744012 q 0,0.298668 0.138667,0.469335 0.138667,0.170667 0.394668,0.170667 0.309334,0 0.426668,-0.192001 0.117334,-0.192 0.117334,-0.554668 v -3.637345 z m 0.896002,5.408017 v -5.408017 h 1.088003 v 0.576002 q 0.330668,-0.298668 0.650669,-0.469335 0.320001,-0.170667 0.789336,-0.170667 v 1.152004 q -0.16,-0.064 -0.330668,-0.064 -0.170667,0 -0.373334,0.064 -0.192001,0.05333 -0.352001,0.192 -0.170668,0.138667 -0.277335,0.362668 -0.106667,0.224001 -0.106667,0.554668 v 3.210677 z M 9.1502277,36.59461 Q 9.139561,36.317276 8.9688938,36.178608 8.8088933,36.039941 8.5955592,36.039941 q -0.2560008,0 -0.3946679,0.170668 -0.1386671,0.16 -0.1386671,0.373334 0,0.149334 0.074667,0.298668 0.074667,0.138667 0.3840012,0.256001 l 0.6400021,0.256 q 0.6080019,0.234668 0.8320026,0.640002 0.234667,0.405335 0.234667,0.885336 0,0.341335 -0.128,0.640002 -0.1173337,0.288001 -0.3306677,0.512002 -0.213334,0.224001 -0.5120016,0.352001 -0.2986676,0.128001 -0.6506688,0.128001 -0.6613354,0 -1.1093368,-0.416002 Q 7.2728884,39.933287 7.1342213,39.634619 6.9955542,39.325285 6.9848875,38.91995 h 1.0240032 q 0.032,0.224001 0.1493338,0.416002 0.1280004,0.192 0.4373347,0.192 0.2346675,0 0.4160014,-0.149333 0.1920006,-0.160001 0.1920006,-0.437335 0,-0.224001 -0.1173337,-0.384001 -0.1173337,-0.160001 -0.4266681,-0.277335 l -0.5226683,-0.192 Q 7.6248895,37.895947 7.3262219,37.522613 7.038221,37.138612 7.038221,36.59461 q 0,-0.341335 0.1280004,-0.629336 0.1280004,-0.298667 0.3520011,-0.512001 0.213334,-0.213334 0.5013349,-0.320001 0.2880009,-0.117334 0.6186686,-0.117334 0.3306678,0 0.608002,0.117334 0.2880009,0.117334 0.4906682,0.330668 0.2026673,0.213334 0.3200008,0.512001 0.117334,0.288001 0.117334,0.618669 z m 1.7813313,-1.514672 v -1.642672 h 1.088003 v 1.642672 h 0.672003 v 0.853336 h -0.672003 v 2.997343 q 0,0.192001 0.032,0.298668 0.04267,0.106667 0.128001,0.16 0.08533,0.05333 0.202667,0.064 0.128001,0.01067 0.309335,0.01067 v 1.024003 h -0.448002 q -0.373334,0 -0.629335,-0.117333 -0.245334,-0.117334 -0.394668,-0.298668 -0.149334,-0.181334 -0.224001,-0.405334 -0.064,-0.234668 -0.064,-0.448002 v -3.285344 h -0.544002 v -0.853336 z m 1.717344,0 h 1.152003 l 0.746669,3.370678 h 0.02133 l 0.736002,-3.370678 h 1.120004 l -1.557339,6.346687 q -0.08533,0.362668 -0.245334,0.597335 -0.149334,0.234668 -0.352001,0.384001 -0.202667,0.149334 -0.437335,0.202668 -0.224,0.064 -0.469334,0.064 h -0.298668 v -1.024003 h 0.245334 q 0.160001,0 0.277334,-0.04267 0.117334,-0.04267 0.213334,-0.192001 0.08533,-0.149333 0.160001,-0.426668 0.07467,-0.266667 0.170667,-0.746669 z m 4.149338,-2.186673 h 1.088004 v 6.069352 q 0,0.309335 0.106667,0.426668 0.117333,0.106667 0.426668,0.138667 v 1.024004 q -0.373335,0 -0.672002,-0.064 -0.298668,-0.05333 -0.512002,-0.224 -0.213334,-0.160001 -0.330668,-0.448002 -0.106667,-0.298667 -0.106667,-0.778669 z m 5.194692,5.30135 H 19.83826 v 0.736002 q 0,0.256001 0.138667,0.394668 0.149334,0.138667 0.394668,0.138667 0.309334,0 0.405335,-0.181334 0.106667,-0.181334 0.128,-0.362668 h 1.088003 q 0,0.714669 -0.437334,1.152004 -0.213334,0.224001 -0.512002,0.352001 -0.298667,0.128001 -0.672002,0.128001 -0.512002,0 -0.874669,-0.213334 -0.352002,-0.213334 -0.544002,-0.565335 -0.117334,-0.213335 -0.160001,-0.490669 -0.04267,-0.277334 -0.04267,-0.608002 v -1.781339 q 0,-0.330667 0.04267,-0.608002 0.04267,-0.277334 0.160001,-0.490668 0.192,-0.352001 0.544002,-0.565335 0.362667,-0.213334 0.874669,-0.213334 0.373335,0 0.672002,0.128001 0.309334,0.128 0.522668,0.352001 0.426668,0.480001 0.426668,1.205337 z M 19.83826,37.341279 h 1.06667 V 36.72261 q 0,-0.309334 -0.149334,-0.458668 -0.138667,-0.16 -0.384001,-0.16 -0.245334,0 -0.394668,0.16 -0.138667,0.149334 -0.138667,0.458668 z m 6.912039,-0.746669 q -0.01067,-0.277334 -0.181334,-0.416002 -0.160001,-0.138667 -0.373335,-0.138667 -0.256001,0 -0.394668,0.170668 -0.138667,0.16 -0.138667,0.373334 0,0.149334 0.07467,0.298668 0.07467,0.138667 0.384001,0.256001 l 0.640002,0.256 q 0.608002,0.234668 0.832003,0.640002 0.234667,0.405335 0.234667,0.885336 0,0.341335 -0.128,0.640002 -0.117334,0.288001 -0.330668,0.512002 -0.213334,0.224001 -0.512001,0.352001 -0.298668,0.128001 -0.650669,0.128001 -0.661336,0 -1.109337,-0.416002 -0.224001,-0.202667 -0.362668,-0.501335 -0.138667,-0.309334 -0.149334,-0.714669 h 1.024004 q 0.032,0.224001 0.149333,0.416002 0.128001,0.192 0.437335,0.192 0.234668,0 0.416002,-0.149333 0.192,-0.160001 0.192,-0.437335 0,-0.224001 -0.117334,-0.384001 -0.117333,-0.160001 -0.426668,-0.277335 l -0.522668,-0.192 q -0.512002,-0.192001 -0.810669,-0.565335 -0.288001,-0.384001 -0.288001,-0.928003 0,-0.341335 0.128,-0.629336 0.128001,-0.298667 0.352001,-0.512001 0.213334,-0.213334 0.501335,-0.320001 0.288001,-0.117334 0.618669,-0.117334 0.330668,0 0.608002,0.117334 0.288001,0.117334 0.490668,0.330668 0.202667,0.213334 0.320001,0.512001 0.117334,0.288001 0.117334,0.618669 z m 1.781331,3.893345 v -7.59469 h 1.088004 v 2.709342 h 0.02133 q 0.170667,-0.256001 0.405335,-0.416002 0.245334,-0.170667 0.618668,-0.170667 0.202668,0 0.405335,0.07467 0.202667,0.064 0.362668,0.224001 0.16,0.16 0.256,0.416001 0.096,0.245334 0.096,0.608002 v 4.149346 H 30.69697 v -3.744011 q 0,-0.298668 -0.138667,-0.469335 -0.138667,-0.170667 -0.394668,-0.170667 -0.309334,0 -0.426668,0.192 -0.117333,0.192001 -0.117333,0.554669 v 3.637344 z m 7.296024,-2.29334 h -2.154673 v 0.736002 q 0,0.256001 0.138667,0.394668 0.149333,0.138667 0.394668,0.138667 0.309334,0 0.405334,-0.181334 0.106667,-0.181334 0.128001,-0.362668 h 1.088003 q 0,0.714669 -0.437335,1.152004 -0.213334,0.224001 -0.512001,0.352001 -0.298668,0.128001 -0.672002,0.128001 -0.512002,0 -0.87467,-0.213334 -0.352001,-0.213334 -0.544002,-0.565335 -0.117333,-0.213335 -0.16,-0.490669 -0.04267,-0.277334 -0.04267,-0.608002 v -1.781339 q 0,-0.330667 0.04267,-0.608002 0.04267,-0.277334 0.16,-0.490668 0.192001,-0.352001 0.544002,-0.565335 0.362668,-0.213334 0.87467,-0.213334 0.373334,0 0.672002,0.128001 0.309334,0.128 0.522668,0.352001 0.426668,0.480001 0.426668,1.205337 z m -2.154673,-0.853336 h 1.06667 V 36.72261 q 0,-0.309334 -0.149334,-0.458668 -0.138667,-0.16 -0.384001,-0.16 -0.245335,0 -0.394668,0.16 -0.138667,0.149334 -0.138667,0.458668 z m 6.101361,0.853336 h -2.154674 v 0.736002 q 0,0.256001 0.138667,0.394668 0.149334,0.138667 0.394668,0.138667 0.309335,0 0.405335,-0.181334 0.106667,-0.181334 0.128,-0.362668 h 1.088004 q 0,0.714669 -0.437335,1.152004 -0.213334,0.224001 -0.512002,0.352001 -0.298667,0.128001 -0.672002,0.128001 -0.512001,0 -0.874669,-0.213334 -0.352001,-0.213334 -0.544002,-0.565335 -0.117334,-0.213335 -0.16,-0.490669 -0.04267,-0.277334 -0.04267,-0.608002 v -1.781339 q 0,-0.330667 0.04267,-0.608002 0.04267,-0.277334 0.16,-0.490668 0.192001,-0.352001 0.544002,-0.565335 0.362668,-0.213334 0.874669,-0.213334 0.373335,0 0.672002,0.128001 0.309335,0.128 0.522669,0.352001 0.426668,0.480001 0.426668,1.205337 z m -2.154674,-0.853336 h 1.06667 V 36.72261 q 0,-0.309334 -0.149333,-0.458668 -0.138668,-0.16 -0.384002,-0.16 -0.245334,0 -0.394668,0.16 -0.138667,0.149334 -0.138667,0.458668 z m 2.954685,-2.261341 v -1.642672 h 1.088003 v 1.642672 h 0.672002 v 0.853336 h -0.672002 v 2.997343 q 0,0.192001 0.032,0.298668 0.04267,0.106667 0.128001,0.16 0.08533,0.05333 0.202667,0.064 0.128001,0.01067 0.309334,0.01067 v 1.024003 h -0.448001 q -0.373335,0 -0.629335,-0.117333 -0.245334,-0.117334 -0.394668,-0.298668 -0.149334,-0.181334 -0.224001,-0.405334 -0.064,-0.234668 -0.064,-0.448002 v -3.285344 h -0.544002 v -0.853336 z"
     id="text2"
     style="font-size:10.6667px;line-height:1;font-family:'DIN Condensed';-inkscape-font-specification:'DIN Condensed, ';text-align:center;text-anchor:middle;white-space:pre;fill:#ff00ff"
     aria-label="Update your style sheet" />
</svg>
