<?xml version="1.0" encoding="UTF-8" standalone="no"?>
<svg
   xml:space="preserve"
   viewBox="0 0 1000 300"
   version="1.1"
   id="svg7"
   sodipodi:docname="ops-lockup-black.svg"
   inkscape:version="1.3.2 (091e20e, 2023-11-25)"
   xmlns:inkscape="http://www.inkscape.org/namespaces/inkscape"
   xmlns:sodipodi="http://sodipodi.sourceforge.net/DTD/sodipodi-0.dtd"
   xmlns:xlink="http://www.w3.org/1999/xlink"
   xmlns="http://www.w3.org/2000/svg"
   xmlns:svg="http://www.w3.org/2000/svg"><sodipodi:namedview
     id="namedview7"
     pagecolor="#505050"
     bordercolor="#eeeeee"
     borderopacity="1"
     inkscape:showpageshadow="0"
     inkscape:pageopacity="0"
     inkscape:pagecheckerboard="0"
     inkscape:deskcolor="#d1d1d1"
     inkscape:zoom="0.58332031"
     inkscape:cx="499.72544"
     inkscape:cy="150.86051"
     inkscape:window-width="1368"
     inkscape:window-height="451"
     inkscape:window-x="0"
     inkscape:window-y="25"
     inkscape:window-maximized="0"
     inkscape:current-layer="g8" /><defs
     id="defs4"><linearGradient
       id="b"><stop
         offset="0"
         stop-color="#fff"
         id="stop1" /><stop
         offset="1"
         style="stop-color:#2c2c2c;stop-opacity:1"
         id="stop2" /></linearGradient><linearGradient
       id="a"><stop
         offset="0"
         stop-color="#fff"
         id="stop3" /><stop
         offset="1"
         style="stop-color:#2a2a2a;stop-opacity:1"
         id="stop4" /></linearGradient><linearGradient
       xlink:href="#a"
       id="d"
       x1="-553.27"
       x2="-666.12"
       y1="525.91"
       y2="413.05"
       gradientTransform="matrix(-1.15967 0 0 .9987 -614.19 -388.84)"
       gradientUnits="userSpaceOnUse" /><linearGradient
       xlink:href="#a"
       id="e"
       x1="-553.27"
       x2="-715.525"
       y1="525.91"
       y2="365.122"
       gradientTransform="matrix(-1.15967 0 0 .9987 -613.356 -389.193)"
       gradientUnits="userSpaceOnUse" /><linearGradient
       inkscape:collect="always"
       xlink:href="#linearGradient6"
       id="linearGradient1"
       gradientUnits="userSpaceOnUse"
       gradientTransform="matrix(-0.99884,0,0,0.9987,-529.01,-388.84)"
       x1="-525.08423"
       y1="468.77289"
       x2="-530.57703"
       y2="354.36465" /><linearGradient
       id="linearGradient6"><stop
         offset="0"
         id="stop5"
         style="stop-color:#cad6d6;stop-opacity:0.92711371;" /><stop
         stop-color="#fff"
         offset="1"
         id="stop6"
         style="stop-color:#19191a;stop-opacity:1;" /></linearGradient></defs><rect
     width="1000"
     height="300"
     x="0"
     y="0"
     style="fill:#050505;fill-opacity:0.98;stroke:none;stroke-width:0.997837"
     id="rect4" /><g
     id="g8"><g
       id="g1"
       transform="matrix(1.0123773,0,0,0.9527517,169.38621,72.978845)"
       style="display:inline;stroke-width:0.406062;stroke-dasharray:none"><path
         d="M 80.177,32.442214 C 113.35463,22.315538 135.50193,50.890115 135.07462,85.23 134.29014,148.27312 80.199426,160 69.836,160 28.944,160 0,126.204 0,79.964 0,39.62541 21.44044,8.3432584 59.25271,-0.15383903 c 10.364907,-0.0150067 14.114908,-0.22157266 32.472833,0 C 73.051883,-0.08504958 25.50188,19.764005 25.50188,78.251005 c 0,38.140995 30.41263,58.960145 54.792048,49.137935 C 91.207795,122.99186 109.52636,109.9045 109.52636,80.218 109.2395,44.024294 82.984083,34.122606 80.177,32.442214 Z"
         color="#000000"
         fill="url(#linearGradient3002)"
         id="use8"
         style="display:inline;fill:url(#linearGradient1);fill-rule:evenodd;stroke:#3f3a3a;stroke-width:0.406062;stroke-dasharray:none"
         sodipodi:nodetypes="csssccsscc"
         inkscape:tile-x0="0"
         inkscape:tile-y0="0.076837191"
         inkscape:label="use8" /><use
         x="0"
         y="0"
         inkscape:tiled-clone-of="#use8"
         xlink:href="#use8"
         fill="#3f3a3a"
         stroke="#3f3a3a"
         id="use10"
         style="display:inline;stroke-width:0.406062;stroke-dasharray:none" /><use
         x="0"
         y="0"
         inkscape:tiled-clone-of="#use8"
         xlink:href="#use8"
         transform="rotate(180,79.75,80.25)"
         fill="#3f3a3a"
         stroke="#3f3a3a"
         id="use11"
         style="display:inline;stroke-width:0.406062;stroke-dasharray:none" /></g><g
       aria-label="ORPHEUS"
       style="font-weight:500;font-size:7.44361px;font-family:&quot;DM Mono&quot;;-inkscape-font-specification:&quot;DM Mono, Medium&quot;;text-align:center;letter-spacing:2.61937px;text-anchor:middle;fill:#c8c4b7;stroke:#000;stroke-width:.0428269;stroke-opacity:.839768;stop-color:#000"
       id="g7"><path
         d="M24.016 9.96q0-1.184.869-2.034.865-.85 2.078-.85 1.2 0 2.058.857.861.858.861 2.06 0 1.211-.865 2.054-.869.847-2.097.847-1.087 0-1.952-.752-.952-.833-.952-2.181zm.854.012q0 .93.625 1.53.622.6 1.436.6.883 0 1.49-.61.607-.619.607-1.506 0-.897-.6-1.504-.596-.61-1.475-.61-.876 0-1.48.61-.603.603-.603 1.49zM35.467 10.4l1.738 2.392h-1.036l-1.603-2.297h-.153v2.297h-.847V7.18h.993q1.112 0 1.606.418.545.466.545 1.229 0 .596-.341 1.025-.342.429-.902.549zm-1.054-.643h.27q1.202 0 1.202-.92 0-.86-1.17-.86h-.302ZM41.514 10.513v2.28h-.847V7.18h.96q.705 0 1.065.099.363.098.64.37.483.473.483 1.193 0 .77-.516 1.22-.517.451-1.392.451zm0-.785h.316q1.167 0 1.167-.897 0-.87-1.203-.87h-.28zM48.153 9.376h2.42V7.18h.848v5.612h-.847v-2.62h-2.42v2.62h-.848V7.18h.847zM58.482 7.976h-2.25v1.349h2.184v.796h-2.184v1.875h2.25v.796h-3.097V7.18h3.097zM63.06 7.18v3.38q0 .724.236 1.058.353.484.992.484.644 0 .996-.484.237-.323.237-1.057V7.18h.846v3.612q0 .887-.552 1.461-.622.64-1.527.64t-1.522-.64q-.553-.574-.553-1.46V7.18Z"
         style="font-weight:400;font-family:Futura;-inkscape-font-specification:&quot;Futura, Normal&quot;;text-align:start;text-anchor:start;stroke:#4d4d4d"
         transform="matrix(8.85244 0 0 8.79788 178.647 63.52)"
         id="path6" /><path
         d="m73.505 8.016-.687.408q-.193-.335-.367-.437-.182-.116-.47-.116-.352 0-.585.2-.232.196-.232.494 0 .411.61.662l.56.229q.684.276 1 .676.316.396.316.974 0 .774-.516 1.28-.52.508-1.29.508-.731 0-1.207-.432-.469-.433-.585-1.218l.857-.189q.059.494.204.683.262.364.763.364.396 0 .658-.266.262-.265.262-.672 0-.164-.047-.298-.044-.138-.142-.25-.095-.117-.247-.215-.153-.102-.364-.193l-.541-.225q-1.153-.487-1.153-1.425 0-.632.484-1.058.483-.429 1.203-.429.97 0 1.516.945z"
         style="font-weight:400;font-family:Futura;-inkscape-font-specification:&quot;Futura, Normal&quot;;text-align:start;text-anchor:start;display:inline;stroke:#4d4d4d"
         transform="matrix(8.85244 0 0 8.79788 178.647 63.52)"
         id="path7" /></g></g></svg>
