<?xml version="1.0" encoding="UTF-8" standalone="no"?>
<svg
   width="200"
   height="50"
   version="1.1"
   id="svg5"
   sodipodi:docname="ops-logo-lockup-darkback.svg"
   inkscape:version="1.3.2 (091e20e, 2023-11-25)"
   xmlns:inkscape="http://www.inkscape.org/namespaces/inkscape"
   xmlns:sodipodi="http://sodipodi.sourceforge.net/DTD/sodipodi-0.dtd"
   xmlns:xlink="http://www.w3.org/1999/xlink"
   xmlns="http://www.w3.org/2000/svg"
   xmlns:svg="http://www.w3.org/2000/svg">
  <sodipodi:namedview
     id="namedview5"
     pagecolor="#ffffff"
     bordercolor="#000000"
     borderopacity="0.25"
     inkscape:showpageshadow="2"
     inkscape:pageopacity="0.0"
     inkscape:pagecheckerboard="0"
     inkscape:deskcolor="#d1d1d1"
     inkscape:zoom="2.065"
     inkscape:cx="100"
     inkscape:cy="25.181598"
     inkscape:window-width="1312"
     inkscape:window-height="449"
     inkscape:window-x="0"
     inkscape:window-y="25"
     inkscape:window-maximized="0"
     inkscape:current-layer="svg5" />
  <defs
     id="defs2">
    <linearGradient
       id="A"
       x1="-4.5348677068"
       y1="79.323485243"
       x2=".9515606452"
       y2="-34.936024045"
       gradientUnits="userSpaceOnUse">
      <stop
         offset="0"
         stop-color="#cad6d6"
         stop-opacity=".92711371"
         id="stop1" />
      <stop
         stop-color="#19191a"
         offset="1"
         id="stop2" />
    </linearGradient>
    <linearGradient
       id="A-4"
       x1="66.046661"
       y1="158.40421"
       x2="66.256447"
       y2="-1.7247574"
       gradientUnits="userSpaceOnUse"
       gradientTransform="translate(15.528084)">
      <stop
         offset="0"
         stop-color="#cad6d6"
         stop-opacity=".92711371"
         id="stop1-7"
         style="stop-color:#fdfdfd;stop-opacity:1;" />
      <stop
         offset="0.20693555"
         stop-color="#cad6d6"
         stop-opacity=".92711371"
         id="stop5"
         style="stop-color:#e6e8e8;stop-opacity:1;" />
      <stop
         offset="0.89551342"
         stop-color="#cad6d6"
         stop-opacity=".92711371"
         id="stop3"
         style="stop-color:#556360;stop-opacity:1;" />
      <stop
         stop-color="#19191a"
         offset="1"
         id="stop2-1"
         style="stop-color:#303835;stop-opacity:1;" />
    </linearGradient>
  </defs>
  <path
     d="M0 0h200v50H0z"
     fill="#050505"
     fill-opacity=".98"
     id="path2" />
  <g
     transform="matrix(0.273098,0,0,0.273098,-38.16724,-15.811023)"
     id="g5">
    <g
       transform="matrix(1.0361786,0,0,0.95387392,164.15566,72.888995)"
       stroke-width="0.406062"
       id="g4"
       inkscape:label="LUP">
      <path
         d="M 95.705084,32.442214 C 128.88271,22.315538 151.03001,50.890115 150.6027,85.23 149.81822,148.27312 95.72751,160 85.364084,160 c -40.892,0 -69.836,-33.796 -69.836,-80.036 0,-39.185113 20.231798,-69.824316 56.049277,-79.33334793 0.568517,-0.15093322 1.137816,-0.33427945 1.714716,-0.480966 0.543097,-0.13809135 1.784167,-0.28284015 2.642412,-0.29845725 0.296369,-0.005393 0.589365,-0.009449 0.871796,-0.0105758 8.915687,-0.03556 13.335286,0.53320554 30.447345,0.73974067 C 88.579967,0.64918309 41.029964,19.764005 41.029964,78.251005 c 0,38.140995 30.41263,58.960145 54.792048,49.137935 C 106.73588,122.99186 125.05444,109.9045 125.05444,80.218 124.76758,44.024294 99.490656,32.92566 95.705084,32.442214 Z"
         fill="url(#A)"
         id="B"
         fill-rule="evenodd"
         stroke="#3f3a3a"
         stroke-width="0.406062"
         stroke-dasharray="none"
         style="display:inline;fill:url(#A-4);stroke:#423d3d;stroke-opacity:0.55"
         inkscape:label="A"
         sodipodi:nodetypes="cssssssscsscc" />
      <use
         xlink:href="#B"
         transform="rotate(180,95.278084,80.25)"
         id="use3"
         inkscape:label="C"
         style="display:inline;fill:#3f3a3a;stroke:#3f3a3a"
         x="0"
         y="0" />
    </g>
    <path
       d="m 390.77126,149.23933 q 0,-10.41669 7.69277,-17.89488 7.65736,-7.4782 18.39537,-7.4782 10.62293,0 18.21832,7.53978 7.62195,7.54858 7.62195,18.12363 0,10.65424 -7.65736,18.07085 -7.69277,7.4518 -18.56356,7.4518 -9.62261,0 -17.27997,-6.616 -8.42752,-7.32864 -8.42752,-19.18818 z m 7.55998,0.10558 q 0,8.18203 5.53278,13.46076 5.50622,5.27872 12.7121,5.27872 7.81671,0 13.19014,-5.3667 5.37343,-5.44589 5.37343,-13.24961 0,-7.8917 -5.31146,-13.23201 -5.27606,-5.36671 -13.05735,-5.36671 -7.75474,0 -13.10161,5.36671 -5.33803,5.30512 -5.33803,13.10884 z m 93.80931,3.76549 15.38554,21.04453 h -9.17113 L 484.1645,153.9462 h -1.35442 v 20.20873 h -7.49802 v -49.3737 h 8.79048 q 9.84391,0 14.21701,3.67751 4.82458,4.09981 4.82458,10.8126 0,5.24353 -3.01868,9.01782 -3.02753,3.77429 -7.9849,4.83004 z m -9.33047,-5.65703 h 2.39016 q 10.64063,0 10.64063,-8.09405 0,-7.56618 -10.35735,-7.56618 h -2.67344 z m 62.86118,6.65119 v 20.05917 h -7.49802 v -49.3825 h 8.49834 q 6.24097,0 9.42785,0.87099 3.21344,0.86219 5.66556,3.25521 4.27573,4.1614 4.27573,10.49587 0,6.77437 -4.56786,10.73342 -4.57671,3.96784 -12.32259,3.96784 z m 0,-6.90633 h 2.79737 q 10.33079,0 10.33079,-7.8917 0,-7.65416 -10.64948,-7.65416 h -2.47868 z m 58.77135,-3.09686 h 21.4229 v -19.32014 h 7.50687 v 49.3737 h -7.49802 v -23.05044 h -21.4229 v 23.05044 h -7.50687 v -49.3737 h 7.49802 z m 91.43685,-12.31703 h -19.91799 v 11.86834 h 19.33373 v 7.00311 h -19.33373 v 16.49603 h 19.91799 v 7.00311 h -27.41601 v -49.3737 h 27.41601 z m 40.52647,-7.00311 v 29.73683 q 0,6.36967 2.08917,9.30816 3.12492,4.25817 8.78162,4.25817 5.70098,0 8.81703,-4.25817 2.09803,-2.84172 2.09803,-9.29936 v -29.74563 h 7.48917 v 31.77794 q 0,7.80372 -4.88655,12.8537 -5.50622,5.63065 -13.51768,5.63065 -8.01145,0 -13.47341,-5.63065 -4.8954,-5.04998 -4.8954,-12.8449 v -31.78674 z m 92.46373,7.35503 -6.08162,3.58953 q -1.70852,-2.94729 -3.24885,-3.84467 -1.61114,-1.02056 -4.16064,-1.02056 -3.11606,0 -5.17868,1.75958 -2.05377,1.72438 -2.05377,4.34615 0,3.61593 5.39999,5.8242 l 4.95737,2.01471 q 6.05507,2.42822 8.85244,5.94737 2.79737,3.48396 2.79737,8.56914 0,6.80955 -4.56786,11.26128 -4.60327,4.46932 -11.41965,4.46932 -6.47113,0 -10.68489,-3.80068 -4.1518,-3.80948 -5.17868,-10.71582 l 7.58654,-1.6628 q 0.52229,4.34616 1.8059,6.00896 2.31934,3.20242 6.75441,3.20242 3.50557,0 5.8249,-2.34023 2.31934,-2.33144 2.31934,-5.91218 0,-1.44285 -0.41606,-2.62177 -0.38951,-1.2141 -1.25705,-2.19947 -0.84098,-1.02935 -2.18655,-1.89154 -1.35442,-0.89738 -3.22229,-1.69799 l -4.78917,-1.97952 q -10.20686,-4.28457 -10.20686,-12.53698 0,-5.56026 4.28458,-9.30816 4.27573,-3.77429 10.64949,-3.77429 8.58686,0 13.42029,8.314 z"
       stroke-opacity="0.839768"
       fill="#c8c4b7"
       stroke="#4d4d4d"
       stroke-width="0.377956"
       id="path4"
       style="fill:#d2c6bc;fill-opacity:1"
       inkscape:label="OPS" />
  </g>
</svg>
