<?xml version="1.0" encoding="UTF-8" standalone="no"?>
<svg
   class="cf-icon-svg cf-icon-svg__arrow-down-round"
   viewBox="0 0 17 19"
   version="1.1"
   id="svg14645"
   sodipodi:docname="arrow-down-round.svg"
   inkscape:version="1.2.2 (b0a84865, 2022-12-01)"
   xmlns:inkscape="http://www.inkscape.org/namespaces/inkscape"
   xmlns:sodipodi="http://sodipodi.sourceforge.net/DTD/sodipodi-0.dtd"
   xmlns="http://www.w3.org/2000/svg"
   xmlns:svg="http://www.w3.org/2000/svg">
  <defs
     id="defs14649" />
  <sodipodi:namedview
     id="namedview14647"
     pagecolor="#505050"
     bordercolor="#eeeeee"
     borderopacity="1"
     inkscape:showpageshadow="0"
     inkscape:pageopacity="0"
     inkscape:pagecheckerboard="0"
     inkscape:deskcolor="#505050"
     showgrid="false"
     inkscape:zoom="12.421053"
     inkscape:cx="8.0911017"
     inkscape:cy="9.5"
     inkscape:window-width="1361"
     inkscape:window-height="456"
     inkscape:window-x="0"
     inkscape:window-y="25"
     inkscape:window-maximized="0"
     inkscape:current-layer="svg14645" />
  <path
     d="M16.416 9.579A7.917 7.917 0 1 1 8.5 1.662a7.916 7.916 0 0 1 7.916 7.917zm-4.07.53a.792.792 0 0 0-1.119 0l-1.935 1.935V5.212a.792.792 0 1 0-1.584 0v6.832L5.773 10.11a.792.792 0 0 0-1.12 1.12l3.287 3.287a.792.792 0 0 0 1.12 0l3.287-3.288a.791.791 0 0 0 0-1.12z"
     id="path14643"
     style="fill:#cccccc;fill-opacity:1" />
</svg>
