<?xml version="1.0" encoding="UTF-8" standalone="no"?>
<svg
   class="cf-icon-svg cf-icon-svg__lock-round"
   viewBox="0 0 17 19"
   version="1.1"
   id="svg15145"
   sodipodi:docname="lock-round.svg"
   inkscape:version="1.2.2 (b0a84865, 2022-12-01)"
   xmlns:inkscape="http://www.inkscape.org/namespaces/inkscape"
   xmlns:sodipodi="http://sodipodi.sourceforge.net/DTD/sodipodi-0.dtd"
   xmlns="http://www.w3.org/2000/svg"
   xmlns:svg="http://www.w3.org/2000/svg">
  <defs
     id="defs15149" />
  <sodipodi:namedview
     id="namedview15147"
     pagecolor="#505050"
     bordercolor="#eeeeee"
     borderopacity="1"
     inkscape:showpageshadow="0"
     inkscape:pageopacity="0"
     inkscape:pagecheckerboard="0"
     inkscape:deskcolor="#505050"
     showgrid="false"
     inkscape:zoom="12.421053"
     inkscape:cx="8.0911017"
     inkscape:cy="9.5"
     inkscape:window-width="1361"
     inkscape:window-height="456"
     inkscape:window-x="0"
     inkscape:window-y="25"
     inkscape:window-maximized="0"
     inkscape:current-layer="svg15145" />
  <path
     d="M16.417 9.583A7.917 7.917 0 1 1 8.5 1.666a7.917 7.917 0 0 1 7.917 7.917zm-4.23-.585a.476.476 0 0 0-.475-.475h-.7V7.262a2.52 2.52 0 0 0-5.041 0v1.261h-.7a.476.476 0 0 0-.475.475v5.108a.476.476 0 0 0 .475.475h6.44a.477.477 0 0 0 .476-.475zM10.22 7.262v1.261H6.762V7.262a1.73 1.73 0 0 1 3.459 0zm-1.413 4.363v1.309a.317.317 0 1 1-.633 0v-1.309a.79.79 0 1 1 .633 0z"
     id="path15143"
     style="fill:#cccccc;fill-opacity:1" />
</svg>
