<?xml version="1.0" encoding="UTF-8" standalone="no"?>
<svg
   class="cf-icon-svg cf-icon-svg__arrow-down-round"
   viewBox="0 0 17 19"
   version="1.1"
   id="svg14645"
   sodipodi:docname="menu.svg"
   inkscape:version="1.3.2 (091e20e, 2023-11-25)"
   xmlns:inkscape="http://www.inkscape.org/namespaces/inkscape"
   xmlns:sodipodi="http://sodipodi.sourceforge.net/DTD/sodipodi-0.dtd"
   xmlns="http://www.w3.org/2000/svg"
   xmlns:svg="http://www.w3.org/2000/svg">
  <defs
     id="defs14649" />
  <sodipodi:namedview
     id="namedview14647"
     pagecolor="#505050"
     bordercolor="#eeeeee"
     borderopacity="1"
     inkscape:showpageshadow="0"
     inkscape:pageopacity="0"
     inkscape:pagecheckerboard="0"
     inkscape:deskcolor="#505050"
     showgrid="false"
     inkscape:zoom="12.663652"
     inkscape:cx="8.1335149"
     inkscape:cy="9.5154228"
     inkscape:window-width="1368"
     inkscape:window-height="456"
     inkscape:window-x="0"
     inkscape:window-y="369"
     inkscape:window-maximized="0"
     inkscape:current-layer="svg14645" />
  <path
     d="m 5.0773833,7.1050277 a 0.56754205,0.56754205 0 0 1 0.567542,-0.566991 H 11.35506 a 0.56754205,0.56754205 0 1 1 0,1.1345331 H 5.6443743 A 0.56754205,0.56754205 0 0 1 5.0779343,7.1050277 Z M 11.922051,9.5002753 A 0.56754205,0.56754205 0 0 1 11.354509,10.067267 H 5.6449253 a 0.56754205,0.56754205 0 0 1 0,-1.1345335 h 5.7106857 a 0.56754205,0.56754205 0 0 1 0.566991,0.5675418 z m 0,2.3941457 a 0.56754205,0.56754205 0 0 1 -0.567542,0.567543 H 5.6449253 a 0.56754205,0.56754205 0 1 1 0,-1.134534 h 5.7106857 a 0.56754205,0.56754205 0 0 1 0.566991,0.567542 z"
     id="path1"
     style="fill:#f2f2f2;fill-opacity:1;stroke-width:0.551012" />
</svg>
