<?xml version="1.0" encoding="UTF-8" standalone="no"?>
<svg
   class="cf-icon-svg cf-icon-svg__arrow-down-round"
   viewBox="0 0 17 19"
   version="1.1"
   id="svg14645"
   sodipodi:docname="menu.svg"
   inkscape:version="1.3.2 (091e20e, 2023-11-25)"
   xmlns:inkscape="http://www.inkscape.org/namespaces/inkscape"
   xmlns:sodipodi="http://sodipodi.sourceforge.net/DTD/sodipodi-0.dtd"
   xmlns="http://www.w3.org/2000/svg"
   xmlns:svg="http://www.w3.org/2000/svg">
  <defs
     id="defs14649" />
  <sodipodi:namedview
     id="namedview14647"
     pagecolor="#505050"
     bordercolor="#eeeeee"
     borderopacity="1"
     inkscape:showpageshadow="0"
     inkscape:pageopacity="0"
     inkscape:pagecheckerboard="0"
     inkscape:deskcolor="#505050"
     showgrid="false"
     inkscape:zoom="16.771555"
     inkscape:cx="2.0868667"
     inkscape:cy="7.0655343"
     inkscape:window-width="1440"
     inkscape:window-height="792"
     inkscape:window-x="0"
     inkscape:window-y="25"
     inkscape:window-maximized="1"
     inkscape:current-layer="svg14645" />
  <g
     id="g1"
     transform="translate(9.6170019e-5)">
    <path
       d="m 5.059717,7.1050277 c 0,-0.4981674 0.080213,-0.5669911 0.5852083,-0.566991 H 11.35506 c 0.489151,0 0.585035,0.053999 0.585035,0.5516563 0,0.497657 -0.08206,0.5828768 -0.585035,0.5828768 H 5.6443743 c -0.5013451,0 -0.5846573,-0.069375 -0.5846573,-0.5675421 z m 6.880378,2.3952476 c 0,0.4959228 -0.08615,0.5669917 -0.585586,0.5669917 H 5.6449253 c -0.5051572,0 -0.5852083,-0.1098976 -0.5852083,-0.6068151 0,-0.4969174 0.089089,-0.5277184 0.5852083,-0.5277184 h 5.7106857 c 0.504365,0 0.584484,0.071619 0.584484,0.5675418 z m 0,2.3941457 c 0,0.503687 -0.08678,0.567543 -0.585586,0.567543 H 5.6449253 c -0.4984087,0 -0.5859242,-0.06899 -0.5852083,-0.568193 7.159e-4,-0.499205 0.087126,-0.566341 0.5852083,-0.566341 h 5.7106857 c 0.504289,0 0.584484,0.0633 0.584484,0.566991 z"
       id="path1"
       style="fill:#f2f2f2;fill-opacity:1;stroke-width:0.551012"
       sodipodi:nodetypes="zcczcczzcszsczzcszscz" />
  </g>
</svg>
