<?xml version="1.0" encoding="UTF-8" standalone="no"?>
<svg
   class="cf-icon-svg cf-icon-svg__menu"
   viewBox="0 0 14 19"
   version="1.1"
   id="svg1"
   sodipodi:docname="menu-cccccc.svg"
   inkscape:version="1.3.2 (091e20e, 2023-11-25)"
   xmlns:inkscape="http://www.inkscape.org/namespaces/inkscape"
   xmlns:sodipodi="http://sodipodi.sourceforge.net/DTD/sodipodi-0.dtd"
   xmlns="http://www.w3.org/2000/svg"
   xmlns:svg="http://www.w3.org/2000/svg">
  <defs
     id="defs1" />
  <sodipodi:namedview
     id="namedview1"
     pagecolor="#505050"
     bordercolor="#eeeeee"
     borderopacity="1"
     inkscape:showpageshadow="0"
     inkscape:pageopacity="0"
     inkscape:pagecheckerboard="0"
     inkscape:deskcolor="#d1d1d1"
     inkscape:zoom="12.421053"
     inkscape:cx="7.0042373"
     inkscape:cy="9.5"
     inkscape:window-width="1368"
     inkscape:window-height="451"
     inkscape:window-x="0"
     inkscape:window-y="25"
     inkscape:window-maximized="0"
     inkscape:current-layer="svg1" />
  <path
     d="M.789 4.836a1.03 1.03 0 0 1 1.03-1.029h10.363a1.03 1.03 0 1 1 0 2.059H1.818A1.03 1.03 0 0 1 .79 4.836zm12.422 4.347a1.03 1.03 0 0 1-1.03 1.029H1.819a1.03 1.03 0 0 1 0-2.059h10.364a1.03 1.03 0 0 1 1.029 1.03zm0 4.345a1.03 1.03 0 0 1-1.03 1.03H1.819a1.03 1.03 0 1 1 0-2.059h10.364a1.03 1.03 0 0 1 1.029 1.03z"
     id="path1"
     style="fill:#cccccc" />
</svg>
