<?xml version="1.0" encoding="UTF-8" standalone="no"?>
<svg
   class="cf-icon-svg cf-icon-svg__menu"
   viewBox="0 0 12.48718 10.752"
   version="1.1"
   id="svg1"
   sodipodi:docname="menu-cccccc.svg"
   inkscape:version="1.3.2 (091e20e, 2023-11-25)"
   xmlns:inkscape="http://www.inkscape.org/namespaces/inkscape"
   xmlns:sodipodi="http://sodipodi.sourceforge.net/DTD/sodipodi-0.dtd"
   xmlns="http://www.w3.org/2000/svg"
   xmlns:svg="http://www.w3.org/2000/svg">
  <defs
     id="defs1" />
  <sodipodi:namedview
     id="namedview1"
     pagecolor="#505050"
     bordercolor="#eeeeee"
     borderopacity="1"
     inkscape:showpageshadow="0"
     inkscape:pageopacity="0"
     inkscape:pagecheckerboard="0"
     inkscape:deskcolor="#d1d1d1"
     inkscape:zoom="12.421053"
     inkscape:cx="6.2796608"
     inkscape:cy="5.7161015"
     inkscape:window-width="1368"
     inkscape:window-height="451"
     inkscape:window-x="0"
     inkscape:window-y="25"
     inkscape:window-maximized="0"
     inkscape:current-layer="svg1" />
  <path
     d="M 0.03208972,1.0295 A 1.03,1.03 0 0 1 1.0620897,5e-4 H 11.42509 a 1.03,1.03 0 1 1 0,2.059 H 1.0610897 A 1.03,1.03 0 0 1 0.03308972,1.0295 Z M 12.45409,5.3765 a 1.03,1.03 0 0 1 -1.03,1.029 H 1.0620897 a 1.03,1.03 0 0 1 0,-2.059 H 11.42609 a 1.03,1.03 0 0 1 1.029,1.03 z m 0,4.345 a 1.03,1.03 0 0 1 -1.03,1.03 H 1.0620897 a 1.03,1.03 0 1 1 0,-2.059 H 11.42609 a 1.03,1.03 0 0 1 1.029,1.03 z"
     id="path1"
     style="fill:#f2f2f2;fill-opacity:1" />
</svg>
