<svg xmlns="http://www.w3.org/2000/svg" xmlns:xlink="http://www.w3.org/1999/xlink" width="181.41733932495" height="181.41733932495" viewBox="0 0 48 48" xmlns:v="https://vecta.io/nano"><defs><linearGradient ><stop stop-color="#fff" offset="0"/><stop offset="1" stop-color="#2c2c2c"/></linearGradient><linearGradient id="B" gradientTransform="matrix(-1.1596701,0,0,0.9987,-613.35567,-389.19265)" x1="-553.27002" y1="525.90997" x2="-715.52527" y2="365.12198" gradientUnits="userSpaceOnUse"><stop stop-color="#fff" offset="0"/><stop offset="1" stop-color="#2a2a2a"/></linearGradient></defs><g transform="matrix(.255557 0 0 .255464 .24393289122700068 3.5708100521793)" stroke-width=".10355"><use xlink:href="#C" transform="rotate(182.52857 92.90037 79.999595)"/><path d="M148.14754 82.280125c.13168 27.860055 4.54247 76.025215-51.695063 77.367225-76.126694.31177-86.9751377-31.79344-87.6186006-77.367225C8.0669524 27.962105 26.454273.22397821 96.452477-.25364561 38.805257.30684965 42.336266 40.652864 42.336266 82.280125s8.520949 52.184025 55.183517 51.869805c33.887567-.22819 31.519537-10.44392 30.253257-56.01788s-3.12547-50.32117-31.256578-52.188893c56.283208.73128 51.499398 28.476917 51.631078 56.336968z" fill="url(#B)" id="C" fill-rule="evenodd"/></g></svg>