<svg xmlns="http://www.w3.org/2000/svg" xmlns:xlink="http://www.w3.org/1999/xlink" width="755.90558052063" height="188.97639513016" viewBox="0 0 200 50" xmlns:v="https://vecta.io/nano"><defs><linearGradient ><stop stop-color="#fff" offset="0"/><stop offset="1" stop-color="#2c2c2c"/></linearGradient><linearGradient id="B" gradientTransform="matrix(-1.1596701,0,0,0.9987,-613.35567,-389.19265)" x1="-553.27002" y1="525.90997" x2="-715.52527" y2="365.12198" gradientUnits="userSpaceOnUse"><stop stop-color="#fff" offset="0"/><stop offset="1" stop-color="#2a2a2a"/></linearGradient></defs><g transform="matrix(.255557 0 0 .255464 8.334921691227002 4.4334476921793)" stroke-width=".10355"><use xlink:href="#C" transform="rotate(182.52857 92.90037 79.999595)"/><path d="M148.14754 82.280125c.13168 27.860055 4.54247 76.025215-51.695063 77.367225-76.126694.31177-86.9751377-31.79344-87.6186006-77.367225C8.0669524 27.962105 26.454273.22397821 96.452477-.25364561 38.805257.30684965 38.195002 40.652864 38.195002 82.280125s12.662213 52.184025 59.324781 51.869805c33.887567-.22819 37.731437-6.30113 36.465157-51.875095s-9.33737-54.463955-37.468478-56.331678c56.283208.73128 51.499398 28.476917 51.631078 56.336968z" fill="url(#B)" id="C" fill-rule="evenodd"/></g><path d="M64.67856552823 25.16826553157q0-2.75811211895 2.03459263878-4.73786117438 2.02607636685-1.97974905543 4.86939864019-1.97974905543 2.80926655448 0 4.81831974632 1.99667010293 2.01756712156 1.99666987015 2.01756712156 4.79708414227 0 2.81733625072-2.02607870906 4.78016332756-2.03459263878 1.97128853169-4.91196360435 1.97128853169-2.54536752424 0-4.5714462333-1.75131631096-2.23038960013-1.93744736781-2.23038960013-5.07627956366zm2.00053926212.02538203679q0 2.1658789484 1.46422492972 3.56185605537 1.45571334222 1.39597710696 3.36260874631 1.39597710696 2.06864367322 0 3.49030363878-1.42135914376 1.42165996557-1.43827972569 1.42165996557-3.50263215637 0-2.0897351658-1.40463444834-3.50263308748-1.39612051863-1.42135821265-3.45625026213-1.42135821265-2.051618156 0-3.46476419185 1.42135821265-1.41314837806 1.40443739793-1.41314837806 3.46879122527zm24.82100477397.99833318925l4.06918293534 5.56698784592h-2.42618656149l-3.75420266902-5.3470156252h-.35754288827v5.3470156252h-1.9835137449V18.69600886095h2.32403111595q2.60495800562 0 3.76271659874.97295348023 1.27693955587 1.08293982337 1.27693955587 2.85963770556 0 1.38751635044-.80021570485 2.3858514019-.80021570485.99833388758-2.11120863738 1.27752930897zm-2.46874918343-1.4975015297h.62995584822q2.81778282641 0 2.81778282641-2.14049784272 0-2.00513039389-2.74116682781-2.00513039389h-.70657184682zm16.63156000941 1.75977636916v5.30471300647h-1.9835137449V18.69600886095h2.24741511735q1.65151030357 0 2.49428863037.22843367558.85129459872.22843367558 1.49827830637.86296760264 1.13221914618 1.09986063808 1.13221914618 2.77503293366 0 1.79361869691-1.20883514478 2.84271549419-1.20883748699 1.04909703005-3.26045564299 1.04909703005zm0-1.82746009356h.74062522347q2.73265289809 0 2.73265289809-2.0897351658 0-2.02205120861-2.8177828264-2.02205120861h-.65549529516zm15.55041741489-.8206652167h5.66961434504v-5.11012142587h1.9835137449v13.06295974259h-1.9835137449v-6.09999665192h-5.66961434504v6.09999665192h-1.9835137449V18.69600886095h1.9835137449zm24.19104892574-3.25727929551h-5.26950883483v3.13883289418h5.11627449542v1.8528416648h-5.11627449542v4.36560092289h5.26950883483v1.85284213036h-7.25302257973V18.69600886095h7.25302257973zm10.72358373886-1.85284213035v7.86823401037q0 1.68363165544.55334219183 2.46199471895.82575515179 1.12524314043 2.32403111595 1.12524314043 1.50678989388 0 2.33254270346-1.12524314043.55334219183-.75298102672.55334219183-2.46199471895v-7.86823401037h1.9835137449v8.40970427122q0 2.06435289623-1.2939674153 3.40110680253-1.45571100001 1.48904147151-3.57543122489 1.48904147151-2.11972022488 0-3.56691963738-1.48904147151-1.2939674153-1.3367539063-1.2939674153-3.40110680253v-8.40970427122zm24.46345720128 1.94590719322l-1.60894299721.94757214177q-.4511867463-.77836283074-.85980852844-1.01525586618-.42564495715-.27073489765-1.09816811174-.27073489765-.82575515179 0-1.37058107169.46532554714-.54482826212.45686525617-.54482826212 1.15062354778 0 .95603266551 1.43017155307 1.53980484676l1.31099293253.53300927155q1.6004314097.64299538191 2.34105663317 1.57364694174.74062522347.92219150164.74062522347 2.26740453502 0 1.80208038455-1.20883514478 2.97808527078-1.2173514167 1.18446401332-3.02209371747 1.18446401332-1.71109844274 0-2.82629441391-1.00679441132-1.09816811174-1.0067967391-1.37058107169-2.83425683266l2.00905319184-.43994444145q.13619945335 1.15062284945.47672385102 1.5905672909.612930331.84604771903 1.78771678355.84604771903.92790825511 0 1.54084092832-.61761404345.612930331-.61761404345.612930331-1.56518758188 0-.38072124079-.11066937525-.69375782606-.10214373449-.32149804012-.33200578354-.58377287958-.2213387505-.27073396654-.57887929656-.49916764212-.35754288827-.23689280266-.85129225651-.44840356854l-1.26842562616-.52454898058q-2.69860186365-1.13370250029-2.69860186365-3.31650272896 0-1.47212112235 1.13222148839-2.46199565006 1.13221914618-.99833505146 2.8177804842-.99833505146 2.27295456429 0 3.54989412016 2.19972127616z" stroke-opacity=".839768" fill="#c8c4b7" stroke="#4d4d4d" stroke-width=".10000090384"/></svg>