<svg xmlns="http://www.w3.org/2000/svg" xmlns:xlink="http://www.w3.org/1999/xlink" viewBox="0 0 200 50" xmlns:v="https://vecta.io/nano"><defs><linearGradient id="A" gradientUnits="userSpaceOnUse"><stop offset="0" stop-color="#fff"/><stop offset="1" stop-color="#2a2a2a"/></linearGradient><linearGradient xlink:href="#A" id="B" x1="19.746305" y1="132.78508" x2="156.37506" y2="53.282749"/><linearGradient xlink:href="#A" id="C" gradientTransform="matrix(-1.1596701,0,0,-0.9987,-613.35567,549.19252)" x1="-646.52576" y1="523.43011" x2="-502.67441" y2="385.78738"/></defs><path d="M69.3650027 25.1655892q0-2.75607968 2.0353718-4.73468418 2.026003-1.9786045 4.8670916-1.9786045 2.81064 0 4.8202476 1.99489889 2.0166342 1.99722666 2.0166342 4.7952062 0 2.81892947-2.026003 4.78123958-2.0353718 1.97162119-4.9115934 1.97162119-2.5459714 0-4.5719744-1.75048304-2.2297744-1.93903241-2.2297744-5.07686637zm2.0002388.02793324q0 2.1648261 1.463875 3.5614881 1.4568484 1.396662 3.3633992 1.396662 2.0681626 0 3.489878-1.4199397 1.4217154-1.44088963 1.4217154-3.50562162 0-2.08800969-1.40532-3.50096608-1.3959512-1.4199397-3.454745-1.4199397-2.0517672 0-3.466456 1.4199397-1.4123466 1.40364531-1.4123466 3.4683773zm24.8202934.99628556l4.0707436 5.56802584h-2.4265192l-3.7545466-5.34688769h-.3583566v5.34688769h-1.9838434V18.6943886h2.3258046q2.6045264 0 3.7615732.97300786 1.276499 1.08474082 1.276499 2.86082933 0 1.38735092-.7986902 2.38596425-.8010324.99861333-2.1126644 1.27794573zm-2.4686788-1.49675611h.632394q2.8153244 0 2.8153244-2.1415484 0-2.0018822-2.740374-2.0018822h-.7073444zm16.6319622 1.75979412v5.3073156h-1.9838434V18.6943886h2.248512q1.651251 0 2.494443.23044923.8502186.22812146 1.499008.8612749 1.1312826 1.10103521 1.1312826 2.77702961 0 1.7923829-1.2085752 2.8398794-1.2109174 1.04982427-3.2603424 1.04982427zm0-1.82729945h.7401352q2.7333474 0 2.7333474-2.08800969 0-2.0251599-2.8176666-2.0251599h-.655816zm15.5498658-.81937504h5.668124V18.6943886h1.9861856v13.06344524h-1.9838434v-6.0987574h-5.668124v6.0987574h-1.9861856V18.6943886h1.9838434zm24.1925838-3.258878h-5.26995v3.14016173h5.1153648v1.85290492h-5.1153648v4.36456875h5.26995v1.85290492h-7.2537934V18.6943886h7.2537934zm10.7225916-1.85290492v7.8678626q0 1.68530548.5527592 2.46278066.8267966 1.12664068 2.3234624 1.12664068 1.5083768 0 2.3328312-1.12664068.5551014-.75186971.5551014-2.46045289V18.6943886h1.9815012v8.40790524q0 2.06473199-1.2928944 3.40087197-1.4568484 1.4897728-3.5765394 1.4897728-2.119691 0-3.5648284-1.4897728-1.2952366-1.33613998-1.2952366-3.3985442V18.6943886zm24.464279 1.94601572l-1.6090914.94973016q-.4520446-.77980295-.8595874-1.01723549-.4262804-.27002132-1.100834-.27002132-.8244544 0-1.370187.465554-.5433904.45624292-.5433904 1.14991838 0 .95671347 1.428742 1.54098374l1.311632.53305933q1.6020648.64246452 2.3422 1.57357252.7401352.92179692.7401352 2.26724798 0 1.80169398-1.2085752 2.9795456-1.217944 1.18250716-3.021438 1.18250716-1.7121482 0-2.8270354-1.00559664-1.0984918-1.00792441-1.370187-2.83522386l2.0072654-.43994853q.1381898 1.14991838.4778088 1.58986691.6136564.84730828 1.7870986.84730828.9275112 0 1.5411676-.61918682.6136564-.61685905.6136564-1.56426144 0-.38175428-.1100834-.69367546-.1030568-.32123226-.3325924-.5819425-.222509-.27234909-.5785234-.50047055-.3583566-.23743254-.8525608-.44925961l-1.2671302-.52374825q-2.7005566-1.13362399-2.7005566-3.31707225 0-1.47115064 1.1336248-2.46278066 1.1312826-.99861333 2.8176666-.99861333 2.271934 0 3.5507752 2.19974265z" stroke-opacity=".839768" fill="#c8c4b7" stroke="#4d4d4d" stroke-width=".10000064649"/><g transform="matrix(.264583 0 0 .264583 14.302082 3.8333509)" fill-rule="evenodd"><path d="M79.865 40.89987c35.398-48.255 70.04 13.469 69.989 50.587-.0602 43.886-44.541 68.414-70.018 68.414-40.892 0-79.836-33.796-79.836-80.036 0-51.396 44.64-79.865 79.836-79.865-7.9645 1.1468-34.506 6.834-34.863 67.967-.23987 41.347 13.488 57.866 34.805 50.599.47743-.17707 23.514-9.2645 23.514-38.951 0-29.56-23.427-38.715-23.427-38.715z" fill="url(#B)"/><path d="M79.823 118.59887c-23.39 8.0619-52.043-11.216-52.043-49.829 0-63.048 46.721-68.77 52.384-68.77 40.892 0 79.836 33.796 79.836 80.036 0 51.396-44.64 79.865-79.836 79.865 9.7481 1.35 52.541-10.55 52.541-69.037 0-38.141-31.953-58.905-52.735-50.033-.47743.17707-23.514 9.2645-23.514 38.951 0 29.56 23.367 38.818 23.367 38.818z" fill="url(#C)"/></g></svg>