<svg xmlns="http://www.w3.org/2000/svg" xmlns:v="https://vecta.io/nano"><defs><linearGradient ><stop offset="0"/><stop stop-color="#fff" offset="1"/></linearGradient><linearGradient id="B" gradientTransform="matrix(-1.1596701,0,0,-0.9987,-613.35567,549.19252)" x1="-646.52576" y1="523.43011" x2="-502.67441" y2="385.78738" gradientUnits="userSpaceOnUse"><stop stop-color="#fff" offset="0"/><stop offset="1" stop-color="#2a2a2a"/></linearGradient><linearGradient id="C" x1="19.746305" y1="132.78508" x2="156.37506" y2="53.282749" gradientUnits="userSpaceOnUse"><stop stop-color="#fff" offset="0"/><stop offset="1" stop-color="#2a2a2a"/></linearGradient></defs><g fill-rule="evenodd"><path d="M79.865 40.89987c35.398-48.255 70.04 13.469 69.989 50.587-.0602 43.886-44.541 68.414-70.018 68.414-40.892 0-79.836-33.796-79.836-80.036 0-51.396 44.64-79.865 79.836-79.865-7.9645 1.1468-34.506 6.834-34.863 67.967-.23987 41.347 13.488 57.866 34.805 50.599.47743-.17707 23.514-9.2645 23.514-38.951 0-29.56-23.427-38.715-23.427-38.715z" fill="url(#C)"/><path d="M79.823 118.59887c-23.39 8.0619-52.043-11.216-52.043-49.829 0-63.048 46.721-68.77 52.384-68.77 40.892 0 79.836 33.796 79.836 80.036 0 51.396-44.64 79.865-79.836 79.865 9.7481 1.35 52.541-10.55 52.541-69.037 0-38.141-31.953-58.905-52.735-50.033-.47743.17707-23.514 9.2645-23.514 38.951 0 29.56 23.367 38.818 23.367 38.818z" fill="url(#B)"/></g></svg>