<?xml version="1.0" encoding="UTF-8" standalone="no"?>
<svg
   class="cf-icon-svg cf-icon-svg__lock-round"
   viewBox="0 0 17 19"
   version="1.1"
   id="svg13897"
   sodipodi:docname="pin-and-lock-round.svg"
   xml:space="preserve"
   inkscape:version="1.2.2 (b0a84865, 2022-12-01)"
   xmlns:inkscape="http://www.inkscape.org/namespaces/inkscape"
   xmlns:sodipodi="http://sodipodi.sourceforge.net/DTD/sodipodi-0.dtd"
   xmlns="http://www.w3.org/2000/svg"
   xmlns:svg="http://www.w3.org/2000/svg"><defs
     id="defs13901" /><sodipodi:namedview
     id="namedview13899"
     pagecolor="#505050"
     bordercolor="#eeeeee"
     borderopacity="1"
     inkscape:showpageshadow="0"
     inkscape:pageopacity="0"
     inkscape:pagecheckerboard="0"
     inkscape:deskcolor="#505050"
     showgrid="false"
     inkscape:zoom="10.06735"
     inkscape:cx="5.6122018"
     inkscape:cy="13.658013"
     inkscape:window-width="1361"
     inkscape:window-height="503"
     inkscape:window-x="0"
     inkscape:window-y="25"
     inkscape:window-maximized="0"
     inkscape:current-layer="svg13897" /><path
     id="path13895"
     style="fill:#000000"
     d="m 8.5,1.6660156 c -7.0537771,0 -10.5848254,8.5284564 -5.5976562,13.5156254 C 7.8895129,20.16881 16.417969,16.635808 16.417969,9.5820312 16.417969,5.2095972 12.872434,1.6660156 8.5,1.6660156 Z M 5.8443068,3.6799659 c 0.1561459,-0.041942 0.3647273,0.01833 0.4726562,0.1347656 0.1772484,0.1912202 0.1743775,0.4777376 -0.00586,0.6679687 l -0.064453,0.068359 0.7597656,0.9003906 c 0.4178484,0.494867 0.8470923,1.0036143 0.9550781,1.1308594 l 0.1972657,0.2304688 0.3320312,-0.00195 c 0.297623,-0.00165 0.3470927,0.0023 0.4785157,0.033203 0.2383005,0.056033 0.5040032,0.196128 0.5859374,0.3066406 0.030991,0.041802 0.029775,0.1420449 -0.00195,0.1992188 -0.031317,0.05644 -0.051253,0.070303 -0.4882812,0.3378906 C 8.7501175,7.8805828 8.5680284,7.9921014 7.8462599,8.4358252 7.6756456,8.540715 7.4705383,8.6663429 7.3911818,8.7151221 7.262101,8.7944664 6.8798818,9.0291455 6.1724318,9.463169 6.0414934,9.5435021 5.8536642,9.6583757 5.754463,9.7190284 5.6552618,9.7796815 5.4865798,9.8850662 5.379463,9.95145 5.2723462,10.017834 5.154827,10.088296 5.1196974,10.1077 5.0014672,10.173005 4.8709752,10.144677 4.8150099,10.043247 4.7797526,9.979351 4.7618568,9.717773 4.7818068,9.5686378 4.8124608,9.3394874 4.9160587,9.069148 5.0689161,8.8186378 5.1160145,8.741449 5.153053,8.671948 5.1529005,8.666294 5.152748,8.6606405 5.1080549,8.5475924 5.051338,8.4143409 4.9202577,8.1063785 4.8442848,7.9283837 4.6841505,7.5491065 4.6134262,7.3816038 4.516804,7.1567849 4.4712599,7.0491065 4.4257157,6.9414281 4.3309146,6.7146601 4.2603224,6.5471534 4.0804511,6.120351 4.0082799,5.9554733 3.9966505,5.9436378 c -0.00551,-0.00561 -0.038403,9.29e-5 -0.074219,0.013672 C 3.8341866,5.9907611 3.6711676,5.9855614 3.582588,5.9455909 3.4745188,5.8968262 3.3955667,5.8238634 3.3404005,5.7190284 3.29592,5.6345096 3.2895105,5.6084714 3.2876661,5.510044 3.285942,5.417499 3.2922957,5.3820099 3.3247755,5.3108252 3.3831296,5.1829277 3.4557879,5.117731 3.7114942,4.963169 3.8384162,4.8864528 4.0301508,4.769337 4.1372755,4.7034034 4.2444044,4.6374692 4.4533562,4.5103438 4.6001661,4.4202002 4.7469761,4.3300563 4.9999856,4.1744877 5.1626661,4.0744971 5.7278541,3.727104 5.7725233,3.6992465 5.8443068,3.6799659 Z m 0.023437,1.0996093 -0.066406,0.041016 C 5.5473978,4.9747224 5.4518716,5.0366463 5.4517286,5.0471534 c 3.36e-5,0.00662 0.030037,0.050742 0.066406,0.099609 0.03637,0.048868 0.1542004,0.2129047 0.2617187,0.3632812 0.1075226,0.1503759 0.3267974,0.4542035 0.4863282,0.6757812 0.1595265,0.2215779 0.383989,0.5350172 0.5,0.6972657 0.1160152,0.1622475 0.2169221,0.2975588 0.2226562,0.2988281 0.00573,0.00127 0.059331,-0.020738 0.1191406,-0.048828 0.059814,-0.028091 0.1759863,-0.07618 0.2578125,-0.1054688 0.081835,-0.029288 0.1486143,-0.057897 0.1484375,-0.064453 -1.768e-4,-0.00656 -0.082,-0.1178462 -0.1796875,-0.2460938 C 7.2368536,6.5888273 7.0856711,6.3884166 6.9966505,6.2698096 6.7505626,5.9419315 5.9473849,4.8801085 5.9048536,4.8264502 Z M 9.988838,8.7561378 c 1.128373,-0.6517526 2.538894,0.1637225 2.537109,1.4667972 v 0.845703 h 0.410157 c 0.20902,5.87e-4 0.378319,0.169886 0.378906,0.378906 v 3.306641 c -5.87e-4,0.20902 -0.169886,0.378319 -0.378906,0.378906 H 8.7349318 C 8.5259113,15.132504 8.3566124,14.963206 8.3560255,14.754185 v -3.306641 c 5.869e-4,-0.209021 0.1698858,-0.378319 0.3789063,-0.378906 H 9.1431349 V 10.222935 C 9.1423828,9.6179304 9.4648689,9.0586068 9.988838,8.7561378 Z M 7.8208692,8.853794 c 0.00279,0.00265 0.034728,0.063332 0.070313,0.1347656 0.3070254,0.6163706 0.5682532,1.1386784 0.6582031,1.3164064 0.1281675,0.253229 0.1468584,0.298869 0.1484375,0.357422 0.00279,0.103396 -0.038888,0.174321 -0.1328125,0.226562 -0.057446,0.03195 -0.1323043,0.03349 -0.2070313,0.002 -0.052083,-0.02198 -0.089621,-0.06557 -0.2558594,-0.291015 C 7.9950253,10.454657 7.8684,10.284237 7.8208692,10.220981 7.4384967,9.7121142 7.1338051,9.290501 7.1392286,9.275669 7.1459341,9.2573134 7.8117956,8.8451973 7.8208692,8.853794 Z M 10.834541,9.0588721 C 10.192466,9.0593256 9.6726799,9.5808617 9.6743849,10.222935 v 0.845703 H 11.99665 v -0.845703 c 0.0017,-0.6428365 -0.519271,-1.1646902 -1.162109,-1.1640629 z m -0.283203,3.1562499 c -0.353628,0.223351 -0.321531,0.749063 0.05664,0.927735 v 0.884765 c 2.2e-4,0.303165 0.455298,0.303165 0.455078,0 v -0.884765 c 0.18476,-0.08776 0.302565,-0.273971 0.302734,-0.478516 0.0013,-0.418874 -0.460833,-0.67374 -0.814453,-0.449219 z"
     sodipodi:nodetypes="sssscscccccccscsssssssssssscscccscccccscccccscccsscssscccccccccccccccccccsssscccccccccccccccc" /><style
     type="text/css"
     id="style21910">
	.st0{fill:#FFFFFF;}
	.st1{fill:#BF311A;}
</style><g
     inkscape:groupmode="layer"
     id="layer1"
     inkscape:label="Layer 1" /><g
     inkscape:label="Ebene 1"
     id="layer1-0"
     transform="matrix(-0.0426008,0.00114886,0.00114886,0.0426008,-122.80122,-16.162012)"
     style="fill:#ffffff"><g
       id="g4452"
       transform="matrix(0.36160947,0,0,0.36160947,-1405.6123,360.68288)"
       style="fill:#ffffff" /></g></svg>
