<svg xmlns="http://www.w3.org/2000/svg" viewBox="0 0 512 512"><path d="M380.286 205.988q0-47.535-23.768-87.149-22.777-39.613-63.38-63.38-41.594-23.768-87.15-23.768-45.555 0-87.149 23.767-40.603 23.768-63.38 63.381-23.768 39.614-23.768 87.15 0 47.535 23.767 87.148 22.778 39.613 63.381 63.381 41.594 23.768 87.15 23.768 45.555 0 87.148-23.768 40.604-23.768 63.381-63.38 23.768-39.614 23.768-87.15M339.683 362.46q-55.459 47.536-133.695 49.517-87.149-1.98-145.578-60.41T0 205.988Q1.98 118.84 60.41 60.41T205.988 0q87.15 1.98 145.579 60.41t60.41 145.578q-1.98 78.236-49.517 133.695l139.637 140.626q9.903 10.894 0 21.788-10.894 9.903-21.788 0z" style="fill:#ccc;fill-opacity:1"/></svg>