<?xml version="1.0" encoding="UTF-8" standalone="no"?>
<svg
   width="200"
   height="50"
   version="1.1"
   id="svg4"
   sodipodi:docname="ops-logo-lockup-lightmode.svg"
   inkscape:version="1.3.2 (091e20e, 2023-11-25)"
   xmlns:inkscape="http://www.inkscape.org/namespaces/inkscape"
   xmlns:sodipodi="http://sodipodi.sourceforge.net/DTD/sodipodi-0.dtd"
   xmlns:xlink="http://www.w3.org/1999/xlink"
   xmlns="http://www.w3.org/2000/svg"
   xmlns:svg="http://www.w3.org/2000/svg">
  <sodipodi:namedview
     id="namedview4"
     pagecolor="#f0f0f0"
     bordercolor="#000000"
     borderopacity="0.25"
     inkscape:showpageshadow="2"
     inkscape:pageopacity="0.0"
     inkscape:pagecheckerboard="true"
     inkscape:deskcolor="#d1d1d1"
     inkscape:zoom="4.435"
     inkscape:cx="99.661781"
     inkscape:cy="24.915445"
     inkscape:window-width="1480"
     inkscape:window-height="804"
     inkscape:window-x="0"
     inkscape:window-y="44"
     inkscape:window-maximized="0"
     inkscape:current-layer="svg4" />
  <defs
     id="defs4">
    <linearGradient
       id="linearGradient12"
       gradientUnits="userSpaceOnUse"
       spreadMethod="pad">
      <stop
         offset="0"
         stop-color="#fdfdfd"
         id="stop9"
         style="stop-color:#e8e8e8;stop-opacity:1;" />
      <stop
         offset="0.20999999"
         stop-color="#e6e8e8"
         id="stop10"
         style="stop-color:#d2d5d5;stop-opacity:1;" />
      <stop
         offset="0.89999998"
         stop-color="#556360"
         id="stop11"
         style="stop-color:#4e5b58;stop-opacity:1;" />
      <stop
         stop-color="#303835"
         offset="1"
         id="stop12"
         style="stop-color:#1c2120;stop-opacity:1;" />
    </linearGradient>
    <linearGradient
       inkscape:collect="always"
       xlink:href="#linearGradient12"
       id="mainGradientLeft"
       x1="30"
       y1="52"
       x2="30"
       y2="8"
       gradientUnits="userSpaceOnUse"
       gradientTransform="matrix(1.0145733,0,0,0.9978439,3.5627997,-5.282695)" />
    <linearGradient
       id="mainGradientBase"
       gradientUnits="userSpaceOnUse"
       spreadMethod="pad">
      <stop
         offset="0"
         stop-color="#fdfdfd"
         id="stop8" />
      <stop
         offset="0.21"
         stop-color="#e6e8e8"
         id="stop7"
         style="stop-color:#e7e9e9;stop-opacity:1;" />
      <stop
         offset="0.90"
         stop-color="#556360"
         id="stop6" />
      <stop
         stop-color="#303835"
         offset="1"
         id="stop5" />
    </linearGradient>
    <linearGradient
       id="mainGradientRight"
       xlink:href="#mainGradientBase"
       gradientUnits="userSpaceOnUse"
       gradientTransform="matrix(-1.0145733,0,0,-0.9978439,64.437197,54.587939)"
       x1="30"
       y1="52"
       x2="30"
       y2="8" />
  </defs>
  <path
     d="M68.5516166104 25.46696421568q0-2.84517303984 2.10117242672-4.88773594368 2.09150068096-2.0425656352 5.02443778032-2.0425656352 2.90150460848 0 4.97607905152 2.05938535008 2.0818289352 2.06178894688 2.0818289352 4.95021580368 0 2.91005649664-2.09150068096 4.9357996856-2.10117242672 2.0353548448-5.07037925552 2.0353548448-2.6282784736 0-4.71977915456-1.807067776-2.30185910272-2.00171541504-2.30185910272-5.24098273248zm2.06490269728.02883769888q0 2.23480694608 1.51120139808 3.67661814336 1.50394417456 1.44180846592 3.4721321456 1.44180846592 2.1350221712 0 3.60269934768-1.4658389712 1.46767990784-1.48746861104 1.46767990784-3.61894547696 0-2.1555073712-1.45075366992-3.61413828336-1.4410791928-1.46584170256-3.5664323496-1.46584170256-2.11809593328 0-3.57852134896 1.46584170256-1.45800543072 1.44901925632-1.45800543072 3.58049612224zm25.62269969616 1.02849087664l4.20234485344 5.74801874608H97.9365980936L94.06067261104 26.75257986h-.36994086112v5.51973167728H91.6427525592v-13.4857349232h2.40099381392q2.68872620176 0 3.88317997472 1.00446037136 1.31776648288 1.11980570416 1.31776648288 2.9533103136 0 1.43219681008-.82451018048 2.46309128352-.82693016544 1.03089447344-2.1809636464 1.31925780544zm-2.54848725392-1.54513854608h.6528360104q2.90634184704 0 2.90634184704-2.2107764408 0-2.06659614048-2.82896788096-2.06659614048h-.73020997648zm17.16964852912 1.81667943184v5.47888145712h-2.04797645936v-13.48813852h2.32120259424q1.70463358192 0 2.5750852376.23789872464.87770341648.23549512784 1.54746839616.88911503856 1.16785578928 1.1366281504 1.16785578928 2.86679994832 0 1.85032432432-1.24764700896 2.93168340512-1.25006426256 1.08375994624-3.3657456736 1.08375994624zm0-1.88636735088h.76406245232q2.8217133888 0 2.8217133888-2.1555073712 0-2.09062664576-2.90875910064-2.09062664576h-.67701674048zm16.0525714536-.84586395296h5.85136794576v-5.27702575904h2.05039371296v13.4857349232H132.766736932v-6.29590497984h-5.85136794576v6.29590497984h-2.05039644432v-13.4857349232h2.04797919072zm24.9746954616-3.36422430608h-5.44032011664v3.24167091424h5.28073767728v1.91280145296h-5.28073767728v4.50565965008h5.44032011664v1.91280145296h-7.488296576v-13.4857349232h7.488296576zm11.06923790992-1.91280145296v8.12219879888q0 1.73978618512.57063026848 2.54239358976.85352541776 1.16305952112 2.39857656032 1.16305952112 1.55714014192 0 2.40824830608-1.16305952112.57304752208-.77617603392.57304752208-2.53998999296v-8.12460239568h2.04555920576v8.67969941984q0 2.13147686592-1.33468998944 3.5108082032-1.50394690592 1.5379332184-3.69216504448 1.5379332184-2.18821813856 0-3.68007331376-1.5379332184-1.3371099744-1.37933133728-1.3371099744-3.5084046064v-8.68210301664zm25.25517608864 2.00892347408l-1.66111209168.98042986608q-.46665831872-.80501100144-.88737516224-1.05011778512-.4400630664-.27875167616-1.1364232984-.27875167616-.85110816416 0-1.41448394048.48060464288-.56095579136.47099025568-.56095579136 1.1870900264 0 .98764065648 1.47493166864 1.5907986912l1.35403348096.55028983056q1.65385759952.66323429792 2.41792005184 1.62444085232.76406245232.95159489856.76406245232 2.34054062304 0 1.8599332488-1.24764700896 3.07586097408-1.25731602336 1.22073218752-3.11911479104 1.22073218752-1.76750129504 0-2.9184308464-1.03810253248-1.13400331344-1.04050612928-1.41448394048-2.92687621152l2.0721599208-.4541705408q.14265620144 1.18709275776.49325357104 1.64126329856.63349525024.87469618912 1.84487526112.87469618912.95749463616 0 1.5909898864-.63920106128.63349525024-.63680019584.63349525024-1.61482919648 0-.3940942776-.11364096416-.71609977072-.10638920336-.3316144176-.3433456088-.60075443792-.22970191328-.2811525416-.5972255208-.51664766944-.36994359248-.24510678368-.88012340144-.46378219664l-1.30809473712-.54067817472q-2.78786364432-1.17027031152-2.78786364432-3.42430056928 0-1.51870717536 1.17027577424-2.54239358976 1.16785305792-1.03089447344 2.90875636928-1.03089447344 2.34538332432 0 3.6655670608 2.270852704z"
     stroke-opacity=".839768"
     fill="#5b5955"
     stroke="#4d4d4d"
     stroke-width=".10323339002"
     id="path4" />
  <g
     inkscape:groupmode="layer"
     id="layer1"
     inkscape:label="Layer 1"
     transform="matrix(1.0434782,0,0,0.99995382,-3.0982604,0.34754648)"
     style="display:inline">
    <path
       fill="url(#mainGradientLeft)"
       fill-opacity="1"
       d="m 30.375569,3.6979 c -10.67538,0 -19.330291,9.382231 -19.330291,20.954722 0,11.57249 8.654911,20.954722 19.330291,20.954722 1.239104,0 2.450267,-0.126056 3.624431,-0.368345 a 18.98295,20.578192 0 0 0 2.694989,-0.777617 c 7.521448,-2.819147 12.937708,-10.530402 13.009967,-19.623605 0,-0.06139 9.03e-4,-0.123764 9.03e-4,-0.185155 0,-0.06139 -9.03e-4,-0.123764 -9.03e-4,-0.184827 -0.09114,-7.148508 -5.464355,-12.911875 -12.080527,-12.911875 -1.262434,0 -2.480619,0.210366 -3.624429,0.599175 4.902191,1.669011 8.457003,6.632824 8.457003,12.497527 0,5.864703 -3.554812,10.828516 -8.457003,12.497526 -1.143811,0.388809 -2.361996,0.599174 -3.624431,0.599174 -6.61617,0 -11.989385,-5.763365 -12.080827,-12.911545 -6.04e-4,-0.06139 -6.04e-4,-0.123764 -6.04e-4,-0.185155 0,-0.06139 0,-0.123764 6.04e-4,-0.184827 0.07248,-9.093532 5.48882,-16.8047047 13.010193,-19.6239341 A 18.98295,20.578192 0 0 1 34,4.0662452 C 35.174164,3.8239557 36.385327,3.6979 37.624429,3.6979 Z m 0,0"
       stroke="#4d4d4d"
       stroke-opacity="0.61"
       stroke-width="0.0905556"
       stroke-dasharray="none"
       opacity="1"
       id="leftmost"
       style="fill:url(#mainGradientLeft)" />
    <path
       fill="url(#mainGradientRight)"
       fill-opacity="1"
       fill-rule="nonzero"
       d="M 34,4.0662452 A 18.98295,20.578192 0 0 0 31.30501,4.8438619 C 23.783562,7.6630084 18.367306,15.374263 18.294742,24.467795 c -6.04e-4,0.06106 -6.04e-4,0.123435 -6.04e-4,0.184827 0,0.06138 0,0.123763 6.04e-4,0.185155 0.09136,7.14818 5.464581,12.911545 12.080827,12.911545 1.262435,0 2.48062,-0.210365 3.624431,-0.599174 -4.902193,-1.66901 -8.457004,-6.632823 -8.457004,-12.497526 0,-5.864703 3.554811,-10.828516 8.457004,-12.497527 1.14381,-0.388809 2.361995,-0.599175 3.624429,-0.599175 6.616172,0 11.989387,5.763367 12.080527,12.911875 0,0.06106 9.03e-4,0.123435 9.03e-4,0.184827 0,0.06138 -9.03e-4,0.123763 -9.03e-4,0.185155 -0.07224,9.093203 -5.488519,16.804458 -13.009967,19.623605 A 18.98295,20.578192 0 0 1 34,45.238999 c -1.174164,0.242289 -2.385327,0.368345 -3.624431,0.368345 h 7.24886 c 10.675382,0 19.330294,-9.382232 19.330294,-20.954722 C 56.954723,13.080131 48.299811,3.6979 37.624429,3.6979 36.385327,3.6979 35.174164,3.8239557 34,4.0662452"
       stroke="#4d4d4d"
       stroke-opacity="0.61"
       stroke-width="0.0905556"
       stroke-dasharray="none"
       opacity="1"
       id="rightmost"
       style="fill:url(#mainGradientRight)" />
  </g>
</svg>
