<?xml version="1.0" encoding="UTF-8" standalone="no"?>
<svg
   width="90"
   height="90"
   version="1.1"
   id="svg1"
   sodipodi:docname="orpheus-harp-ccc.svg"
   inkscape:version="1.3.2 (091e20e, 2023-11-25)"
   xmlns:inkscape="http://www.inkscape.org/namespaces/inkscape"
   xmlns:sodipodi="http://sodipodi.sourceforge.net/DTD/sodipodi-0.dtd"
   xmlns="http://www.w3.org/2000/svg"
   xmlns:svg="http://www.w3.org/2000/svg">
  <defs
     id="defs1" />
  <sodipodi:namedview
     id="namedview1"
     pagecolor="#ffffff"
     bordercolor="#000000"
     borderopacity="0.25"
     inkscape:showpageshadow="2"
     inkscape:pageopacity="0.0"
     inkscape:pagecheckerboard="0"
     inkscape:deskcolor="#d1d1d1"
     inkscape:zoom="2.6222222"
     inkscape:cx="44.809322"
     inkscape:cy="44.809322"
     inkscape:window-width="1032"
     inkscape:window-height="694"
     inkscape:window-x="0"
     inkscape:window-y="25"
     inkscape:window-maximized="0"
     inkscape:current-layer="svg1" />
  <path
     d="M19.207649 22.421924h51.6v3.42h-51.6zm24.66-8.09h2.28v7.01h-2.28zm1.14 52.5l1.14-.01v-39.9h-2.28v39.9l1.14.02zm-15.82-49.61h2.27v4.13h-2.27zm2.27 45.95v-36.25h-2.27v34.2a14.2 14.2 0 0 0 2.27 2.04zm5.07-47.39h2.28v5.57h-2.28zm2.28 50.48v-39.34h-2.28v38.75c.73.23 1.48.42 2.28.58zm12.4-50.48h2.28v5.57h-2.28zm2.28 49.9v-38.76h-2.28v39.33l2.28-.58zm5.07-48.46h2.27v4.13h-2.27zm2.27 43.92v-34.22h-2.27v36.24c.83-.6 1.59-1.28 2.27-2.03zm-46.199999-35.65l-.06-.59-.18-1.69-.08-.8a2.86 2.86 0 0 1-2.4-1.2c-.57-.82-.56-1.86-.38-2.8a4.7 4.7 0 0 1 3.86-3.8c2-.35 4.099999.39 5.399999 1.95 1.16 1.37 1.4 3.07 1.33 4.8h5.31v-.08a12.8 12.8 0 0 0-1.12-5.42 10.57 10.57 0 0 0-3.98-4.42c-3.46-2.1200005-8.179999-2.1000005-11.429999.43-3.1700005 2.48-4.6000005 7.7-2.1500005 11.15a6.26 6.26 0 0 0 5.2600005 2.61c.17-.01.63.07.61-.15zm57.479999 6.73l-2.02-3.8-.7-1.5h-5.93c.37 1.23.84 2.42 1.36 3.6 3.04 12.1 6.31 37.4-19.81 37.4s-22.85-25.3-19.8-37.4c.5-1.18.97-2.37 1.34-3.6h-5.86c-.74 1.68-1.66 3.28-2.51 4.85a44.2 44.2 0 0 0-4.769999 12.26c-1.8 8.74.19 18.1 5.999999 24.96 5.5 6.53 13.73 10.2 22.15 10.95 8.44.75 17.26-1.24 24.12-6.32a28.6 28.6 0 0 0 8.24-9.46c2.1-3.92 3.2-8.31 3.34-12.74a33.7 33.7 0 0 0-2.35-13.18 52.2 52.2 0 0 0-2.8-6.02zm4.94-21.56c-3.8-1.5800005-8.3-.62-11.22 2.26-2.29 2.26-3.21 5.32-3.23 8.43h5.32c-.08-1.4.08-2.84.8-4.06a5.75 5.75 0 0 1 4.88-2.77 4.8 4.8 0 0 1 4.66 3.02c.33.85.5 1.9.27 2.8-.24.95-1 1.7-1.94 1.96-.1.04-.86.12-.87.15l-.05.47-.17 1.67-.06.68c0 .05-.06.26-.04.3 1.06.16 2.15.02 3.13-.37a6.34 6.34 0 0 0 3.74-4.32 8.95 8.95 0 0 0-5.22-10.22z"
     id="path1"
     style="fill:#cccccc;fill-opacity:1" />
</svg>
