<svg xmlns="http://www.w3.org/2000/svg" xmlns:xlink="http://www.w3.org/1999/xlink" width="200" height="50"><defs><linearGradient id="a" x1="81.575" x2="81.785" y1="195.583" y2="-1.725" gradientUnits="userSpaceOnUse"><stop offset="0" stop-color="#fdfdfd"/><stop offset=".207" stop-color="#e6e8e8"/><stop offset=".896" stop-color="#556360"/><stop offset="1" stop-color="#303835"/></linearGradient></defs><path fill="#5b5955" stroke="#4d4d4d" stroke-opacity=".84" stroke-width=".103" d="M68.552 25.467q0-2.845 2.1-4.888 2.092-2.042 5.025-2.042 2.902 0 4.976 2.059 2.082 2.062 2.082 4.95 0 2.91-2.091 4.936-2.102 2.035-5.07 2.035-2.629 0-4.72-1.807-2.302-2.001-2.302-5.24zm2.065.029q0 2.235 1.51 3.676 1.505 1.442 3.473 1.442 2.135 0 3.603-1.466 1.467-1.487 1.467-3.619 0-2.155-1.45-3.614-1.442-1.466-3.567-1.466-2.118 0-3.578 1.466-1.458 1.45-1.458 3.58zm25.622 1.028 4.203 5.748h-2.505l-3.876-5.52h-.37v5.52h-2.048V18.787h2.4q2.69 0 3.884 1.004 1.318 1.12 1.318 2.953 0 1.433-.825 2.463-.827 1.031-2.18 1.32zm-2.548-1.545h.653q2.906 0 2.906-2.21 0-2.067-2.83-2.067h-.73zm17.17 1.817v5.479h-2.049V18.787h2.322q1.704 0 2.575.237.877.236 1.547.89 1.168 1.136 1.168 2.866 0 1.85-1.248 2.932-1.25 1.084-3.365 1.084zm0-1.887h.763q2.822 0 2.822-2.155 0-2.09-2.909-2.09h-.677zm16.052-.845h5.851v-5.277h2.05v13.485h-2.047v-6.296h-5.852v6.296h-2.05V18.787h2.048zm24.975-3.365h-5.44v3.242h5.28v1.913h-5.28v4.506h5.44v1.912h-7.489V18.787h7.489zm11.069-1.912v8.122q0 1.74.57 2.542.854 1.163 2.4 1.163 1.556 0 2.407-1.163.573-.776.573-2.54v-8.124h2.046v8.68q0 2.13-1.335 3.51-1.504 1.538-3.692 1.538t-3.68-1.538q-1.337-1.38-1.337-3.508v-8.682zm25.255 2.009-1.661.98q-.467-.805-.887-1.05-.44-.279-1.137-.279-.851 0-1.414.48-.561.472-.561 1.188 0 .987 1.475 1.59l1.354.55q1.654.664 2.418 1.625.764.952.764 2.34 0 1.86-1.248 3.077-1.257 1.22-3.12 1.22-1.767 0-2.918-1.038-1.134-1.04-1.414-2.927l2.072-.454q.143 1.187.493 1.642.634.874 1.845.874.958 0 1.591-.639.634-.637.634-1.615 0-.394-.114-.716-.106-.332-.343-.6-.23-.282-.597-.517-.37-.245-.88-.464l-1.309-.54q-2.788-1.171-2.788-3.425 0-1.519 1.17-2.542 1.169-1.031 2.91-1.031 2.345 0 3.665 2.27z"/><g stroke-width=".406" transform="matrix(.28298 0 0 .2605 6.663 4.095)"><path id="b" fill="url(#a)" fill-rule="evenodd" stroke="#423d3d" stroke-dasharray="none" stroke-opacity=".55" stroke-width=".406" d="M95.705 32.442c33.178-10.126 55.325 18.448 54.898 52.788-.785 63.043-54.875 74.77-65.239 74.77-40.892 0-69.836-33.796-69.836-80.036 0-39.185 20.232-69.824 56.05-79.333L73.291.15c.543-.138 1.784-.283 2.642-.299l.872-.01c8.916-.036 13.336.533 30.448.74C88.58.648 41.03 19.763 41.03 78.25c0 38.141 30.413 58.96 54.792 49.138 10.914-4.397 29.232-17.484 29.232-47.171-.286-36.194-25.563-47.292-29.349-47.776z"/><use xlink:href="#b" fill="#3f3a3a" stroke="#3f3a3a" transform="rotate(180 95.278 80.25)"/></g></svg>