<?xml version="1.0" encoding="UTF-8" standalone="no"?>
<svg
   width="200"
   height="50"
   version="1.1"
   id="svg5"
   sodipodi:docname="ops-2025-logo-lockup-darkmode.svg"
   xml:space="preserve"
   inkscape:version="1.3.2 (091e20e, 2023-11-25)"
   xmlns:inkscape="http://www.inkscape.org/namespaces/inkscape"
   xmlns:sodipodi="http://sodipodi.sourceforge.net/DTD/sodipodi-0.dtd"
   xmlns:xlink="http://www.w3.org/1999/xlink"
   xmlns="http://www.w3.org/2000/svg"
   xmlns:svg="http://www.w3.org/2000/svg"><sodipodi:namedview
     id="namedview5"
     pagecolor="#ffffff"
     bordercolor="#000000"
     borderopacity="0.25"
     inkscape:showpageshadow="2"
     inkscape:pageopacity="0.0"
     inkscape:pagecheckerboard="0"
     inkscape:deskcolor="#d1d1d1"
     inkscape:zoom="3.3837323"
     inkscape:cx="100.18523"
     inkscape:cy="29.257633"
     inkscape:window-width="1440"
     inkscape:window-height="847"
     inkscape:window-x="0"
     inkscape:window-y="25"
     inkscape:window-maximized="1"
     inkscape:current-layer="svg5" /><defs
     id="defs4"><linearGradient
       id="A"
       x1="81.574745"
       y1="158.40421"
       x2="81.784531"
       y2="-1.7247574"
       gradientUnits="userSpaceOnUse"><stop
         offset="0"
         stop-color="#fdfdfd"
         id="stop1" /><stop
         offset=".20693555"
         stop-color="#e6e8e8"
         id="stop2" /><stop
         offset=".89551342"
         stop-color="#556360"
         id="stop3" /><stop
         stop-color="#303835"
         offset="1"
         id="stop4" /></linearGradient><style
       id="style1">.cls-1{fill:url(#linear-gradient-5);}.cls-2{fill:url(#linear-gradient-4);}.cls-3{fill:url(#linear-gradient-3);}.cls-4{fill:url(#linear-gradient-2);}.cls-5{fill:url(#linear-gradient);}</style><linearGradient
       id="linear-gradient"
       x1="352"
       y1="512"
       x2="352"
       y2="0"
       gradientUnits="userSpaceOnUse"><stop
         offset="0"
         stop-color="#010101"
         stop-opacity=".9"
         id="stop1-9" /><stop
         offset=".43"
         stop-color="#212121"
         stop-opacity=".8"
         id="stop2-3" /><stop
         offset=".77"
         stop-color="#898989"
         stop-opacity=".47"
         id="stop3-8" /><stop
         offset="1"
         stop-color="#fff"
         stop-opacity=".1"
         id="stop4-0" /></linearGradient><linearGradient
       id="linear-gradient-2"
       x1="256"
       y1="-47.79"
       x2="256"
       y2="521.71"
       gradientUnits="userSpaceOnUse"><stop
         offset="0"
         stop-color="#081a16"
         stop-opacity=".9"
         id="stop5" /><stop
         offset=".48"
         stop-color="#33413e"
         stop-opacity=".76"
         id="stop6" /><stop
         offset=".87"
         stop-color="#b9bfbd"
         stop-opacity=".32"
         id="stop7" /><stop
         offset="1"
         stop-color="#fff"
         stop-opacity=".1"
         id="stop8" /></linearGradient><linearGradient
       id="linear-gradient-3"
       x1="352"
       y1="512"
       x2="352"
       y2="0"
       xlink:href="#linear-gradient-2" /><linearGradient
       id="linear-gradient-4"
       x1="256"
       y1="559.79"
       x2="256"
       y2="-9.71"
       gradientUnits="userSpaceOnUse"><stop
         offset="0"
         stop-color="#fff"
         stop-opacity=".9"
         id="stop9" /><stop
         offset=".18"
         stop-color="#fff"
         stop-opacity=".89"
         id="stop10" /><stop
         offset=".32"
         stop-color="#fff"
         stop-opacity=".85"
         id="stop11" /><stop
         offset=".45"
         stop-color="#fff"
         stop-opacity=".78"
         id="stop12" /><stop
         offset=".58"
         stop-color="#fff"
         stop-opacity=".69"
         id="stop13" /><stop
         offset=".69"
         stop-color="#fff"
         stop-opacity=".57"
         id="stop14" /><stop
         offset=".81"
         stop-color="#fff"
         stop-opacity=".42"
         id="stop15" /><stop
         offset=".92"
         stop-color="#fff"
         stop-opacity=".25"
         id="stop16" /><stop
         offset="1"
         stop-color="#fff"
         stop-opacity=".1"
         id="stop17" /></linearGradient><linearGradient
       id="linear-gradient-5"
       x1="352"
       y1="0"
       x2="352"
       y2="512"
       xlink:href="#linear-gradient-4" /><linearGradient
       inkscape:collect="always"
       xlink:href="#linear-gradient-2"
       id="linearGradient6"
       gradientUnits="userSpaceOnUse"
       x1="256"
       y1="-47.79"
       x2="256"
       y2="521.71" /><linearGradient
       inkscape:collect="always"
       xlink:href="#linear-gradient-4"
       id="linearGradient7"
       gradientUnits="userSpaceOnUse"
       x1="256"
       y1="559.79"
       x2="256"
       y2="-9.71" /></defs><path
     d="m 68.55161,24.94594 q 0,-2.844778 2.10088,-4.887056 2.091209,-2.042282 5.023738,-2.042282 2.901101,0 4.975387,2.059099 2.081539,2.061502 2.081539,4.949527 0,2.909652 -2.091209,4.935113 -2.10088,2.035072 -5.069671,2.035072 -2.627916,0 -4.719126,-1.806817 -2.301538,-2.001437 -2.301538,-5.240253 z m 2.064615,0.02883 q 0,2.234496 1.510991,3.676107 1.503738,1.441608 3.471649,1.441608 2.134728,0 3.602201,-1.465635 1.467473,-1.487262 1.467473,-3.618442 0,-2.155208 -1.450549,-3.613636 -1.440881,-1.465638 -3.565936,-1.465638 -2.117804,0 -3.578024,1.465638 -1.457805,1.448818 -1.457805,3.579998 z m 25.619135,1.028348 4.20176,5.747219 h -2.504617 l -3.875386,-5.518964 h -0.36989 V 31.75034 H 91.639533 V 18.266481 h 2.400662 q 2.688353,0 3.882637,1.004321 1.317584,1.11965 1.317584,2.952899 0,1.431998 -0.824396,2.462749 -0.826812,1.030751 -2.18066,1.319074 z m -2.548133,-1.544924 h 0.652748 q 2.905935,0 2.905935,-2.210468 0,-2.066309 -2.828572,-2.066309 h -0.730111 z m 17.167263,1.816427 V 31.75274 H 108.8068 V 18.266481 h 2.32088 q 1.70439,0 2.57472,0.237866 0.87759,0.235462 1.54726,0.888991 1.16769,1.13647 1.16769,2.866401 0,1.850067 -1.24747,2.931276 -1.2499,1.083609 -3.36528,1.083609 z m 0,-1.886105 h 0.76396 q 2.82131,0 2.82131,-2.155207 0,-2.090336 -2.90835,-2.090336 h -0.67692 z m 16.05034,-0.845746 h 5.85055 v -5.276292 h 2.05011 V 31.75034 h -2.04769 v -6.295029 h -5.85056 v 6.295029 h -2.05011 V 18.266481 h 2.0477 z m 24.97122,-3.363756 h -5.43956 v 3.24122 h 5.28 v 1.912535 h -5.28 v 4.505033 h 5.43956 v 1.912535 h -7.48726 V 18.266481 h 7.48726 z m 11.0677,-1.912536 v 8.121069 q 0,1.739544 0.57054,2.54204 0.85341,1.162898 2.39825,1.162898 1.55692,0 2.40791,-1.162898 0.57297,-0.776068 0.57297,-2.539637 v -8.123472 h 2.04528 v 8.678492 q 0,2.131181 -1.33451,3.51032 -1.50374,1.537719 -3.69165,1.537719 -2.18791,0 -3.67956,-1.537719 -1.33693,-1.379139 -1.33693,-3.507917 v -8.680895 z m 25.25166,2.008644 -1.66088,0.980294 q -0.4666,-0.804899 -0.88726,-1.049972 -0.44,-0.278713 -1.13626,-0.278713 -0.85099,0 -1.41429,0.480538 -0.56088,0.470925 -0.56088,1.186925 0,0.987503 1.47473,1.590577 l 1.35385,0.550214 q 1.65363,0.663142 2.41758,1.624214 0.76396,0.951463 0.76396,2.340215 0,1.859675 -1.24748,3.075433 -1.25714,1.220563 -3.11868,1.220563 -1.76725,0 -2.91802,-1.037958 -1.13385,-1.040362 -1.41429,-2.926469 l 2.07187,-0.454108 q 0.14264,1.186928 0.49319,1.641035 0.63341,0.874575 1.84461,0.874575 0.95737,0 1.59077,-0.639112 0.63341,-0.636712 0.63341,-1.614605 0,-0.394039 -0.11363,-0.716 -0.10637,-0.331568 -0.34329,-0.600671 -0.22967,-0.281113 -0.59715,-0.516576 -0.36989,-0.245072 -0.88,-0.463717 l -1.30791,-0.540603 q -2.78747,-1.170108 -2.78747,-3.423825 0,-1.518495 1.17011,-2.542039 1.16769,-1.030751 2.90835,-1.030751 2.34506,0 3.66506,2.270536 z"
     stroke-opacity="0.839768"
     fill="#d2c6bc"
     stroke="#4d4d4d"
     stroke-width="0.103219"
     id="path4"
     style="stroke-width:0.1;stroke-dasharray:none" /><g
     id="Layer_1-2"
     transform="matrix(0.078125,0,0,0.08203125,9,4)"><path
       class="cls-5"
       d="m 608,256 c 0,141.38 -114.62,256 -256,256 h -96 c 16.41,0 32.45,-1.54 48,-4.5 12.23,-2.31 24.15,-5.5 35.69,-9.5 99.61,-34.44 171.34,-128.65 172.3,-239.74 0,-0.75 0.01,-1.51 0.01,-2.26 0,-0.75 -0.01,-1.51 -0.01,-2.26 C 510.78,166.41 439.62,96 352,96 c -16.72,0 -32.85,2.57 -48,7.32 -64.92,20.39 -112,81.03 -112,152.68 0,71.65 47.08,132.29 112,152.68 C 288.85,413.43 272.72,416 256,416 168.38,416 97.22,345.59 96.01,258.26 96,257.51 96,256.75 96,256 c 0,-0.75 0,-1.51 0.01,-2.26 C 96.97,142.65 168.7,48.44 268.31,14 279.85,10 291.77,6.81 304,4.5 319.55,1.54 335.59,0 352,0 493.38,0 608,114.62 608,256 Z"
       id="path17"
       style="fill:url(#linear-gradient)" /><path
       class="cls-4"
       d="m 512,256 c 0,0.75 -0.01,1.51 -0.01,2.26 -0.96,111.09 -72.69,205.3 -172.3,239.74 -11.54,4 -23.46,7.19 -35.69,9.5 -15.55,2.96 -31.59,4.5 -48,4.5 C 114.62,512 0,397.38 0,256 0,114.62 114.62,0 256,0 h 96 C 335.59,0 319.55,1.54 304,4.5 291.77,6.81 279.85,10 268.31,14 168.7,48.44 96.97,142.65 96.01,253.74 96,254.49 96,255.25 96,256 c 0,0.75 0,1.51 0.01,2.26 C 97.22,345.59 168.38,416 256,416 c 16.72,0 32.85,-2.57 48,-7.32 C 368.92,388.29 416,327.65 416,256 416,184.35 368.92,123.71 304,103.32 319.15,98.57 335.28,96 352,96 c 87.62,0 158.78,70.41 159.99,157.74 0,0.75 0.01,1.51 0.01,2.26 z"
       id="path18"
       style="fill:url(#linearGradient6)" /><path
       class="cls-3"
       d="m 608,256 c 0,141.38 -114.62,256 -256,256 h -96 c 16.41,0 32.45,-1.54 48,-4.5 12.23,-2.31 24.15,-5.5 35.69,-9.5 99.61,-34.44 171.34,-128.65 172.3,-239.74 0,-0.75 0.01,-1.51 0.01,-2.26 0,-0.75 -0.01,-1.51 -0.01,-2.26 C 510.78,166.41 439.62,96 352,96 c -16.72,0 -32.85,2.57 -48,7.32 -64.92,20.39 -112,81.03 -112,152.68 0,71.65 47.08,132.29 112,152.68 C 288.85,413.43 272.72,416 256,416 168.38,416 97.22,345.59 96.01,258.26 96,257.51 96,256.75 96,256 c 0,-0.75 0,-1.51 0.01,-2.26 C 96.97,142.65 168.7,48.44 268.31,14 279.85,10 291.77,6.81 304,4.5 319.55,1.54 335.59,0 352,0 493.38,0 608,114.62 608,256 Z"
       id="path19"
       style="fill:url(#linear-gradient-3)" /><path
       class="cls-2"
       d="m 512,256 c 0,0.75 -0.01,1.51 -0.01,2.26 -0.96,111.09 -72.69,205.3 -172.3,239.74 -11.54,4 -23.46,7.19 -35.69,9.5 -15.55,2.96 -31.59,4.5 -48,4.5 C 114.62,512 0,397.38 0,256 0,114.62 114.62,0 256,0 h 96 C 335.59,0 319.55,1.54 304,4.5 291.77,6.81 279.85,10 268.31,14 168.7,48.44 96.97,142.65 96.01,253.74 96,254.49 96,255.25 96,256 c 0,0.75 0,1.51 0.01,2.26 C 97.22,345.59 168.38,416 256,416 c 16.72,0 32.85,-2.57 48,-7.32 C 368.92,388.29 416,327.65 416,256 416,184.35 368.92,123.71 304,103.32 319.15,98.57 335.28,96 352,96 c 87.62,0 158.78,70.41 159.99,157.74 0,0.75 0.01,1.51 0.01,2.26 z"
       id="path20"
       style="fill:url(#linearGradient7)" /><path
       class="cls-1"
       d="m 608,256 c 0,141.38 -114.62,256 -256,256 h -96 c 16.41,0 32.45,-1.54 48,-4.5 12.23,-2.31 24.15,-5.5 35.69,-9.5 99.61,-34.44 171.34,-128.65 172.3,-239.74 0,-0.75 0.01,-1.51 0.01,-2.26 0,-0.75 -0.01,-1.51 -0.01,-2.26 C 510.78,166.41 439.62,96 352,96 c -16.72,0 -32.85,2.57 -48,7.32 -64.92,20.39 -112,81.03 -112,152.68 0,71.65 47.08,132.29 112,152.68 C 288.85,413.43 272.72,416 256,416 168.38,416 97.22,345.59 96.01,258.26 96,257.51 96,256.75 96,256 c 0,-0.75 0,-1.51 0.01,-2.26 C 96.97,142.65 168.7,48.44 268.31,14 279.85,10 291.77,6.81 304,4.5 319.55,1.54 335.59,0 352,0 493.38,0 608,114.62 608,256 Z"
       id="path21"
       style="fill:url(#linear-gradient-5)" /></g><path
     id="path27"
     style="fill:none;stroke-width:0.3;stroke:#4d4d4d;stroke-dasharray:none;stroke-opacity:0.83999997"
     class="cls-5"
     d="M 29 4 C 17.954698 4 9 13.402434 9 25 C 9 36.597566 17.954698 46 29 46 L 36.5 46 C 47.545302 46 56.5 36.597566 56.5 25 C 56.5 13.402434 47.545302 4 36.5 4 L 29 4 z M 32.75 12.474609 C 37.82187 14.147225 41.5 19.122467 41.5 25 C 41.5 30.510187 38.266776 35.225658 33.683594 37.171875 C 33.378048 37.301623 33.066992 37.420852 32.75 37.525391 C 27.67813 35.852775 24 30.877533 24 25 C 24 24.632654 24.014791 24.267907 24.042969 23.908203 C 24.465633 18.512639 27.995122 14.042686 32.75 12.474609 z " /><g
     id="g26"
     transform="matrix(0.078125,0,0,0.08203125,9,4)"
     style="stroke-width:1.24915209;stroke-dasharray:none"><path
       class="cls-5"
       d="m 608,256 c 0,141.38 -114.62,256 -256,256 h -96 c 16.41,0 32.45,-1.54 48,-4.5 12.23,-2.31 24.15,-5.5 35.69,-9.5 99.61,-34.44 171.34,-128.65 172.3,-239.74 0,-0.75 0.01,-1.51 0.01,-2.26 0,-0.75 -0.01,-1.51 -0.01,-2.26 C 510.78,166.41 439.62,96 352,96 c -16.72,0 -32.85,2.57 -48,7.32 -64.92,20.39 -112,81.03 -112,152.68 0,71.65 47.08,132.29 112,152.68 C 288.85,413.43 272.72,416 256,416 168.38,416 97.22,345.59 96.01,258.26 96,257.51 96,256.75 96,256 c 0,-0.75 0,-1.51 0.01,-2.26 C 96.97,142.65 168.7,48.44 268.31,14 279.85,10 291.77,6.81 304,4.5 319.55,1.54 335.59,0 352,0 493.38,0 608,114.62 608,256 Z"
       id="path22"
       style="fill:url(#linear-gradient);stroke-width:1.24915209;stroke-dasharray:none" /><path
       class="cls-4"
       d="m 512,256 c 0,0.75 -0.01,1.51 -0.01,2.26 -0.96,111.09 -72.69,205.3 -172.3,239.74 -11.54,4 -23.46,7.19 -35.69,9.5 -15.55,2.96 -31.59,4.5 -48,4.5 C 114.62,512 0,397.38 0,256 0,114.62 114.62,0 256,0 h 96 C 335.59,0 319.55,1.54 304,4.5 291.77,6.81 279.85,10 268.31,14 168.7,48.44 96.97,142.65 96.01,253.74 96,254.49 96,255.25 96,256 c 0,0.75 0,1.51 0.01,2.26 C 97.22,345.59 168.38,416 256,416 c 16.72,0 32.85,-2.57 48,-7.32 C 368.92,388.29 416,327.65 416,256 416,184.35 368.92,123.71 304,103.32 319.15,98.57 335.28,96 352,96 c 87.62,0 158.78,70.41 159.99,157.74 0,0.75 0.01,1.51 0.01,2.26 z"
       id="path23"
       style="fill:url(#linearGradient6);stroke-width:1.24915209;stroke-dasharray:none" /><path
       class="cls-3"
       d="m 608,256 c 0,141.38 -114.62,256 -256,256 h -96 c 16.41,0 32.45,-1.54 48,-4.5 12.23,-2.31 24.15,-5.5 35.69,-9.5 99.61,-34.44 171.34,-128.65 172.3,-239.74 0,-0.75 0.01,-1.51 0.01,-2.26 0,-0.75 -0.01,-1.51 -0.01,-2.26 C 510.78,166.41 439.62,96 352,96 c -16.72,0 -32.85,2.57 -48,7.32 -64.92,20.39 -112,81.03 -112,152.68 0,71.65 47.08,132.29 112,152.68 C 288.85,413.43 272.72,416 256,416 168.38,416 97.22,345.59 96.01,258.26 96,257.51 96,256.75 96,256 c 0,-0.75 0,-1.51 0.01,-2.26 C 96.97,142.65 168.7,48.44 268.31,14 279.85,10 291.77,6.81 304,4.5 319.55,1.54 335.59,0 352,0 493.38,0 608,114.62 608,256 Z"
       id="path24"
       style="fill:url(#linear-gradient-3);stroke-width:1.24915209;stroke-dasharray:none" /><path
       class="cls-2"
       d="m 512,256 c 0,0.75 -0.01,1.51 -0.01,2.26 -0.96,111.09 -72.69,205.3 -172.3,239.74 -11.54,4 -23.46,7.19 -35.69,9.5 -15.55,2.96 -31.59,4.5 -48,4.5 C 114.62,512 0,397.38 0,256 0,114.62 114.62,0 256,0 h 96 C 335.59,0 319.55,1.54 304,4.5 291.77,6.81 279.85,10 268.31,14 168.7,48.44 96.97,142.65 96.01,253.74 96,254.49 96,255.25 96,256 c 0,0.75 0,1.51 0.01,2.26 C 97.22,345.59 168.38,416 256,416 c 16.72,0 32.85,-2.57 48,-7.32 C 368.92,388.29 416,327.65 416,256 416,184.35 368.92,123.71 304,103.32 319.15,98.57 335.28,96 352,96 c 87.62,0 158.78,70.41 159.99,157.74 0,0.75 0.01,1.51 0.01,2.26 z"
       id="path25"
       style="fill:url(#linearGradient7);stroke-width:1.24915209;stroke-dasharray:none" /><path
       class="cls-1"
       d="m 608,256 c 0,141.38 -114.62,256 -256,256 h -96 c 16.41,0 32.45,-1.54 48,-4.5 12.23,-2.31 24.15,-5.5 35.69,-9.5 99.61,-34.44 171.34,-128.65 172.3,-239.74 0,-0.75 0.01,-1.51 0.01,-2.26 0,-0.75 -0.01,-1.51 -0.01,-2.26 C 510.78,166.41 439.62,96 352,96 c -16.72,0 -32.85,2.57 -48,7.32 -64.92,20.39 -112,81.03 -112,152.68 0,71.65 47.08,132.29 112,152.68 C 288.85,413.43 272.72,416 256,416 168.38,416 97.22,345.59 96.01,258.26 96,257.51 96,256.75 96,256 c 0,-0.75 0,-1.51 0.01,-2.26 C 96.97,142.65 168.7,48.44 268.31,14 279.85,10 291.77,6.81 304,4.5 319.55,1.54 335.59,0 352,0 493.38,0 608,114.62 608,256 Z"
       id="path26"
       style="fill:url(#linear-gradient-5);stroke-width:1.24915209;stroke-dasharray:none" /></g></svg>
