<svg xmlns="http://www.w3.org/2000/svg" fill="#000000" height="90" width="90" xmlns:v="https://vecta.io/nano"><path d="M63.9540037 39.291533l.76-.7609375 19.58671875-19.58859375c.9325-.9325.9325-2.44625 0-3.37875s-2.444375-.93234375-3.37671875.00015625L62.2430662 34.2443455l-.00109375.00109375-2.2775 2.2775-.00234375.00234375-11.86375-20.54796875c-1.1740625-2.03296875-3.15921875-3.34984375-5.43375-3.64984375-.3284375-.0434375-.663125-.065625-1.00203125-.065625-2.68640625 0-5.09234375 1.3890625-6.435625 3.71546875L6.00759745 66.584658v.00015625c-1.3434375 2.32671875-1.3434375 5.10765625-.00015625 7.43453125s3.74921875 3.71890625 6.43578125 3.71890625H70.8818162c2.68671875 0 5.09265625-1.3921875 6.43578125-3.71875.6725-1.16453125 1.008125-2.43109375 1.0075-3.71296875s-.33640625-2.55015625-1.0075-3.71234375L62.4343162 40.81137675l.003125-.00125zm6.64671875 29.66203125c.13984375.2421875.2090625.52234375.20828125.8021875s-.07.57484375-.20828125.81421875c-.278125.481875-.7921875.8378125-1.34859375.8378125H14.07290995c-.55640625 0-1.0703125-.35609375-1.34859375-.8378125-.14-.24234375-.2090625-.52828125-.20828125-.8034375s.07-.5490625.20828125-.78875l27.58953125-47.79671875c.278125-.481875.7921875-.78453125 1.34859375-.78453125s1.0703125.29375 1.34859375.775625L54.8361912 41.65168925l.0003125.00046875-8.3509375 8.35046875-.0003125.0003125c.6853125.35390625 1.32.81390625 1.8809375 1.375.6121875.6121875 1.0953125 1.305 1.45296875 2.04375l.11015625-.11015625 7.37921875-7.379375zm-23.7028125-16.1078125c-.5815625-.581875-1.261875-1.0040625-1.986875-1.269375-.19125-.07-.385-.13015625-.58140625-.178125-.4278125-.104375-.86578125-.1565625-1.30390625-.1565625l-.23765625.005625-.09515625.005625c-.2690625.01625-.53703125.0525-.80171875.10828125-.99875.21046875-1.94984375.70125-2.72703125 1.47421875l-.010625.01015625c-.200625.200625-.3821875.41265625-.54515625.63421875l-.1565625.22484375c-1.1028125 1.67015625-1.194375 3.81125-.275625 5.55984375.1253125.2384375.269375.46953125.43234375.69125s.34453125.43390625.54515625.634375c.8928125.8928125 2.01734375 1.41140625 3.18015625 1.55890625l.35921875.03375.3328125.01125c.438125 0 .8759375-.05234375 1.30390625-.1565625.94125-.2296875 1.83328125-.7121875 2.5684375-1.44734375.13359375-.13359375.2590625-.2725.37578125-.41578125 1.75421875-2.15109375 1.62890625-5.32375-.37609375-7.32859375z"/></svg>