<svg xmlns="http://www.w3.org/2000/svg" xmlns:xlink="http://www.w3.org/1999/xlink" width="50" height="50"><defs><linearGradient id="a" x1="76.826" x2="81.785" y1="211.63" y2="-1.725" gradientUnits="userSpaceOnUse"><stop offset="0" stop-color="#fdfdfd"/><stop offset=".207" stop-color="#e6e8e8"/><stop offset=".896" stop-color="#556360"/><stop offset="1" stop-color="#303835"/></linearGradient></defs><g stroke-width=".406" transform="matrix(.28298 0 0 .2605 -2.337 4.095)"><path id="b" fill="url(#a)" fill-rule="evenodd" stroke="#423d3d" stroke-dasharray="none" stroke-opacity=".55" stroke-width=".406" d="M95.705 32.442c33.178-10.126 55.325 18.448 54.898 52.788-.785 63.043-54.875 74.77-65.239 74.77-40.892 0-69.836-33.796-69.836-80.036 0-39.185 20.232-69.824 56.05-79.333L73.291.15c.543-.138 1.784-.283 2.642-.299l.872-.01c8.916-.036 13.336.533 30.448.74C88.58.648 41.03 19.763 41.03 78.25c0 38.141 30.413 58.96 54.792 49.138 10.914-4.397 29.232-17.484 29.232-47.171-.286-36.194-25.563-47.292-29.349-47.776z"/><use xlink:href="#b" fill="#3f3a3a" stroke="#3f3a3a" transform="rotate(180 95.278 80.25)"/></g></svg>