<?xml version="1.0" encoding="UTF-8" standalone="no"?>
<svg
   width="200"
   height="50"
   version="1.1"
   id="svg5"
   sodipodi:docname="ops-logo-lockup-darkmode.svg"
   inkscape:version="1.3.2 (091e20e, 2023-11-25)"
   xmlns:inkscape="http://www.inkscape.org/namespaces/inkscape"
   xmlns:sodipodi="http://sodipodi.sourceforge.net/DTD/sodipodi-0.dtd"
   xmlns:xlink="http://www.w3.org/1999/xlink"
   xmlns="http://www.w3.org/2000/svg"
   xmlns:svg="http://www.w3.org/2000/svg">
  <sodipodi:namedview
     id="namedview5"
     pagecolor="#080808"
     bordercolor="#000000"
     borderopacity="0.25"
     inkscape:showpageshadow="2"
     inkscape:pageopacity="0.0"
     inkscape:pagecheckerboard="true"
     inkscape:deskcolor="#d1d1d1"
     inkscape:zoom="4.0099258"
     inkscape:cx="85.288362"
     inkscape:cy="24.564046"
     inkscape:window-width="1552"
     inkscape:window-height="634"
     inkscape:window-x="0"
     inkscape:window-y="44"
     inkscape:window-maximized="0"
     inkscape:current-layer="layer1" />
  <defs
     id="defs4">
    <linearGradient
       id="mainGradientRight"
       xlink:href="#mainGradientBase"
       gradientUnits="userSpaceOnUse"
       gradientTransform="matrix(-1.0145733,0,0,-0.9978439,64.437197,54.587939)"
       x1="30"
       y1="52"
       x2="30"
       y2="8" />
    <linearGradient
       id="mainGradientBase"
       gradientUnits="userSpaceOnUse"
       spreadMethod="pad">
      <stop
         offset="0"
         stop-color="#fdfdfd"
         id="stop8" />
      <stop
         offset="0.21"
         stop-color="#e6e8e8"
         id="stop7"
         style="stop-color:#e7e9e9;stop-opacity:1;" />
      <stop
         offset="0.90"
         stop-color="#556360"
         id="stop6" />
      <stop
         stop-color="#303835"
         offset="1"
         id="stop5" />
    </linearGradient>
    <linearGradient
       inkscape:collect="always"
       xlink:href="#mainGradientBase"
       id="mainGradientLeft"
       x1="30"
       y1="52"
       x2="30"
       y2="8"
       gradientUnits="userSpaceOnUse"
       gradientTransform="matrix(1.0145733,0,0,0.9978439,3.5627997,-5.282695)" />
  </defs>
  <g
     transform="matrix(.273098 0 0 .273098 -38.16724 -15.811023)"
     id="g5">
    <path
       d="M390.77126 149.23933q0-10.41669 7.69277-17.89488 7.65736-7.4782 18.39537-7.4782 10.62293 0 18.21832 7.53978 7.62195 7.54858 7.62195 18.12363 0 10.65424-7.65736 18.07085-7.69277 7.4518-18.56356 7.4518-9.62261 0-17.27997-6.616-8.42752-7.32864-8.42752-19.18818zm7.55998.10558q0 8.18203 5.53278 13.46076 5.50622 5.27872 12.7121 5.27872 7.81671 0 13.19014-5.3667 5.37343-5.44589 5.37343-13.24961 0-7.8917-5.31146-13.23201-5.27606-5.36671-13.05735-5.36671-7.75474 0-13.10161 5.36671-5.33803 5.30512-5.33803 13.10884zm93.80931 3.76549l15.38554 21.04453h-9.17113L484.1645 153.9462h-1.35442v20.20873h-7.49802v-49.3737h8.79048q9.84391 0 14.21701 3.67751 4.82458 4.09981 4.82458 10.8126 0 5.24353-3.01868 9.01782-3.02753 3.77429-7.9849 4.83004zm-9.33047-5.65703h2.39016q10.64063 0 10.64063-8.09405 0-7.56618-10.35735-7.56618h-2.67344zm62.86118 6.65119v20.05917h-7.49802v-49.3825h8.49834q6.24097 0 9.42785.87099 3.21344.86219 5.66556 3.25521 4.27573 4.1614 4.27573 10.49587 0 6.77437-4.56786 10.73342-4.57671 3.96784-12.32259 3.96784zm0-6.90633h2.79737q10.33079 0 10.33079-7.8917 0-7.65416-10.64948-7.65416h-2.47868zm58.77135-3.09686h21.4229v-19.32014h7.50687v49.3737h-7.49802v-23.05044h-21.4229v23.05044h-7.50687v-49.3737h7.49802zm91.43685-12.31703h-19.91799v11.86834h19.33373v7.00311h-19.33373v16.49603h19.91799v7.00311h-27.41601v-49.3737h27.41601zm40.52647-7.00311v29.73683q0 6.36967 2.08917 9.30816 3.12492 4.25817 8.78162 4.25817 5.70098 0 8.81703-4.25817 2.09803-2.84172 2.09803-9.29936v-29.74563h7.48917v31.77794q0 7.80372-4.88655 12.8537-5.50622 5.63065-13.51768 5.63065-8.01145 0-13.47341-5.63065-4.8954-5.04998-4.8954-12.8449v-31.78674zm92.46373 7.35503l-6.08162 3.58953q-1.70852-2.94729-3.24885-3.84467-1.61114-1.02056-4.16064-1.02056-3.11606 0-5.17868 1.75958-2.05377 1.72438-2.05377 4.34615 0 3.61593 5.39999 5.8242l4.95737 2.01471q6.05507 2.42822 8.85244 5.94737 2.79737 3.48396 2.79737 8.56914 0 6.80955-4.56786 11.26128-4.60327 4.46932-11.41965 4.46932-6.47113 0-10.68489-3.80068-4.1518-3.80948-5.17868-10.71582l7.58654-1.6628q.52229 4.34616 1.8059 6.00896 2.31934 3.20242 6.75441 3.20242 3.50557 0 5.8249-2.34023 2.31934-2.33144 2.31934-5.91218 0-1.44285-.41606-2.62177-.38951-1.2141-1.25705-2.19947-.84098-1.02935-2.18655-1.89154-1.35442-.89738-3.22229-1.69799l-4.78917-1.97952q-10.20686-4.28457-10.20686-12.53698 0-5.56026 4.28458-9.30816 4.27573-3.77429 10.64949-3.77429 8.58686 0 13.42029 8.314z"
       stroke-opacity=".839768"
       fill="#d2c6bc"
       stroke="#4d4d4d"
       stroke-width=".377956"
       id="path4" />
  </g>
  <g
     inkscape:groupmode="layer"
     id="layer1"
     inkscape:label="Layer 1"
     transform="matrix(1.0434782,0,0,0.99995382,-3.0982604,0.34754648)">
    <path
       fill="url(#mainGradientLeft)"
       fill-opacity="1"
       d="m 30.375569,3.6979 c -10.67538,0 -19.330291,9.382231 -19.330291,20.954722 0,11.57249 8.654911,20.954722 19.330291,20.954722 1.239104,0 2.450267,-0.126056 3.624431,-0.368345 a 18.98295,20.578192 0 0 0 2.694989,-0.777617 c 7.521448,-2.819147 12.937708,-10.530402 13.009967,-19.623605 0,-0.06139 9.03e-4,-0.123764 9.03e-4,-0.185155 0,-0.06139 -9.03e-4,-0.123764 -9.03e-4,-0.184827 -0.09114,-7.148508 -5.464355,-12.911875 -12.080527,-12.911875 -1.262434,0 -2.480619,0.210366 -3.624429,0.599175 4.902191,1.669011 8.457003,6.632824 8.457003,12.497527 0,5.864703 -3.554812,10.828516 -8.457003,12.497526 -1.143811,0.388809 -2.361996,0.599174 -3.624431,0.599174 -6.61617,0 -11.989385,-5.763365 -12.080827,-12.911545 -6.04e-4,-0.06139 -6.04e-4,-0.123764 -6.04e-4,-0.185155 0,-0.06139 0,-0.123764 6.04e-4,-0.184827 0.07248,-9.093532 5.48882,-16.8047047 13.010193,-19.6239341 A 18.98295,20.578192 0 0 1 34,4.0662452 C 35.174164,3.8239557 36.385327,3.6979 37.624429,3.6979 Z m 0,0"
       stroke="#4d4d4d"
       stroke-opacity="0.61"
       stroke-width="0.0905556"
       stroke-dasharray="none"
       opacity="1"
       id="leftmost"
       style="fill:url(#mainGradientLeft)" />
    <path
       fill="url(#mainGradientRight)"
       fill-opacity="1"
       fill-rule="nonzero"
       d="M 34,4.0662452 A 18.98295,20.578192 0 0 0 31.30501,4.8438619 C 23.783562,7.6630084 18.367306,15.374263 18.294742,24.467795 c -6.04e-4,0.06106 -6.04e-4,0.123435 -6.04e-4,0.184827 0,0.06138 0,0.123763 6.04e-4,0.185155 0.09136,7.14818 5.464581,12.911545 12.080827,12.911545 1.262435,0 2.48062,-0.210365 3.624431,-0.599174 -4.902193,-1.66901 -8.457004,-6.632823 -8.457004,-12.497526 0,-5.864703 3.554811,-10.828516 8.457004,-12.497527 1.14381,-0.388809 2.361995,-0.599175 3.624429,-0.599175 6.616172,0 11.989387,5.763367 12.080527,12.911875 0,0.06106 9.03e-4,0.123435 9.03e-4,0.184827 0,0.06138 -9.03e-4,0.123763 -9.03e-4,0.185155 -0.07224,9.093203 -5.488519,16.804458 -13.009967,19.623605 A 18.98295,20.578192 0 0 1 34,45.238999 c -1.174164,0.242289 -2.385327,0.368345 -3.624431,0.368345 h 7.24886 c 10.675382,0 19.330294,-9.382232 19.330294,-20.954722 C 56.954723,13.080131 48.299811,3.6979 37.624429,3.6979 36.385327,3.6979 35.174164,3.8239557 34,4.0662452"
       stroke="#4d4d4d"
       stroke-opacity="0.61"
       stroke-width="0.0905556"
       stroke-dasharray="none"
       opacity="1"
       id="rightmost"
       style="fill:url(#mainGradientRight)" />
  </g>
</svg>
