<svg xmlns="http://www.w3.org/2000/svg" xmlns:xlink="http://www.w3.org/1999/xlink" width="200" height="50" viewBox="0 0 200 50" version="2026.01"><defs><linearGradient xlink:href="#a" id="c" x1="30" x2="30" y1="52" y2="8" gradientTransform="matrix(-1.01457 0 0 -.99784 64.437 54.588)" gradientUnits="userSpaceOnUse"/><linearGradient id="a" gradientUnits="userSpaceOnUse" spreadMethod="pad"><stop offset="0" stop-color="#fdfdfd"/><stop offset=".21" style="stop-color:#e7e9e9;stop-opacity:1"/><stop offset=".9" stop-color="#556360"/><stop offset="1" stop-color="#303835"/></linearGradient><linearGradient xlink:href="#a" id="b" x1="30" x2="30" y1="52" y2="8" gradientTransform="matrix(1.01457 0 0 .99784 3.563 -5.283)" gradientUnits="userSpaceOnUse"/></defs><path fill="#d2c6bc" stroke="#4d4d4d" stroke-opacity=".84" stroke-width=".1032318" d="M68.552 24.946q0-2.845 2.1-4.887 2.092-2.042 5.024-2.042 2.901 0 4.976 2.059 2.081 2.061 2.081 4.95 0 2.909-2.091 4.934-2.1 2.035-5.07 2.035-2.628 0-4.719-1.806-2.301-2.002-2.301-5.24zm2.064.029q0 2.234 1.511 3.676 1.504 1.441 3.472 1.441 2.135 0 3.602-1.465 1.468-1.487 1.468-3.619 0-2.155-1.451-3.613-1.44-1.466-3.566-1.466-2.118 0-3.578 1.466-1.458 1.449-1.458 3.58zm25.62 1.028 4.201 5.747h-2.504l-3.876-5.519h-.37v5.52H91.64V18.265h2.4q2.689 0 3.883 1.005 1.317 1.12 1.317 2.953 0 1.432-.824 2.462-.827 1.031-2.18 1.32zm-2.549-1.545h.653q2.906 0 2.906-2.21 0-2.067-2.829-2.067h-.73zm17.167 1.817v5.478h-2.047V18.266h2.32q1.705 0 2.575.238.878.236 1.548.89 1.167 1.136 1.167 2.866 0 1.85-1.247 2.931-1.25 1.084-3.365 1.084zm0-1.886h.764q2.822 0 2.822-2.156 0-2.09-2.909-2.09h-.677zm16.05-.846h5.851v-5.277h2.05V31.75h-2.047v-6.295h-5.85v6.295h-2.05V18.266h2.047zm24.972-3.364h-5.44v3.241h5.28v1.913h-5.28v4.505h5.44v1.912h-7.487V18.266h7.487zm11.068-1.913v8.122q0 1.74.57 2.542.854 1.162 2.399 1.162 1.556 0 2.407-1.162.573-.776.573-2.54v-8.124h2.046v8.679q0 2.131-1.335 3.51-1.504 1.538-3.691 1.538-2.188 0-3.68-1.538-1.337-1.379-1.337-3.508v-8.68zm25.251 2.01-1.66.98q-.467-.805-.888-1.05-.44-.28-1.136-.28-.851 0-1.414.481-.561.471-.561 1.187 0 .988 1.475 1.59l1.353.551q1.654.663 2.418 1.624.764.952.764 2.34 0 1.86-1.248 3.076-1.257 1.22-3.118 1.22-1.767 0-2.918-1.038-1.134-1.04-1.415-2.926l2.072-.454q.143 1.187.494 1.64.633.875 1.844.875.958 0 1.59-.639.634-.636.634-1.614 0-.394-.113-.716-.107-.332-.344-.6-.23-.282-.597-.517-.37-.246-.88-.464l-1.308-.54q-2.787-1.17-2.787-3.425 0-1.518 1.17-2.542 1.168-1.03 2.908-1.03 2.345 0 3.665 2.27z"/><g stroke="#4d4d4d" stroke-opacity=".61" stroke-width=".091" style="display:inline"><path fill="url(#b)" d="M30.376 3.698c-10.676 0-19.33 9.382-19.33 20.955s8.654 20.954 19.33 20.954c1.239 0 2.45-.126 3.624-.368a18.983 20.578 0 0 0 2.695-.778c7.521-2.819 12.938-10.53 13.01-19.623v-.37c-.091-7.149-5.464-12.912-12.08-12.912-1.263 0-2.481.21-3.625.6 4.902 1.668 8.457 6.632 8.457 12.497 0 5.864-3.555 10.828-8.457 12.497-1.144.389-2.362.6-3.624.6-6.617 0-11.99-5.764-12.081-12.912v-.37c.072-9.094 5.489-16.805 13.01-19.624A18.983 20.578 0 0 1 34 4.066a18 18 0 0 1 3.624-.368Zm0 0" transform="matrix(1.04348 0 0 1 -3.098 .348)"/><path fill="url(#c)" d="M34 4.066a18.983 20.578 0 0 0-2.695.778c-7.521 2.819-12.938 10.53-13.01 19.624v.37c.091 7.148 5.464 12.911 12.08 12.911 1.263 0 2.481-.21 3.625-.599-4.902-1.669-8.457-6.633-8.457-12.497 0-5.865 3.555-10.829 8.457-12.498 1.144-.389 2.362-.6 3.624-.6 6.617 0 11.99 5.764 12.081 12.913v.37c-.072 9.093-5.489 16.804-13.01 19.623A18.983 20.578 0 0 1 34 45.24a18 18 0 0 1-3.624.368h7.248c10.676 0 19.33-9.382 19.33-20.954S48.3 3.698 37.625 3.698c-1.239 0-2.45.126-3.624.368" transform="matrix(1.04348 0 0 1 -3.098 .348)"/></g></svg>
