<?xml version="1.0" encoding="UTF-8" standalone="no"?>
<svg
   class="cf-icon-svg cf-icon-svg__document"
   viewBox="0 0 12 19"
   version="1.1"
   id="svg15020"
   sodipodi:docname="document.svg"
   inkscape:version="1.2.2 (b0a84865, 2022-12-01)"
   xmlns:inkscape="http://www.inkscape.org/namespaces/inkscape"
   xmlns:sodipodi="http://sodipodi.sourceforge.net/DTD/sodipodi-0.dtd"
   xmlns="http://www.w3.org/2000/svg"
   xmlns:svg="http://www.w3.org/2000/svg">
  <defs
     id="defs15024" />
  <sodipodi:namedview
     id="namedview15022"
     pagecolor="#505050"
     bordercolor="#eeeeee"
     borderopacity="1"
     inkscape:showpageshadow="0"
     inkscape:pageopacity="0"
     inkscape:pagecheckerboard="0"
     inkscape:deskcolor="#505050"
     showgrid="false"
     inkscape:zoom="12.421053"
     inkscape:cx="5.595339"
     inkscape:cy="9.5"
     inkscape:window-width="1361"
     inkscape:window-height="456"
     inkscape:window-x="0"
     inkscape:window-y="25"
     inkscape:window-maximized="0"
     inkscape:current-layer="svg15020" />
  <path
     d="M11.16 16.153a.477.477 0 0 1-.476.475H1.316a.477.477 0 0 1-.475-.475V3.046a.477.477 0 0 1 .475-.475h6.95l2.893 2.893zm-1.11-9.924H8.059a.575.575 0 0 1-.574-.574V3.679H1.95v11.84h8.102zM3.907 4.92a1.03 1.03 0 1 0 1.029 1.03 1.03 1.03 0 0 0-1.03-1.03zm4.958 3.253h-5.87v1.108h5.87zm0 2.354h-5.87v1.109h5.87zm0 2.354h-5.87v1.109h5.87z"
     id="path15018"
     style="fill:#cccccc;fill-opacity:1" />
</svg>
