<?xml version="1.0" encoding="UTF-8" standalone="no"?>
<svg
   class="cf-icon-svg cf-icon-svg__document-round"
   viewBox="0 0 17 19"
   version="1.1"
   id="svg14895"
   sodipodi:docname="document-round.svg"
   inkscape:version="1.2.2 (b0a84865, 2022-12-01)"
   xmlns:inkscape="http://www.inkscape.org/namespaces/inkscape"
   xmlns:sodipodi="http://sodipodi.sourceforge.net/DTD/sodipodi-0.dtd"
   xmlns="http://www.w3.org/2000/svg"
   xmlns:svg="http://www.w3.org/2000/svg">
  <defs
     id="defs14899" />
  <sodipodi:namedview
     id="namedview14897"
     pagecolor="#505050"
     bordercolor="#eeeeee"
     borderopacity="1"
     inkscape:showpageshadow="0"
     inkscape:pageopacity="0"
     inkscape:pagecheckerboard="0"
     inkscape:deskcolor="#505050"
     showgrid="false"
     inkscape:zoom="12.421053"
     inkscape:cx="8.0911017"
     inkscape:cy="9.5"
     inkscape:window-width="1361"
     inkscape:window-height="456"
     inkscape:window-x="0"
     inkscape:window-y="25"
     inkscape:window-maximized="0"
     inkscape:current-layer="svg14895" />
  <path
     d="M16.417 9.579A7.917 7.917 0 1 1 8.5 1.662a7.917 7.917 0 0 1 7.917 7.917zm-4.233-1.805H9.259a.317.317 0 0 1-.317-.317v-2.9H5.16a.318.318 0 0 0-.317.317v9.368a.318.318 0 0 0 .317.316h6.707a.317.317 0 0 0 .317-.316zM6.599 6.212a.792.792 0 1 0 .791.792.792.792 0 0 0-.791-.792zm4.448 2.681H5.833v.792h5.214zm0 1.69H5.833v.792h5.214zm0 1.69H5.833v.792h5.214zM9.737 6.98h2.431l-2.43-2.416z"
     id="path14893"
     style="fill:#cccccc;fill-opacity:1" />
</svg>
