<?xml version="1.0" encoding="UTF-8" standalone="no"?>
<svg
   class="cf-icon-svg cf-icon-svg__lock"
   viewBox="0 0 12 19"
   version="1.1"
   id="svg15270"
   sodipodi:docname="lock.svg"
   inkscape:version="1.2.2 (b0a84865, 2022-12-01)"
   xmlns:inkscape="http://www.inkscape.org/namespaces/inkscape"
   xmlns:sodipodi="http://sodipodi.sourceforge.net/DTD/sodipodi-0.dtd"
   xmlns="http://www.w3.org/2000/svg"
   xmlns:svg="http://www.w3.org/2000/svg">
  <defs
     id="defs15274" />
  <sodipodi:namedview
     id="namedview15272"
     pagecolor="#505050"
     bordercolor="#eeeeee"
     borderopacity="1"
     inkscape:showpageshadow="0"
     inkscape:pageopacity="0"
     inkscape:pagecheckerboard="0"
     inkscape:deskcolor="#505050"
     showgrid="false"
     inkscape:zoom="12.421053"
     inkscape:cx="5.9576271"
     inkscape:cy="9.8220339"
     inkscape:window-width="932"
     inkscape:window-height="758"
     inkscape:window-x="0"
     inkscape:window-y="25"
     inkscape:window-maximized="0"
     inkscape:current-layer="svg15270" />
  <path
     d="M11.182 8.927v6.912a.794.794 0 0 1-.792.792H1.61a.794.794 0 0 1-.792-.792V8.927a.794.794 0 0 1 .792-.792h.856V6.367a3.534 3.534 0 1 1 7.068 0v1.768h.856a.794.794 0 0 1 .792.792zm-2.756-2.56a2.426 2.426 0 1 0-4.852 0v1.768h4.852zM7.108 11.47a1.108 1.108 0 1 0-1.583 1.001v1.849a.475.475 0 0 0 .95 0v-1.849a1.108 1.108 0 0 0 .633-1.001z"
     id="path15268"
     style="fill:#cccccc;fill-opacity:1" />
</svg>
