<svg xmlns="http://www.w3.org/2000/svg" xmlns:xlink="http://www.w3.org/1999/xlink" xmlns:v="https://vecta.io/nano"><defs><linearGradient id="A" gradientTransform="matrix(-0.68667648,0.05980273,0.05383804,0.61981705,-379.68649,-200.06777)" x1="-553.27002" y1="525.90997" x2="-715.52527" y2="365.12198" gradientUnits="userSpaceOnUse"><stop stop-color="#fff" offset="0"/><stop offset="1" stop-color="#2a2a2a"/></linearGradient></defs><script/><g transform="matrix(.9 0 0 .9 -7.418426 .73329079)"><use xlink:href="#B" transform="matrix(-.9993739999999999 -.04621014 .04212234 -.9986779999999998 125.26143000000002 112.28283)"/><path d="M100.77158 58.285847c.10185 39.276295-27.049662 45.358923-30.942832 45.697983-28.112185 2.44829-53.332544-16.488537-55.825256-45.186181C11.232831 26.900065 37.012453 6.8527162 61.208786 4.745455c-6.774341-.2542023-34.440789 9.81199-33.761456 46.110417.444601 23.756181 24.356387 47.794564 41.216564 39.717429 21.106778-10.111534 22.025329-62.491721-2.770971-73.112405 25.678928-2.376432 34.406127 27.330491 34.878657 40.824951z" fill="url(#A)" id="B" fill-rule="evenodd"/></g></svg>