<?xml version="1.0" encoding="UTF-8" standalone="no"?>
<svg
   class="cf-icon-svg cf-icon-svg__lock-round"
   viewBox="0 0 17 19"
   version="1.1"
   id="svg13897"
   sodipodi:docname="pin-and-lock.svg"
   xml:space="preserve"
   inkscape:version="1.2.2 (b0a84865, 2022-12-01)"
   xmlns:inkscape="http://www.inkscape.org/namespaces/inkscape"
   xmlns:sodipodi="http://sodipodi.sourceforge.net/DTD/sodipodi-0.dtd"
   xmlns="http://www.w3.org/2000/svg"
   xmlns:svg="http://www.w3.org/2000/svg"><defs
     id="defs13901" /><sodipodi:namedview
     id="namedview13899"
     pagecolor="#505050"
     bordercolor="#eeeeee"
     borderopacity="1"
     inkscape:showpageshadow="0"
     inkscape:pageopacity="0"
     inkscape:pagecheckerboard="0"
     inkscape:deskcolor="#505050"
     showgrid="false"
     inkscape:zoom="10.06735"
     inkscape:cx="7.1021669"
     inkscape:cy="13.658013"
     inkscape:window-width="1361"
     inkscape:window-height="503"
     inkscape:window-x="0"
     inkscape:window-y="25"
     inkscape:window-maximized="0"
     inkscape:current-layer="svg13897" /><style
     type="text/css"
     id="style21910">
	.st0{fill:#FFFFFF;}
	.st1{fill:#BF311A;}
</style><g
     inkscape:groupmode="layer"
     id="layer1"
     inkscape:label="Layer 1" /><g
     inkscape:label="Ebene 1"
     id="layer1-0"
     transform="matrix(-0.06644591,0.00179192,0.00179192,0.06644591,-196.30809,-30.711629)"><path
       id="path4675"
       style="fill:#cccccc"
       d="m -3068.9068,720.10286 c -2.2362,-1.16599 -3.2693,-2.82591 -3.2693,-5.25301 0,-1.37445 0.4186,-2.46216 3.2648,-8.48315 1.9975,-4.22581 7.7941,-16.64748 14.606,-31.29972 0.7895,-1.6981 1.4877,-3.13966 1.5514,-3.20347 0.2074,-0.20739 16.0874,9.03066 16.2563,9.45698 0.1366,0.34448 -6.7379,10.45962 -15.3852,22.63785 -1.0749,1.51383 -3.9344,5.59509 -6.3546,9.06947 -3.7568,5.39327 -4.6072,6.411 -5.815,6.95951 -1.7329,0.78696 -3.4867,0.8287 -4.8544,0.11554 z m 80.3077,-20.54419 c -0.8363,-0.43293 -3.6106,-2.00573 -6.1652,-3.49512 -2.5546,-1.48939 -6.5801,-3.82068 -8.9454,-5.18065 -2.3653,-1.35996 -6.8553,-3.94662 -9.9775,-5.74814 -16.869,-9.73324 -25.9944,-15.00008 -29.0724,-16.77958 -1.8923,-1.094 -6.7693,-3.9138 -10.8377,-6.26624 -17.211,-9.95172 -21.5641,-12.46559 -29.0724,-16.78895 -10.4205,-6.00026 -10.8994,-6.31285 -11.6697,-7.61694 -0.7804,-1.32104 -0.8617,-3.68565 -0.1612,-4.68578 1.852,-2.64409 8.0215,-6.06713 13.5758,-7.53223 3.0632,-0.80804 4.2197,-0.91827 11.202,-1.06774 l 7.7862,-0.16669 4.4593,-5.55103 c 2.4525,-3.05306 12.2223,-15.2647 21.7106,-27.13697 l 17.2513,-21.58595 -1.57,-1.56997 c -4.3481,-4.34818 -4.5829,-11.0891 -0.5462,-15.68662 2.458,-2.79948 7.2835,-4.3023 10.9727,-3.41725 1.696,0.40685 2.7935,0.99982 16.2707,8.79099 3.8792,2.24254 9.9174,5.7314 13.4181,7.75301 3.5007,2.0216 8.4551,4.88558 11.0097,6.36441 2.5545,1.47882 7.1202,4.0954 10.1459,5.81462 6.0958,3.46376 7.8463,4.95476 9.296,7.9179 0.8069,1.64921 0.9835,2.46693 1.0016,4.63882 0.019,2.30995 -0.118,2.92106 -1.1079,4.93173 -1.2277,2.49398 -3.0074,4.26142 -5.5115,5.47364 -2.0525,0.99361 -5.8793,1.23813 -7.9704,0.50929 -0.8487,-0.29586 -1.6462,-0.42735 -1.7719,-0.29219 -0.2653,0.28498 -1.861,4.22672 -5.8102,14.35188 -1.5499,3.97381 -3.6364,9.31521 -4.6366,11.8698 -1.0002,2.55459 -3.0891,7.896 -4.6421,11.8698 -3.5163,8.99789 -5.1787,13.23576 -8.0586,20.54246 -1.2461,3.16152 -2.2655,5.8568 -2.2655,5.98951 0,0.13272 0.9438,1.6983 2.0974,3.4791 3.744,5.77945 6.3409,12.05508 7.2049,17.4108 0.5623,3.4856 0.2855,9.66391 -0.5011,11.185 -1.2486,2.41461 -4.2941,3.13232 -7.1087,1.67528 z m -40.6558,-74.56031 c 2.6186,-3.8792 7.7081,-11.38814 11.3099,-16.68654 3.6019,-5.2984 8.5345,-12.57511 10.9615,-16.17045 2.4269,-3.59535 5.0853,-7.49368 5.9075,-8.66296 0.8222,-1.16928 1.4921,-2.25304 1.4887,-2.40837 -0.01,-0.24637 -2.2536,-1.61963 -8.3077,-5.07441 l -1.6049,-0.91585 -0.8498,1.13367 c -0.9637,1.28555 -19.104,26.66012 -24.669,34.50673 -2.0131,2.83844 -5.4685,7.67266 -7.6788,10.74273 -2.2103,3.07006 -4.0187,5.70784 -4.0187,5.86174 0,0.15389 1.5856,0.79953 3.5237,1.43477 1.9379,0.63525 4.6861,1.66315 6.1069,2.28424 1.4207,0.62108 2.6927,1.1019 2.8264,1.0685 0.1337,-0.0334 2.3856,-3.23462 5.0043,-7.1138 z m -150.7149,111.18302 2.0925,77.58971 a 8.9161783,8.9161783 0 0 0 9.1302,8.65072 l 98.5587,-2.65795 a 8.9161783,8.9161783 0 0 0 8.6507,-9.13022 l -2.0924,-77.58972 a 8.9161783,8.9161783 0 0 0 -9.1303,-8.65073 l -9.6089,0.25913 -0.5352,-19.84642 a 39.684856,39.684856 0 1 0 -79.3408,2.13967 l 0.5352,19.84643 -9.609,0.25913 a 8.9161783,8.9161783 0 0 0 -8.6507,9.13025 z m 30.1621,-29.57123 a 27.242638,27.242638 0 1 1 54.4655,-1.46883 l 0.5352,19.84643 -54.4654,1.46883 z m 16.3399,56.88402 a 12.442223,12.442223 0 1 1 18.0728,10.75738 l 0.5597,20.75568 a 5.3339948,5.3339948 0 0 1 -10.6641,0.28759 l -0.5597,-20.75568 a 12.442223,12.442223 0 0 1 -7.4087,-11.04497 z" /><g
       id="g4452"
       transform="matrix(0.36160947,0,0,0.36160947,-1405.6123,360.68288)" /></g></svg>
