<svg xmlns="http://www.w3.org/2000/svg" xml:space="preserve" width="30" height="30" viewBox="0 0 30 30"><g style="fill:#eee;fill-opacity:1"><path d="M126.233 51.15 81.066 38.114l14.702-11.056c-4.192-7.625-11.094-13.556-19.404-16.472A35.3 35.3 0 0 0 64.661 8.6c-16.448 0-30.319 11.243-34.33 26.449-4.806 18.222 6.21 39 26.013 43.612 4.056.945 20.978 3.803 34.206-10.303l15.338 14.36C89.887 99.788 68.052 102.91 51.602 99.15 19.709 91.86 2.137 58.344 10.183 29.083 16.76 5.169 38.657-12.398 64.661-12.398c5.935 0 11.656.915 17.03 2.613 12.985 4.103 23.941 12.773 30.99 24.123l13.56-10.2Z" style="display:inline;fill:#eee;fill-opacity:1" transform="matrix(.0618 -.22912 -.22159 -.0639 20.776 33.127)"/></g></svg>