<svg xmlns="http://www.w3.org/2000/svg" width="30" height="30" viewBox="0 0 30 30"><path d="M18.33 1c-.165.01-.298.139-.247.416l1.36 9.054c.048.275.35.324.55.131l2.218-2.257c.14-.143.297-.154.394-.067 2.395 2.519 3.328 6.099 2.304 9.515-1.32 4.404-5.577 7.394-10.36 7.19-4.784-.202-8.748-3.536-9.668-8.031s1.413-9.007 5.74-10.97L9.104 2.614c-5.828 2.642-9.1 8.887-7.833 15.079s6.712 10.71 13.122 10.983 12.23-3.762 14.046-9.82c1.418-4.732.08-9.74-3.23-13.196l.004-.004c-.137-.14-.077-.197.026-.301L27.8 2.75c.184-.187.032-.284-.237-.332l-9.16-1.414A.4.4 0 0 0 18.33 1" style="color:#000;fill:#eee;stroke-width:.054763;-inkscape-stroke:none;fill-opacity:1"/></svg>